<?xml version="1.0" encoding="utf-8" standalone="no"?>
<!DOCTYPE svg PUBLIC "-//W3C//DTD SVG 1.1//EN"
  "http://www.w3.org/Graphics/SVG/1.1/DTD/svg11.dtd">
<!-- Created with matplotlib (https://matplotlib.org/) -->
<svg height="576pt" version="1.1" viewBox="0 0 864 576" width="864pt" xmlns="http://www.w3.org/2000/svg" xmlns:xlink="http://www.w3.org/1999/xlink">
 <defs>
  <style type="text/css">
*{stroke-linecap:butt;stroke-linejoin:round;}
  </style>
 </defs>
 <g id="figure_1">
  <g id="patch_1">
   <path d="M 0 576 
L 864 576 
L 864 0 
L 0 0 
z
" style="fill:#ffffff;"/>
  </g>
  <g id="axes_1">
   <g id="patch_2">
    <path d="M 67.21 442.79 
L 851.04 442.79 
L 851.04 29.96 
L 67.21 29.96 
z
" style="fill:#ffffff;"/>
   </g>
   <g id="patch_3">
    <path clip-path="url(#pc1d09b2824)" d="M 102.838636 442.79 
L 124.109464 442.79 
L 124.109464 49.618571 
L 102.838636 49.618571 
z
" style="fill:#3754b3;"/>
   </g>
   <g id="patch_4">
    <path clip-path="url(#pc1d09b2824)" d="M 129.427171 442.79 
L 150.697999 442.79 
L 150.697999 360.904373 
L 129.427171 360.904373 
z
" style="fill:#3754b3;"/>
   </g>
   <g id="patch_5">
    <path clip-path="url(#pc1d09b2824)" d="M 156.015706 442.79 
L 177.286533 442.79 
L 177.286533 364.717674 
L 156.015706 364.717674 
z
" style="fill:#3754b3;"/>
   </g>
   <g id="patch_6">
    <path clip-path="url(#pc1d09b2824)" d="M 182.60424 442.79 
L 203.875068 442.79 
L 203.875068 374.351278 
L 182.60424 374.351278 
z
" style="fill:#3754b3;"/>
   </g>
   <g id="patch_7">
    <path clip-path="url(#pc1d09b2824)" d="M 209.192775 442.79 
L 230.463602 442.79 
L 230.463602 385.389781 
L 209.192775 385.389781 
z
" style="fill:#3754b3;"/>
   </g>
   <g id="patch_8">
    <path clip-path="url(#pc1d09b2824)" d="M 235.781309 442.79 
L 257.052137 442.79 
L 257.052137 415.494791 
L 235.781309 415.494791 
z
" style="fill:#3754b3;"/>
   </g>
   <g id="patch_9">
    <path clip-path="url(#pc1d09b2824)" d="M 262.369844 442.79 
L 283.640672 442.79 
L 283.640672 415.896191 
L 262.369844 415.896191 
z
" style="fill:#3754b3;"/>
   </g>
   <g id="patch_10">
    <path clip-path="url(#pc1d09b2824)" d="M 288.958379 442.79 
L 310.229206 442.79 
L 310.229206 417.702492 
L 288.958379 417.702492 
z
" style="fill:#3754b3;"/>
   </g>
   <g id="patch_11">
    <path clip-path="url(#pc1d09b2824)" d="M 315.546913 442.79 
L 336.817741 442.79 
L 336.817741 421.917193 
L 315.546913 421.917193 
z
" style="fill:#3754b3;"/>
   </g>
   <g id="patch_12">
    <path clip-path="url(#pc1d09b2824)" d="M 342.135448 442.79 
L 363.406275 442.79 
L 363.406275 422.519293 
L 342.135448 422.519293 
z
" style="fill:#3754b3;"/>
   </g>
   <g id="patch_13">
    <path clip-path="url(#pc1d09b2824)" d="M 368.723982 442.79 
L 389.99481 442.79 
L 389.99481 423.924194 
L 368.723982 423.924194 
z
" style="fill:#3754b3;"/>
   </g>
   <g id="patch_14">
    <path clip-path="url(#pc1d09b2824)" d="M 395.312517 442.79 
L 416.583345 442.79 
L 416.583345 427.938195 
L 395.312517 427.938195 
z
" style="fill:#3754b3;"/>
   </g>
   <g id="patch_15">
    <path clip-path="url(#pc1d09b2824)" d="M 421.901052 442.79 
L 443.171879 442.79 
L 443.171879 429.744496 
L 421.901052 429.744496 
z
" style="fill:#3754b3;"/>
   </g>
   <g id="patch_16">
    <path clip-path="url(#pc1d09b2824)" d="M 448.489586 442.79 
L 469.760414 442.79 
L 469.760414 432.353597 
L 448.489586 432.353597 
z
" style="fill:#3754b3;"/>
   </g>
   <g id="patch_17">
    <path clip-path="url(#pc1d09b2824)" d="M 475.078121 442.79 
L 496.348948 442.79 
L 496.348948 432.955697 
L 475.078121 432.955697 
z
" style="fill:#3754b3;"/>
   </g>
   <g id="patch_18">
    <path clip-path="url(#pc1d09b2824)" d="M 501.666655 442.79 
L 522.937483 442.79 
L 522.937483 439.378099 
L 501.666655 439.378099 
z
" style="fill:#3754b3;"/>
   </g>
   <g id="patch_19">
    <path clip-path="url(#pc1d09b2824)" d="M 528.25519 442.79 
L 549.526018 442.79 
L 549.526018 439.578799 
L 528.25519 439.578799 
z
" style="fill:#3754b3;"/>
   </g>
   <g id="patch_20">
    <path clip-path="url(#pc1d09b2824)" d="M 554.843725 442.79 
L 576.114552 442.79 
L 576.114552 439.578799 
L 554.843725 439.578799 
z
" style="fill:#3754b3;"/>
   </g>
   <g id="patch_21">
    <path clip-path="url(#pc1d09b2824)" d="M 581.432259 442.79 
L 602.703087 442.79 
L 602.703087 440.381599 
L 581.432259 440.381599 
z
" style="fill:#3754b3;"/>
   </g>
   <g id="patch_22">
    <path clip-path="url(#pc1d09b2824)" d="M 608.020794 442.79 
L 629.291621 442.79 
L 629.291621 440.782999 
L 608.020794 440.782999 
z
" style="fill:#3754b3;"/>
   </g>
   <g id="patch_23">
    <path clip-path="url(#pc1d09b2824)" d="M 634.609328 442.79 
L 655.880156 442.79 
L 655.880156 441.3851 
L 634.609328 441.3851 
z
" style="fill:#3754b3;"/>
   </g>
   <g id="patch_24">
    <path clip-path="url(#pc1d09b2824)" d="M 661.197863 442.79 
L 682.468691 442.79 
L 682.468691 441.5858 
L 661.197863 441.5858 
z
" style="fill:#3754b3;"/>
   </g>
   <g id="patch_25">
    <path clip-path="url(#pc1d09b2824)" d="M 687.786398 442.79 
L 709.057225 442.79 
L 709.057225 441.5858 
L 687.786398 441.5858 
z
" style="fill:#3754b3;"/>
   </g>
   <g id="patch_26">
    <path clip-path="url(#pc1d09b2824)" d="M 714.374932 442.79 
L 735.64576 442.79 
L 735.64576 441.7865 
L 714.374932 441.7865 
z
" style="fill:#3754b3;"/>
   </g>
   <g id="patch_27">
    <path clip-path="url(#pc1d09b2824)" d="M 740.963467 442.79 
L 762.234294 442.79 
L 762.234294 441.9872 
L 740.963467 441.9872 
z
" style="fill:#3754b3;"/>
   </g>
   <g id="patch_28">
    <path clip-path="url(#pc1d09b2824)" d="M 767.552001 442.79 
L 788.822829 442.79 
L 788.822829 441.9872 
L 767.552001 441.9872 
z
" style="fill:#3754b3;"/>
   </g>
   <g id="patch_29">
    <path clip-path="url(#pc1d09b2824)" d="M 794.140536 442.79 
L 815.411364 442.79 
L 815.411364 442.3886 
L 794.140536 442.3886 
z
" style="fill:#3754b3;"/>
   </g>
   <g id="matplotlib.axis_1">
    <g id="xtick_1">
     <g id="line2d_1">
      <defs>
       <path d="M 0 0 
L 0 3.5 
" id="md2bd9a5955" style="stroke:#000000;stroke-width:0.8;"/>
      </defs>
      <g>
       <use style="stroke:#000000;stroke-width:0.8;" x="113.47405" xlink:href="#md2bd9a5955" y="442.79"/>
      </g>
     </g>
     <g id="text_1">
      <!-- United Kingdom -->
      <defs>
       <path d="M 8.6875 72.90625 
L 18.609375 72.90625 
L 18.609375 28.609375 
Q 18.609375 16.890625 22.84375 11.734375 
Q 27.09375 6.59375 36.625 6.59375 
Q 46.09375 6.59375 50.34375 11.734375 
Q 54.59375 16.890625 54.59375 28.609375 
L 54.59375 72.90625 
L 64.5 72.90625 
L 64.5 27.390625 
Q 64.5 13.140625 57.4375 5.859375 
Q 50.390625 -1.421875 36.625 -1.421875 
Q 22.796875 -1.421875 15.734375 5.859375 
Q 8.6875 13.140625 8.6875 27.390625 
z
" id="DejaVuSans-85"/>
       <path d="M 54.890625 33.015625 
L 54.890625 0 
L 45.90625 0 
L 45.90625 32.71875 
Q 45.90625 40.484375 42.875 44.328125 
Q 39.84375 48.1875 33.796875 48.1875 
Q 26.515625 48.1875 22.3125 43.546875 
Q 18.109375 38.921875 18.109375 30.90625 
L 18.109375 0 
L 9.078125 0 
L 9.078125 54.6875 
L 18.109375 54.6875 
L 18.109375 46.1875 
Q 21.34375 51.125 25.703125 53.5625 
Q 30.078125 56 35.796875 56 
Q 45.21875 56 50.046875 50.171875 
Q 54.890625 44.34375 54.890625 33.015625 
z
" id="DejaVuSans-110"/>
       <path d="M 9.421875 54.6875 
L 18.40625 54.6875 
L 18.40625 0 
L 9.421875 0 
z
M 9.421875 75.984375 
L 18.40625 75.984375 
L 18.40625 64.59375 
L 9.421875 64.59375 
z
" id="DejaVuSans-105"/>
       <path d="M 18.3125 70.21875 
L 18.3125 54.6875 
L 36.8125 54.6875 
L 36.8125 47.703125 
L 18.3125 47.703125 
L 18.3125 18.015625 
Q 18.3125 11.328125 20.140625 9.421875 
Q 21.96875 7.515625 27.59375 7.515625 
L 36.8125 7.515625 
L 36.8125 0 
L 27.59375 0 
Q 17.1875 0 13.234375 3.875 
Q 9.28125 7.765625 9.28125 18.015625 
L 9.28125 47.703125 
L 2.6875 47.703125 
L 2.6875 54.6875 
L 9.28125 54.6875 
L 9.28125 70.21875 
z
" id="DejaVuSans-116"/>
       <path d="M 56.203125 29.59375 
L 56.203125 25.203125 
L 14.890625 25.203125 
Q 15.484375 15.921875 20.484375 11.0625 
Q 25.484375 6.203125 34.421875 6.203125 
Q 39.59375 6.203125 44.453125 7.46875 
Q 49.3125 8.734375 54.109375 11.28125 
L 54.109375 2.78125 
Q 49.265625 0.734375 44.1875 -0.34375 
Q 39.109375 -1.421875 33.890625 -1.421875 
Q 20.796875 -1.421875 13.15625 6.1875 
Q 5.515625 13.8125 5.515625 26.8125 
Q 5.515625 40.234375 12.765625 48.109375 
Q 20.015625 56 32.328125 56 
Q 43.359375 56 49.78125 48.890625 
Q 56.203125 41.796875 56.203125 29.59375 
z
M 47.21875 32.234375 
Q 47.125 39.59375 43.09375 43.984375 
Q 39.0625 48.390625 32.421875 48.390625 
Q 24.90625 48.390625 20.390625 44.140625 
Q 15.875 39.890625 15.1875 32.171875 
z
" id="DejaVuSans-101"/>
       <path d="M 45.40625 46.390625 
L 45.40625 75.984375 
L 54.390625 75.984375 
L 54.390625 0 
L 45.40625 0 
L 45.40625 8.203125 
Q 42.578125 3.328125 38.25 0.953125 
Q 33.9375 -1.421875 27.875 -1.421875 
Q 17.96875 -1.421875 11.734375 6.484375 
Q 5.515625 14.40625 5.515625 27.296875 
Q 5.515625 40.1875 11.734375 48.09375 
Q 17.96875 56 27.875 56 
Q 33.9375 56 38.25 53.625 
Q 42.578125 51.265625 45.40625 46.390625 
z
M 14.796875 27.296875 
Q 14.796875 17.390625 18.875 11.75 
Q 22.953125 6.109375 30.078125 6.109375 
Q 37.203125 6.109375 41.296875 11.75 
Q 45.40625 17.390625 45.40625 27.296875 
Q 45.40625 37.203125 41.296875 42.84375 
Q 37.203125 48.484375 30.078125 48.484375 
Q 22.953125 48.484375 18.875 42.84375 
Q 14.796875 37.203125 14.796875 27.296875 
z
" id="DejaVuSans-100"/>
       <path id="DejaVuSans-32"/>
       <path d="M 9.8125 72.90625 
L 19.671875 72.90625 
L 19.671875 42.09375 
L 52.390625 72.90625 
L 65.09375 72.90625 
L 28.90625 38.921875 
L 67.671875 0 
L 54.6875 0 
L 19.671875 35.109375 
L 19.671875 0 
L 9.8125 0 
z
" id="DejaVuSans-75"/>
       <path d="M 45.40625 27.984375 
Q 45.40625 37.75 41.375 43.109375 
Q 37.359375 48.484375 30.078125 48.484375 
Q 22.859375 48.484375 18.828125 43.109375 
Q 14.796875 37.75 14.796875 27.984375 
Q 14.796875 18.265625 18.828125 12.890625 
Q 22.859375 7.515625 30.078125 7.515625 
Q 37.359375 7.515625 41.375 12.890625 
Q 45.40625 18.265625 45.40625 27.984375 
z
M 54.390625 6.78125 
Q 54.390625 -7.171875 48.1875 -13.984375 
Q 42 -20.796875 29.203125 -20.796875 
Q 24.46875 -20.796875 20.265625 -20.09375 
Q 16.0625 -19.390625 12.109375 -17.921875 
L 12.109375 -9.1875 
Q 16.0625 -11.328125 19.921875 -12.34375 
Q 23.78125 -13.375 27.78125 -13.375 
Q 36.625 -13.375 41.015625 -8.765625 
Q 45.40625 -4.15625 45.40625 5.171875 
L 45.40625 9.625 
Q 42.625 4.78125 38.28125 2.390625 
Q 33.9375 0 27.875 0 
Q 17.828125 0 11.671875 7.65625 
Q 5.515625 15.328125 5.515625 27.984375 
Q 5.515625 40.671875 11.671875 48.328125 
Q 17.828125 56 27.875 56 
Q 33.9375 56 38.28125 53.609375 
Q 42.625 51.21875 45.40625 46.390625 
L 45.40625 54.6875 
L 54.390625 54.6875 
z
" id="DejaVuSans-103"/>
       <path d="M 30.609375 48.390625 
Q 23.390625 48.390625 19.1875 42.75 
Q 14.984375 37.109375 14.984375 27.296875 
Q 14.984375 17.484375 19.15625 11.84375 
Q 23.34375 6.203125 30.609375 6.203125 
Q 37.796875 6.203125 41.984375 11.859375 
Q 46.1875 17.53125 46.1875 27.296875 
Q 46.1875 37.015625 41.984375 42.703125 
Q 37.796875 48.390625 30.609375 48.390625 
z
M 30.609375 56 
Q 42.328125 56 49.015625 48.375 
Q 55.71875 40.765625 55.71875 27.296875 
Q 55.71875 13.875 49.015625 6.21875 
Q 42.328125 -1.421875 30.609375 -1.421875 
Q 18.84375 -1.421875 12.171875 6.21875 
Q 5.515625 13.875 5.515625 27.296875 
Q 5.515625 40.765625 12.171875 48.375 
Q 18.84375 56 30.609375 56 
z
" id="DejaVuSans-111"/>
       <path d="M 52 44.1875 
Q 55.375 50.25 60.0625 53.125 
Q 64.75 56 71.09375 56 
Q 79.640625 56 84.28125 50.015625 
Q 88.921875 44.046875 88.921875 33.015625 
L 88.921875 0 
L 79.890625 0 
L 79.890625 32.71875 
Q 79.890625 40.578125 77.09375 44.375 
Q 74.3125 48.1875 68.609375 48.1875 
Q 61.625 48.1875 57.5625 43.546875 
Q 53.515625 38.921875 53.515625 30.90625 
L 53.515625 0 
L 44.484375 0 
L 44.484375 32.71875 
Q 44.484375 40.625 41.703125 44.40625 
Q 38.921875 48.1875 33.109375 48.1875 
Q 26.21875 48.1875 22.15625 43.53125 
Q 18.109375 38.875 18.109375 30.90625 
L 18.109375 0 
L 9.078125 0 
L 9.078125 54.6875 
L 18.109375 54.6875 
L 18.109375 46.1875 
Q 21.1875 51.21875 25.484375 53.609375 
Q 29.78125 56 35.6875 56 
Q 41.65625 56 45.828125 52.96875 
Q 50 49.953125 52 44.1875 
z
" id="DejaVuSans-109"/>
      </defs>
      <g transform="translate(116.7853 546.106875)rotate(-90)scale(0.12 -0.12)">
       <use xlink:href="#DejaVuSans-85"/>
       <use x="73.193359" xlink:href="#DejaVuSans-110"/>
       <use x="136.572266" xlink:href="#DejaVuSans-105"/>
       <use x="164.355469" xlink:href="#DejaVuSans-116"/>
       <use x="203.564453" xlink:href="#DejaVuSans-101"/>
       <use x="265.087891" xlink:href="#DejaVuSans-100"/>
       <use x="328.564453" xlink:href="#DejaVuSans-32"/>
       <use x="360.351562" xlink:href="#DejaVuSans-75"/>
       <use x="425.927734" xlink:href="#DejaVuSans-105"/>
       <use x="453.710938" xlink:href="#DejaVuSans-110"/>
       <use x="517.089844" xlink:href="#DejaVuSans-103"/>
       <use x="580.566406" xlink:href="#DejaVuSans-100"/>
       <use x="644.042969" xlink:href="#DejaVuSans-111"/>
       <use x="705.224609" xlink:href="#DejaVuSans-109"/>
      </g>
     </g>
    </g>
    <g id="xtick_2">
     <g id="line2d_2">
      <g>
       <use style="stroke:#000000;stroke-width:0.8;" x="140.062585" xlink:href="#md2bd9a5955" y="442.79"/>
      </g>
     </g>
     <g id="text_2">
      <!-- Germany -->
      <defs>
       <path d="M 59.515625 10.40625 
L 59.515625 29.984375 
L 43.40625 29.984375 
L 43.40625 38.09375 
L 69.28125 38.09375 
L 69.28125 6.78125 
Q 63.578125 2.734375 56.6875 0.65625 
Q 49.8125 -1.421875 42 -1.421875 
Q 24.90625 -1.421875 15.25 8.5625 
Q 5.609375 18.5625 5.609375 36.375 
Q 5.609375 54.25 15.25 64.234375 
Q 24.90625 74.21875 42 74.21875 
Q 49.125 74.21875 55.546875 72.453125 
Q 61.96875 70.703125 67.390625 67.28125 
L 67.390625 56.78125 
Q 61.921875 61.421875 55.765625 63.765625 
Q 49.609375 66.109375 42.828125 66.109375 
Q 29.4375 66.109375 22.71875 58.640625 
Q 16.015625 51.171875 16.015625 36.375 
Q 16.015625 21.625 22.71875 14.15625 
Q 29.4375 6.6875 42.828125 6.6875 
Q 48.046875 6.6875 52.140625 7.59375 
Q 56.25 8.5 59.515625 10.40625 
z
" id="DejaVuSans-71"/>
       <path d="M 41.109375 46.296875 
Q 39.59375 47.171875 37.8125 47.578125 
Q 36.03125 48 33.890625 48 
Q 26.265625 48 22.1875 43.046875 
Q 18.109375 38.09375 18.109375 28.8125 
L 18.109375 0 
L 9.078125 0 
L 9.078125 54.6875 
L 18.109375 54.6875 
L 18.109375 46.1875 
Q 20.953125 51.171875 25.484375 53.578125 
Q 30.03125 56 36.53125 56 
Q 37.453125 56 38.578125 55.875 
Q 39.703125 55.765625 41.0625 55.515625 
z
" id="DejaVuSans-114"/>
       <path d="M 34.28125 27.484375 
Q 23.390625 27.484375 19.1875 25 
Q 14.984375 22.515625 14.984375 16.5 
Q 14.984375 11.71875 18.140625 8.90625 
Q 21.296875 6.109375 26.703125 6.109375 
Q 34.1875 6.109375 38.703125 11.40625 
Q 43.21875 16.703125 43.21875 25.484375 
L 43.21875 27.484375 
z
M 52.203125 31.203125 
L 52.203125 0 
L 43.21875 0 
L 43.21875 8.296875 
Q 40.140625 3.328125 35.546875 0.953125 
Q 30.953125 -1.421875 24.3125 -1.421875 
Q 15.921875 -1.421875 10.953125 3.296875 
Q 6 8.015625 6 15.921875 
Q 6 25.140625 12.171875 29.828125 
Q 18.359375 34.515625 30.609375 34.515625 
L 43.21875 34.515625 
L 43.21875 35.40625 
Q 43.21875 41.609375 39.140625 45 
Q 35.0625 48.390625 27.6875 48.390625 
Q 23 48.390625 18.546875 47.265625 
Q 14.109375 46.140625 10.015625 43.890625 
L 10.015625 52.203125 
Q 14.9375 54.109375 19.578125 55.046875 
Q 24.21875 56 28.609375 56 
Q 40.484375 56 46.34375 49.84375 
Q 52.203125 43.703125 52.203125 31.203125 
z
" id="DejaVuSans-97"/>
       <path d="M 32.171875 -5.078125 
Q 28.375 -14.84375 24.75 -17.8125 
Q 21.140625 -20.796875 15.09375 -20.796875 
L 7.90625 -20.796875 
L 7.90625 -13.28125 
L 13.1875 -13.28125 
Q 16.890625 -13.28125 18.9375 -11.515625 
Q 21 -9.765625 23.484375 -3.21875 
L 25.09375 0.875 
L 2.984375 54.6875 
L 12.5 54.6875 
L 29.59375 11.921875 
L 46.6875 54.6875 
L 56.203125 54.6875 
z
" id="DejaVuSans-121"/>
      </defs>
      <g transform="translate(143.373835 505.153125)rotate(-90)scale(0.12 -0.12)">
       <use xlink:href="#DejaVuSans-71"/>
       <use x="77.490234" xlink:href="#DejaVuSans-101"/>
       <use x="139.013672" xlink:href="#DejaVuSans-114"/>
       <use x="180.111328" xlink:href="#DejaVuSans-109"/>
       <use x="277.523438" xlink:href="#DejaVuSans-97"/>
       <use x="338.802734" xlink:href="#DejaVuSans-110"/>
       <use x="402.181641" xlink:href="#DejaVuSans-121"/>
      </g>
     </g>
    </g>
    <g id="xtick_3">
     <g id="line2d_3">
      <g>
       <use style="stroke:#000000;stroke-width:0.8;" x="166.651119" xlink:href="#md2bd9a5955" y="442.79"/>
      </g>
     </g>
     <g id="text_3">
      <!-- France -->
      <defs>
       <path d="M 9.8125 72.90625 
L 51.703125 72.90625 
L 51.703125 64.59375 
L 19.671875 64.59375 
L 19.671875 43.109375 
L 48.578125 43.109375 
L 48.578125 34.8125 
L 19.671875 34.8125 
L 19.671875 0 
L 9.8125 0 
z
" id="DejaVuSans-70"/>
       <path d="M 48.78125 52.59375 
L 48.78125 44.1875 
Q 44.96875 46.296875 41.140625 47.34375 
Q 37.3125 48.390625 33.40625 48.390625 
Q 24.65625 48.390625 19.8125 42.84375 
Q 14.984375 37.3125 14.984375 27.296875 
Q 14.984375 17.28125 19.8125 11.734375 
Q 24.65625 6.203125 33.40625 6.203125 
Q 37.3125 6.203125 41.140625 7.25 
Q 44.96875 8.296875 48.78125 10.40625 
L 48.78125 2.09375 
Q 45.015625 0.34375 40.984375 -0.53125 
Q 36.96875 -1.421875 32.421875 -1.421875 
Q 20.0625 -1.421875 12.78125 6.34375 
Q 5.515625 14.109375 5.515625 27.296875 
Q 5.515625 40.671875 12.859375 48.328125 
Q 20.21875 56 33.015625 56 
Q 37.15625 56 41.109375 55.140625 
Q 45.0625 54.296875 48.78125 52.59375 
z
" id="DejaVuSans-99"/>
      </defs>
      <g transform="translate(169.962369 490.5525)rotate(-90)scale(0.12 -0.12)">
       <use xlink:href="#DejaVuSans-70"/>
       <use x="57.410156" xlink:href="#DejaVuSans-114"/>
       <use x="98.523438" xlink:href="#DejaVuSans-97"/>
       <use x="159.802734" xlink:href="#DejaVuSans-110"/>
       <use x="223.181641" xlink:href="#DejaVuSans-99"/>
       <use x="278.162109" xlink:href="#DejaVuSans-101"/>
      </g>
     </g>
    </g>
    <g id="xtick_4">
     <g id="line2d_4">
      <g>
       <use style="stroke:#000000;stroke-width:0.8;" x="193.239654" xlink:href="#md2bd9a5955" y="442.79"/>
      </g>
     </g>
     <g id="text_4">
      <!-- Spain -->
      <defs>
       <path d="M 53.515625 70.515625 
L 53.515625 60.890625 
Q 47.90625 63.578125 42.921875 64.890625 
Q 37.9375 66.21875 33.296875 66.21875 
Q 25.25 66.21875 20.875 63.09375 
Q 16.5 59.96875 16.5 54.203125 
Q 16.5 49.359375 19.40625 46.890625 
Q 22.3125 44.4375 30.421875 42.921875 
L 36.375 41.703125 
Q 47.40625 39.59375 52.65625 34.296875 
Q 57.90625 29 57.90625 20.125 
Q 57.90625 9.515625 50.796875 4.046875 
Q 43.703125 -1.421875 29.984375 -1.421875 
Q 24.8125 -1.421875 18.96875 -0.25 
Q 13.140625 0.921875 6.890625 3.21875 
L 6.890625 13.375 
Q 12.890625 10.015625 18.65625 8.296875 
Q 24.421875 6.59375 29.984375 6.59375 
Q 38.421875 6.59375 43.015625 9.90625 
Q 47.609375 13.234375 47.609375 19.390625 
Q 47.609375 24.75 44.3125 27.78125 
Q 41.015625 30.8125 33.5 32.328125 
L 27.484375 33.5 
Q 16.453125 35.6875 11.515625 40.375 
Q 6.59375 45.0625 6.59375 53.421875 
Q 6.59375 63.09375 13.40625 68.65625 
Q 20.21875 74.21875 32.171875 74.21875 
Q 37.3125 74.21875 42.625 73.28125 
Q 47.953125 72.359375 53.515625 70.515625 
z
" id="DejaVuSans-83"/>
       <path d="M 18.109375 8.203125 
L 18.109375 -20.796875 
L 9.078125 -20.796875 
L 9.078125 54.6875 
L 18.109375 54.6875 
L 18.109375 46.390625 
Q 20.953125 51.265625 25.265625 53.625 
Q 29.59375 56 35.59375 56 
Q 45.5625 56 51.78125 48.09375 
Q 58.015625 40.1875 58.015625 27.296875 
Q 58.015625 14.40625 51.78125 6.484375 
Q 45.5625 -1.421875 35.59375 -1.421875 
Q 29.59375 -1.421875 25.265625 0.953125 
Q 20.953125 3.328125 18.109375 8.203125 
z
M 48.6875 27.296875 
Q 48.6875 37.203125 44.609375 42.84375 
Q 40.53125 48.484375 33.40625 48.484375 
Q 26.265625 48.484375 22.1875 42.84375 
Q 18.109375 37.203125 18.109375 27.296875 
Q 18.109375 17.390625 22.1875 11.75 
Q 26.265625 6.109375 33.40625 6.109375 
Q 40.53125 6.109375 44.609375 11.75 
Q 48.6875 17.390625 48.6875 27.296875 
z
" id="DejaVuSans-112"/>
      </defs>
      <g transform="translate(196.550904 483.31875)rotate(-90)scale(0.12 -0.12)">
       <use xlink:href="#DejaVuSans-83"/>
       <use x="63.476562" xlink:href="#DejaVuSans-112"/>
       <use x="126.953125" xlink:href="#DejaVuSans-97"/>
       <use x="188.232422" xlink:href="#DejaVuSans-105"/>
       <use x="216.015625" xlink:href="#DejaVuSans-110"/>
      </g>
     </g>
    </g>
    <g id="xtick_5">
     <g id="line2d_5">
      <g>
       <use style="stroke:#000000;stroke-width:0.8;" x="219.828189" xlink:href="#md2bd9a5955" y="442.79"/>
      </g>
     </g>
     <g id="text_5">
      <!-- Netherlands -->
      <defs>
       <path d="M 9.8125 72.90625 
L 23.09375 72.90625 
L 55.421875 11.921875 
L 55.421875 72.90625 
L 64.984375 72.90625 
L 64.984375 0 
L 51.703125 0 
L 19.390625 60.984375 
L 19.390625 0 
L 9.8125 0 
z
" id="DejaVuSans-78"/>
       <path d="M 54.890625 33.015625 
L 54.890625 0 
L 45.90625 0 
L 45.90625 32.71875 
Q 45.90625 40.484375 42.875 44.328125 
Q 39.84375 48.1875 33.796875 48.1875 
Q 26.515625 48.1875 22.3125 43.546875 
Q 18.109375 38.921875 18.109375 30.90625 
L 18.109375 0 
L 9.078125 0 
L 9.078125 75.984375 
L 18.109375 75.984375 
L 18.109375 46.1875 
Q 21.34375 51.125 25.703125 53.5625 
Q 30.078125 56 35.796875 56 
Q 45.21875 56 50.046875 50.171875 
Q 54.890625 44.34375 54.890625 33.015625 
z
" id="DejaVuSans-104"/>
       <path d="M 9.421875 75.984375 
L 18.40625 75.984375 
L 18.40625 0 
L 9.421875 0 
z
" id="DejaVuSans-108"/>
       <path d="M 44.28125 53.078125 
L 44.28125 44.578125 
Q 40.484375 46.53125 36.375 47.5 
Q 32.28125 48.484375 27.875 48.484375 
Q 21.1875 48.484375 17.84375 46.4375 
Q 14.5 44.390625 14.5 40.28125 
Q 14.5 37.15625 16.890625 35.375 
Q 19.28125 33.59375 26.515625 31.984375 
L 29.59375 31.296875 
Q 39.15625 29.25 43.1875 25.515625 
Q 47.21875 21.78125 47.21875 15.09375 
Q 47.21875 7.46875 41.1875 3.015625 
Q 35.15625 -1.421875 24.609375 -1.421875 
Q 20.21875 -1.421875 15.453125 -0.5625 
Q 10.6875 0.296875 5.421875 2 
L 5.421875 11.28125 
Q 10.40625 8.6875 15.234375 7.390625 
Q 20.0625 6.109375 24.8125 6.109375 
Q 31.15625 6.109375 34.5625 8.28125 
Q 37.984375 10.453125 37.984375 14.40625 
Q 37.984375 18.0625 35.515625 20.015625 
Q 33.0625 21.96875 24.703125 23.78125 
L 21.578125 24.515625 
Q 13.234375 26.265625 9.515625 29.90625 
Q 5.8125 33.546875 5.8125 39.890625 
Q 5.8125 47.609375 11.28125 51.796875 
Q 16.75 56 26.8125 56 
Q 31.78125 56 36.171875 55.265625 
Q 40.578125 54.546875 44.28125 53.078125 
z
" id="DejaVuSans-115"/>
      </defs>
      <g transform="translate(223.139439 522.939375)rotate(-90)scale(0.12 -0.12)">
       <use xlink:href="#DejaVuSans-78"/>
       <use x="74.804688" xlink:href="#DejaVuSans-101"/>
       <use x="136.328125" xlink:href="#DejaVuSans-116"/>
       <use x="175.537109" xlink:href="#DejaVuSans-104"/>
       <use x="238.916016" xlink:href="#DejaVuSans-101"/>
       <use x="300.439453" xlink:href="#DejaVuSans-114"/>
       <use x="341.552734" xlink:href="#DejaVuSans-108"/>
       <use x="369.335938" xlink:href="#DejaVuSans-97"/>
       <use x="430.615234" xlink:href="#DejaVuSans-110"/>
       <use x="493.994141" xlink:href="#DejaVuSans-100"/>
       <use x="557.470703" xlink:href="#DejaVuSans-115"/>
      </g>
     </g>
    </g>
    <g id="xtick_6">
     <g id="line2d_6">
      <g>
       <use style="stroke:#000000;stroke-width:0.8;" x="246.416723" xlink:href="#md2bd9a5955" y="442.79"/>
      </g>
     </g>
     <g id="text_6">
      <!-- Denmark -->
      <defs>
       <path d="M 19.671875 64.796875 
L 19.671875 8.109375 
L 31.59375 8.109375 
Q 46.6875 8.109375 53.6875 14.9375 
Q 60.6875 21.78125 60.6875 36.53125 
Q 60.6875 51.171875 53.6875 57.984375 
Q 46.6875 64.796875 31.59375 64.796875 
z
M 9.8125 72.90625 
L 30.078125 72.90625 
Q 51.265625 72.90625 61.171875 64.09375 
Q 71.09375 55.28125 71.09375 36.53125 
Q 71.09375 17.671875 61.125 8.828125 
Q 51.171875 0 30.078125 0 
L 9.8125 0 
z
" id="DejaVuSans-68"/>
       <path d="M 9.078125 75.984375 
L 18.109375 75.984375 
L 18.109375 31.109375 
L 44.921875 54.6875 
L 56.390625 54.6875 
L 27.390625 29.109375 
L 57.625 0 
L 45.90625 0 
L 18.109375 26.703125 
L 18.109375 0 
L 9.078125 0 
z
" id="DejaVuSans-107"/>
      </defs>
      <g transform="translate(249.727973 504.943125)rotate(-90)scale(0.12 -0.12)">
       <use xlink:href="#DejaVuSans-68"/>
       <use x="77.001953" xlink:href="#DejaVuSans-101"/>
       <use x="138.525391" xlink:href="#DejaVuSans-110"/>
       <use x="201.904297" xlink:href="#DejaVuSans-109"/>
       <use x="299.316406" xlink:href="#DejaVuSans-97"/>
       <use x="360.595703" xlink:href="#DejaVuSans-114"/>
       <use x="401.708984" xlink:href="#DejaVuSans-107"/>
      </g>
     </g>
    </g>
    <g id="xtick_7">
     <g id="line2d_7">
      <g>
       <use style="stroke:#000000;stroke-width:0.8;" x="273.005258" xlink:href="#md2bd9a5955" y="442.79"/>
      </g>
     </g>
     <g id="text_7">
      <!-- Ireland -->
      <defs>
       <path d="M 9.8125 72.90625 
L 19.671875 72.90625 
L 19.671875 0 
L 9.8125 0 
z
" id="DejaVuSans-73"/>
      </defs>
      <g transform="translate(276.316508 491.55375)rotate(-90)scale(0.12 -0.12)">
       <use xlink:href="#DejaVuSans-73"/>
       <use x="29.492188" xlink:href="#DejaVuSans-114"/>
       <use x="70.574219" xlink:href="#DejaVuSans-101"/>
       <use x="132.097656" xlink:href="#DejaVuSans-108"/>
       <use x="159.880859" xlink:href="#DejaVuSans-97"/>
       <use x="221.160156" xlink:href="#DejaVuSans-110"/>
       <use x="284.539062" xlink:href="#DejaVuSans-100"/>
      </g>
     </g>
    </g>
    <g id="xtick_8">
     <g id="line2d_8">
      <g>
       <use style="stroke:#000000;stroke-width:0.8;" x="299.593792" xlink:href="#md2bd9a5955" y="442.79"/>
      </g>
     </g>
     <g id="text_8">
      <!-- Sweden -->
      <defs>
       <path d="M 4.203125 54.6875 
L 13.1875 54.6875 
L 24.421875 12.015625 
L 35.59375 54.6875 
L 46.1875 54.6875 
L 57.421875 12.015625 
L 68.609375 54.6875 
L 77.59375 54.6875 
L 63.28125 0 
L 52.6875 0 
L 40.921875 44.828125 
L 29.109375 0 
L 18.5 0 
z
" id="DejaVuSans-119"/>
      </defs>
      <g transform="translate(302.905042 497.2125)rotate(-90)scale(0.12 -0.12)">
       <use xlink:href="#DejaVuSans-83"/>
       <use x="63.476562" xlink:href="#DejaVuSans-119"/>
       <use x="145.263672" xlink:href="#DejaVuSans-101"/>
       <use x="206.787109" xlink:href="#DejaVuSans-100"/>
       <use x="270.263672" xlink:href="#DejaVuSans-101"/>
       <use x="331.787109" xlink:href="#DejaVuSans-110"/>
      </g>
     </g>
    </g>
    <g id="xtick_9">
     <g id="line2d_9">
      <g>
       <use style="stroke:#000000;stroke-width:0.8;" x="326.182327" xlink:href="#md2bd9a5955" y="442.79"/>
      </g>
     </g>
     <g id="text_9">
      <!-- Austria -->
      <defs>
       <path d="M 34.1875 63.1875 
L 20.796875 26.90625 
L 47.609375 26.90625 
z
M 28.609375 72.90625 
L 39.796875 72.90625 
L 67.578125 0 
L 57.328125 0 
L 50.6875 18.703125 
L 17.828125 18.703125 
L 11.1875 0 
L 0.78125 0 
z
" id="DejaVuSans-65"/>
       <path d="M 8.5 21.578125 
L 8.5 54.6875 
L 17.484375 54.6875 
L 17.484375 21.921875 
Q 17.484375 14.15625 20.5 10.265625 
Q 23.53125 6.390625 29.59375 6.390625 
Q 36.859375 6.390625 41.078125 11.03125 
Q 45.3125 15.671875 45.3125 23.6875 
L 45.3125 54.6875 
L 54.296875 54.6875 
L 54.296875 0 
L 45.3125 0 
L 45.3125 8.40625 
Q 42.046875 3.421875 37.71875 1 
Q 33.40625 -1.421875 27.6875 -1.421875 
Q 18.265625 -1.421875 13.375 4.4375 
Q 8.5 10.296875 8.5 21.578125 
z
M 31.109375 56 
z
" id="DejaVuSans-117"/>
      </defs>
      <g transform="translate(329.493577 492.18)rotate(-90)scale(0.12 -0.12)">
       <use xlink:href="#DejaVuSans-65"/>
       <use x="68.408203" xlink:href="#DejaVuSans-117"/>
       <use x="131.787109" xlink:href="#DejaVuSans-115"/>
       <use x="183.886719" xlink:href="#DejaVuSans-116"/>
       <use x="223.095703" xlink:href="#DejaVuSans-114"/>
       <use x="264.208984" xlink:href="#DejaVuSans-105"/>
       <use x="291.992188" xlink:href="#DejaVuSans-97"/>
      </g>
     </g>
    </g>
    <g id="xtick_10">
     <g id="line2d_10">
      <g>
       <use style="stroke:#000000;stroke-width:0.8;" x="352.770862" xlink:href="#md2bd9a5955" y="442.79"/>
      </g>
     </g>
     <g id="text_10">
      <!-- Portugal -->
      <defs>
       <path d="M 19.671875 64.796875 
L 19.671875 37.40625 
L 32.078125 37.40625 
Q 38.96875 37.40625 42.71875 40.96875 
Q 46.484375 44.53125 46.484375 51.125 
Q 46.484375 57.671875 42.71875 61.234375 
Q 38.96875 64.796875 32.078125 64.796875 
z
M 9.8125 72.90625 
L 32.078125 72.90625 
Q 44.34375 72.90625 50.609375 67.359375 
Q 56.890625 61.8125 56.890625 51.125 
Q 56.890625 40.328125 50.609375 34.8125 
Q 44.34375 29.296875 32.078125 29.296875 
L 19.671875 29.296875 
L 19.671875 0 
L 9.8125 0 
z
" id="DejaVuSans-80"/>
      </defs>
      <g transform="translate(356.082112 499.910625)rotate(-90)scale(0.12 -0.12)">
       <use xlink:href="#DejaVuSans-80"/>
       <use x="60.255859" xlink:href="#DejaVuSans-111"/>
       <use x="121.4375" xlink:href="#DejaVuSans-114"/>
       <use x="162.550781" xlink:href="#DejaVuSans-116"/>
       <use x="201.759766" xlink:href="#DejaVuSans-117"/>
       <use x="265.138672" xlink:href="#DejaVuSans-103"/>
       <use x="328.615234" xlink:href="#DejaVuSans-97"/>
       <use x="389.894531" xlink:href="#DejaVuSans-108"/>
      </g>
     </g>
    </g>
    <g id="xtick_11">
     <g id="line2d_11">
      <g>
       <use style="stroke:#000000;stroke-width:0.8;" x="379.359396" xlink:href="#md2bd9a5955" y="442.79"/>
      </g>
     </g>
     <g id="text_11">
      <!-- Italy -->
      <g transform="translate(382.670646 475.824375)rotate(-90)scale(0.12 -0.12)">
       <use xlink:href="#DejaVuSans-73"/>
       <use x="29.492188" xlink:href="#DejaVuSans-116"/>
       <use x="68.701172" xlink:href="#DejaVuSans-97"/>
       <use x="129.980469" xlink:href="#DejaVuSans-108"/>
       <use x="157.763672" xlink:href="#DejaVuSans-121"/>
      </g>
     </g>
    </g>
    <g id="xtick_12">
     <g id="line2d_12">
      <g>
       <use style="stroke:#000000;stroke-width:0.8;" x="405.947931" xlink:href="#md2bd9a5955" y="442.79"/>
      </g>
     </g>
     <g id="text_12">
      <!-- Belgium -->
      <defs>
       <path d="M 19.671875 34.8125 
L 19.671875 8.109375 
L 35.5 8.109375 
Q 43.453125 8.109375 47.28125 11.40625 
Q 51.125 14.703125 51.125 21.484375 
Q 51.125 28.328125 47.28125 31.5625 
Q 43.453125 34.8125 35.5 34.8125 
z
M 19.671875 64.796875 
L 19.671875 42.828125 
L 34.28125 42.828125 
Q 41.5 42.828125 45.03125 45.53125 
Q 48.578125 48.25 48.578125 53.8125 
Q 48.578125 59.328125 45.03125 62.0625 
Q 41.5 64.796875 34.28125 64.796875 
z
M 9.8125 72.90625 
L 35.015625 72.90625 
Q 46.296875 72.90625 52.390625 68.21875 
Q 58.5 63.53125 58.5 54.890625 
Q 58.5 48.1875 55.375 44.234375 
Q 52.25 40.28125 46.1875 39.3125 
Q 53.46875 37.75 57.5 32.78125 
Q 61.53125 27.828125 61.53125 20.40625 
Q 61.53125 10.640625 54.890625 5.3125 
Q 48.25 0 35.984375 0 
L 9.8125 0 
z
" id="DejaVuSans-66"/>
      </defs>
      <g transform="translate(409.259181 498.98625)rotate(-90)scale(0.12 -0.12)">
       <use xlink:href="#DejaVuSans-66"/>
       <use x="68.603516" xlink:href="#DejaVuSans-101"/>
       <use x="130.126953" xlink:href="#DejaVuSans-108"/>
       <use x="157.910156" xlink:href="#DejaVuSans-103"/>
       <use x="221.386719" xlink:href="#DejaVuSans-105"/>
       <use x="249.169922" xlink:href="#DejaVuSans-117"/>
       <use x="312.548828" xlink:href="#DejaVuSans-109"/>
      </g>
     </g>
    </g>
    <g id="xtick_13">
     <g id="line2d_13">
      <g>
       <use style="stroke:#000000;stroke-width:0.8;" x="432.536465" xlink:href="#md2bd9a5955" y="442.79"/>
      </g>
     </g>
     <g id="text_13">
      <!-- Finland -->
      <g transform="translate(435.847715 493.528125)rotate(-90)scale(0.12 -0.12)">
       <use xlink:href="#DejaVuSans-70"/>
       <use x="57.410156" xlink:href="#DejaVuSans-105"/>
       <use x="85.193359" xlink:href="#DejaVuSans-110"/>
       <use x="148.572266" xlink:href="#DejaVuSans-108"/>
       <use x="176.355469" xlink:href="#DejaVuSans-97"/>
       <use x="237.634766" xlink:href="#DejaVuSans-110"/>
       <use x="301.013672" xlink:href="#DejaVuSans-100"/>
      </g>
     </g>
    </g>
    <g id="xtick_14">
     <g id="line2d_14">
      <g>
       <use style="stroke:#000000;stroke-width:0.8;" x="459.125" xlink:href="#md2bd9a5955" y="442.79"/>
      </g>
     </g>
     <g id="text_14">
      <!-- Luxembourg -->
      <defs>
       <path d="M 9.8125 72.90625 
L 19.671875 72.90625 
L 19.671875 8.296875 
L 55.171875 8.296875 
L 55.171875 0 
L 9.8125 0 
z
" id="DejaVuSans-76"/>
       <path d="M 54.890625 54.6875 
L 35.109375 28.078125 
L 55.90625 0 
L 45.3125 0 
L 29.390625 21.484375 
L 13.484375 0 
L 2.875 0 
L 24.125 28.609375 
L 4.6875 54.6875 
L 15.28125 54.6875 
L 29.78125 35.203125 
L 44.28125 54.6875 
z
" id="DejaVuSans-120"/>
       <path d="M 48.6875 27.296875 
Q 48.6875 37.203125 44.609375 42.84375 
Q 40.53125 48.484375 33.40625 48.484375 
Q 26.265625 48.484375 22.1875 42.84375 
Q 18.109375 37.203125 18.109375 27.296875 
Q 18.109375 17.390625 22.1875 11.75 
Q 26.265625 6.109375 33.40625 6.109375 
Q 40.53125 6.109375 44.609375 11.75 
Q 48.6875 17.390625 48.6875 27.296875 
z
M 18.109375 46.390625 
Q 20.953125 51.265625 25.265625 53.625 
Q 29.59375 56 35.59375 56 
Q 45.5625 56 51.78125 48.09375 
Q 58.015625 40.1875 58.015625 27.296875 
Q 58.015625 14.40625 51.78125 6.484375 
Q 45.5625 -1.421875 35.59375 -1.421875 
Q 29.59375 -1.421875 25.265625 0.953125 
Q 20.953125 3.328125 18.109375 8.203125 
L 18.109375 0 
L 9.078125 0 
L 9.078125 75.984375 
L 18.109375 75.984375 
z
" id="DejaVuSans-98"/>
      </defs>
      <g transform="translate(462.43625 525.36375)rotate(-90)scale(0.12 -0.12)">
       <use xlink:href="#DejaVuSans-76"/>
       <use x="55.697266" xlink:href="#DejaVuSans-117"/>
       <use x="119.076172" xlink:href="#DejaVuSans-120"/>
       <use x="178.208984" xlink:href="#DejaVuSans-101"/>
       <use x="239.732422" xlink:href="#DejaVuSans-109"/>
       <use x="337.144531" xlink:href="#DejaVuSans-98"/>
       <use x="400.621094" xlink:href="#DejaVuSans-111"/>
       <use x="461.802734" xlink:href="#DejaVuSans-117"/>
       <use x="525.181641" xlink:href="#DejaVuSans-114"/>
       <use x="566.279297" xlink:href="#DejaVuSans-103"/>
      </g>
     </g>
    </g>
    <g id="xtick_15">
     <g id="line2d_15">
      <g>
       <use style="stroke:#000000;stroke-width:0.8;" x="485.713535" xlink:href="#md2bd9a5955" y="442.79"/>
      </g>
     </g>
     <g id="text_15">
      <!-- Poland -->
      <g transform="translate(489.024785 490.273125)rotate(-90)scale(0.12 -0.12)">
       <use xlink:href="#DejaVuSans-80"/>
       <use x="60.255859" xlink:href="#DejaVuSans-111"/>
       <use x="121.4375" xlink:href="#DejaVuSans-108"/>
       <use x="149.220703" xlink:href="#DejaVuSans-97"/>
       <use x="210.5" xlink:href="#DejaVuSans-110"/>
       <use x="273.878906" xlink:href="#DejaVuSans-100"/>
      </g>
     </g>
    </g>
    <g id="xtick_16">
     <g id="line2d_16">
      <g>
       <use style="stroke:#000000;stroke-width:0.8;" x="512.302069" xlink:href="#md2bd9a5955" y="442.79"/>
      </g>
     </g>
     <g id="text_16">
      <!-- Estonia -->
      <defs>
       <path d="M 9.8125 72.90625 
L 55.90625 72.90625 
L 55.90625 64.59375 
L 19.671875 64.59375 
L 19.671875 43.015625 
L 54.390625 43.015625 
L 54.390625 34.71875 
L 19.671875 34.71875 
L 19.671875 8.296875 
L 56.78125 8.296875 
L 56.78125 0 
L 9.8125 0 
z
" id="DejaVuSans-69"/>
      </defs>
      <g transform="translate(515.613319 493.963125)rotate(-90)scale(0.12 -0.12)">
       <use xlink:href="#DejaVuSans-69"/>
       <use x="63.183594" xlink:href="#DejaVuSans-115"/>
       <use x="115.283203" xlink:href="#DejaVuSans-116"/>
       <use x="154.492188" xlink:href="#DejaVuSans-111"/>
       <use x="215.673828" xlink:href="#DejaVuSans-110"/>
       <use x="279.052734" xlink:href="#DejaVuSans-105"/>
       <use x="306.835938" xlink:href="#DejaVuSans-97"/>
      </g>
     </g>
    </g>
    <g id="xtick_17">
     <g id="line2d_17">
      <g>
       <use style="stroke:#000000;stroke-width:0.8;" x="538.890604" xlink:href="#md2bd9a5955" y="442.79"/>
      </g>
     </g>
     <g id="text_17">
      <!-- Croatia -->
      <defs>
       <path d="M 64.40625 67.28125 
L 64.40625 56.890625 
Q 59.421875 61.53125 53.78125 63.8125 
Q 48.140625 66.109375 41.796875 66.109375 
Q 29.296875 66.109375 22.65625 58.46875 
Q 16.015625 50.828125 16.015625 36.375 
Q 16.015625 21.96875 22.65625 14.328125 
Q 29.296875 6.6875 41.796875 6.6875 
Q 48.140625 6.6875 53.78125 8.984375 
Q 59.421875 11.28125 64.40625 15.921875 
L 64.40625 5.609375 
Q 59.234375 2.09375 53.4375 0.328125 
Q 47.65625 -1.421875 41.21875 -1.421875 
Q 24.65625 -1.421875 15.125 8.703125 
Q 5.609375 18.84375 5.609375 36.375 
Q 5.609375 53.953125 15.125 64.078125 
Q 24.65625 74.21875 41.21875 74.21875 
Q 47.75 74.21875 53.53125 72.484375 
Q 59.328125 70.75 64.40625 67.28125 
z
" id="DejaVuSans-67"/>
      </defs>
      <g transform="translate(542.201854 493.186875)rotate(-90)scale(0.12 -0.12)">
       <use xlink:href="#DejaVuSans-67"/>
       <use x="69.824219" xlink:href="#DejaVuSans-114"/>
       <use x="110.90625" xlink:href="#DejaVuSans-111"/>
       <use x="172.087891" xlink:href="#DejaVuSans-97"/>
       <use x="233.367188" xlink:href="#DejaVuSans-116"/>
       <use x="272.576172" xlink:href="#DejaVuSans-105"/>
       <use x="300.359375" xlink:href="#DejaVuSans-97"/>
      </g>
     </g>
    </g>
    <g id="xtick_18">
     <g id="line2d_18">
      <g>
       <use style="stroke:#000000;stroke-width:0.8;" x="565.479138" xlink:href="#md2bd9a5955" y="442.79"/>
      </g>
     </g>
     <g id="text_18">
      <!-- Bulgaria -->
      <g transform="translate(568.790388 499.554375)rotate(-90)scale(0.12 -0.12)">
       <use xlink:href="#DejaVuSans-66"/>
       <use x="68.603516" xlink:href="#DejaVuSans-117"/>
       <use x="131.982422" xlink:href="#DejaVuSans-108"/>
       <use x="159.765625" xlink:href="#DejaVuSans-103"/>
       <use x="223.242188" xlink:href="#DejaVuSans-97"/>
       <use x="284.521484" xlink:href="#DejaVuSans-114"/>
       <use x="325.634766" xlink:href="#DejaVuSans-105"/>
       <use x="353.417969" xlink:href="#DejaVuSans-97"/>
      </g>
     </g>
    </g>
    <g id="xtick_19">
     <g id="line2d_19">
      <g>
       <use style="stroke:#000000;stroke-width:0.8;" x="592.067673" xlink:href="#md2bd9a5955" y="442.79"/>
      </g>
     </g>
     <g id="text_19">
      <!-- Romania -->
      <defs>
       <path d="M 44.390625 34.1875 
Q 47.5625 33.109375 50.5625 29.59375 
Q 53.5625 26.078125 56.59375 19.921875 
L 66.609375 0 
L 56 0 
L 46.6875 18.703125 
Q 43.0625 26.03125 39.671875 28.421875 
Q 36.28125 30.8125 30.421875 30.8125 
L 19.671875 30.8125 
L 19.671875 0 
L 9.8125 0 
L 9.8125 72.90625 
L 32.078125 72.90625 
Q 44.578125 72.90625 50.734375 67.671875 
Q 56.890625 62.453125 56.890625 51.90625 
Q 56.890625 45.015625 53.6875 40.46875 
Q 50.484375 35.9375 44.390625 34.1875 
z
M 19.671875 64.796875 
L 19.671875 38.921875 
L 32.078125 38.921875 
Q 39.203125 38.921875 42.84375 42.21875 
Q 46.484375 45.515625 46.484375 51.90625 
Q 46.484375 58.296875 42.84375 61.546875 
Q 39.203125 64.796875 32.078125 64.796875 
z
" id="DejaVuSans-82"/>
      </defs>
      <g transform="translate(595.378923 502.798125)rotate(-90)scale(0.12 -0.12)">
       <use xlink:href="#DejaVuSans-82"/>
       <use x="69.419922" xlink:href="#DejaVuSans-111"/>
       <use x="130.601562" xlink:href="#DejaVuSans-109"/>
       <use x="228.013672" xlink:href="#DejaVuSans-97"/>
       <use x="289.292969" xlink:href="#DejaVuSans-110"/>
       <use x="352.671875" xlink:href="#DejaVuSans-105"/>
       <use x="380.455078" xlink:href="#DejaVuSans-97"/>
      </g>
     </g>
    </g>
    <g id="xtick_20">
     <g id="line2d_20">
      <g>
       <use style="stroke:#000000;stroke-width:0.8;" x="618.656208" xlink:href="#md2bd9a5955" y="442.79"/>
      </g>
     </g>
     <g id="text_20">
      <!-- Greece -->
      <g transform="translate(621.967458 492.766875)rotate(-90)scale(0.12 -0.12)">
       <use xlink:href="#DejaVuSans-71"/>
       <use x="77.490234" xlink:href="#DejaVuSans-114"/>
       <use x="118.572266" xlink:href="#DejaVuSans-101"/>
       <use x="180.095703" xlink:href="#DejaVuSans-101"/>
       <use x="241.619141" xlink:href="#DejaVuSans-99"/>
       <use x="296.599609" xlink:href="#DejaVuSans-101"/>
      </g>
     </g>
    </g>
    <g id="xtick_21">
     <g id="line2d_21">
      <g>
       <use style="stroke:#000000;stroke-width:0.8;" x="645.244742" xlink:href="#md2bd9a5955" y="442.79"/>
      </g>
     </g>
     <g id="text_21">
      <!-- Hungary -->
      <defs>
       <path d="M 9.8125 72.90625 
L 19.671875 72.90625 
L 19.671875 43.015625 
L 55.515625 43.015625 
L 55.515625 72.90625 
L 65.375 72.90625 
L 65.375 0 
L 55.515625 0 
L 55.515625 34.71875 
L 19.671875 34.71875 
L 19.671875 0 
L 9.8125 0 
z
" id="DejaVuSans-72"/>
      </defs>
      <g transform="translate(648.555992 501.031875)rotate(-90)scale(0.12 -0.12)">
       <use xlink:href="#DejaVuSans-72"/>
       <use x="75.195312" xlink:href="#DejaVuSans-117"/>
       <use x="138.574219" xlink:href="#DejaVuSans-110"/>
       <use x="201.953125" xlink:href="#DejaVuSans-103"/>
       <use x="265.429688" xlink:href="#DejaVuSans-97"/>
       <use x="326.708984" xlink:href="#DejaVuSans-114"/>
       <use x="367.822266" xlink:href="#DejaVuSans-121"/>
      </g>
     </g>
    </g>
    <g id="xtick_22">
     <g id="line2d_22">
      <g>
       <use style="stroke:#000000;stroke-width:0.8;" x="671.833277" xlink:href="#md2bd9a5955" y="442.79"/>
      </g>
     </g>
     <g id="text_22">
      <!-- Lithuania -->
      <g transform="translate(675.144527 505.370625)rotate(-90)scale(0.12 -0.12)">
       <use xlink:href="#DejaVuSans-76"/>
       <use x="55.712891" xlink:href="#DejaVuSans-105"/>
       <use x="83.496094" xlink:href="#DejaVuSans-116"/>
       <use x="122.705078" xlink:href="#DejaVuSans-104"/>
       <use x="186.083984" xlink:href="#DejaVuSans-117"/>
       <use x="249.462891" xlink:href="#DejaVuSans-97"/>
       <use x="310.742188" xlink:href="#DejaVuSans-110"/>
       <use x="374.121094" xlink:href="#DejaVuSans-105"/>
       <use x="401.904297" xlink:href="#DejaVuSans-97"/>
      </g>
     </g>
    </g>
    <g id="xtick_23">
     <g id="line2d_23">
      <g>
       <use style="stroke:#000000;stroke-width:0.8;" x="698.421811" xlink:href="#md2bd9a5955" y="442.79"/>
      </g>
     </g>
     <g id="text_23">
      <!-- Malta -->
      <defs>
       <path d="M 9.8125 72.90625 
L 24.515625 72.90625 
L 43.109375 23.296875 
L 61.8125 72.90625 
L 76.515625 72.90625 
L 76.515625 0 
L 66.890625 0 
L 66.890625 64.015625 
L 48.09375 14.015625 
L 38.1875 14.015625 
L 19.390625 64.015625 
L 19.390625 0 
L 9.8125 0 
z
" id="DejaVuSans-77"/>
      </defs>
      <g transform="translate(701.733061 482.889375)rotate(-90)scale(0.12 -0.12)">
       <use xlink:href="#DejaVuSans-77"/>
       <use x="86.279297" xlink:href="#DejaVuSans-97"/>
       <use x="147.558594" xlink:href="#DejaVuSans-108"/>
       <use x="175.341797" xlink:href="#DejaVuSans-116"/>
       <use x="214.550781" xlink:href="#DejaVuSans-97"/>
      </g>
     </g>
    </g>
    <g id="xtick_24">
     <g id="line2d_24">
      <g>
       <use style="stroke:#000000;stroke-width:0.8;" x="725.010346" xlink:href="#md2bd9a5955" y="442.79"/>
      </g>
     </g>
     <g id="text_24">
      <!-- Slovenia -->
      <defs>
       <path d="M 2.984375 54.6875 
L 12.5 54.6875 
L 29.59375 8.796875 
L 46.6875 54.6875 
L 56.203125 54.6875 
L 35.6875 0 
L 23.484375 0 
z
" id="DejaVuSans-118"/>
      </defs>
      <g transform="translate(728.321596 500.863125)rotate(-90)scale(0.12 -0.12)">
       <use xlink:href="#DejaVuSans-83"/>
       <use x="63.476562" xlink:href="#DejaVuSans-108"/>
       <use x="91.259766" xlink:href="#DejaVuSans-111"/>
       <use x="152.441406" xlink:href="#DejaVuSans-118"/>
       <use x="211.621094" xlink:href="#DejaVuSans-101"/>
       <use x="273.144531" xlink:href="#DejaVuSans-110"/>
       <use x="336.523438" xlink:href="#DejaVuSans-105"/>
       <use x="364.306641" xlink:href="#DejaVuSans-97"/>
      </g>
     </g>
    </g>
    <g id="xtick_25">
     <g id="line2d_25">
      <g>
       <use style="stroke:#000000;stroke-width:0.8;" x="751.598881" xlink:href="#md2bd9a5955" y="442.79"/>
      </g>
     </g>
     <g id="text_25">
      <!-- Cyprus -->
      <g transform="translate(754.910131 491.679375)rotate(-90)scale(0.12 -0.12)">
       <use xlink:href="#DejaVuSans-67"/>
       <use x="69.824219" xlink:href="#DejaVuSans-121"/>
       <use x="129.003906" xlink:href="#DejaVuSans-112"/>
       <use x="192.480469" xlink:href="#DejaVuSans-114"/>
       <use x="233.59375" xlink:href="#DejaVuSans-117"/>
       <use x="296.972656" xlink:href="#DejaVuSans-115"/>
      </g>
     </g>
    </g>
    <g id="xtick_26">
     <g id="line2d_26">
      <g>
       <use style="stroke:#000000;stroke-width:0.8;" x="778.187415" xlink:href="#md2bd9a5955" y="442.79"/>
      </g>
     </g>
     <g id="text_26">
      <!-- Slovakia -->
      <g transform="translate(781.498665 500.176875)rotate(-90)scale(0.12 -0.12)">
       <use xlink:href="#DejaVuSans-83"/>
       <use x="63.476562" xlink:href="#DejaVuSans-108"/>
       <use x="91.259766" xlink:href="#DejaVuSans-111"/>
       <use x="152.441406" xlink:href="#DejaVuSans-118"/>
       <use x="211.621094" xlink:href="#DejaVuSans-97"/>
       <use x="272.900391" xlink:href="#DejaVuSans-107"/>
       <use x="330.810547" xlink:href="#DejaVuSans-105"/>
       <use x="358.59375" xlink:href="#DejaVuSans-97"/>
      </g>
     </g>
    </g>
    <g id="xtick_27">
     <g id="line2d_27">
      <g>
       <use style="stroke:#000000;stroke-width:0.8;" x="804.77595" xlink:href="#md2bd9a5955" y="442.79"/>
      </g>
     </g>
     <g id="text_27">
      <!-- Latvia -->
      <g transform="translate(808.0872 486.324375)rotate(-90)scale(0.12 -0.12)">
       <use xlink:href="#DejaVuSans-76"/>
       <use x="55.712891" xlink:href="#DejaVuSans-97"/>
       <use x="116.992188" xlink:href="#DejaVuSans-116"/>
       <use x="156.201172" xlink:href="#DejaVuSans-118"/>
       <use x="215.380859" xlink:href="#DejaVuSans-105"/>
       <use x="243.164062" xlink:href="#DejaVuSans-97"/>
      </g>
     </g>
    </g>
    <g id="text_28">
     <!-- Country -->
     <g transform="translate(435.289062 559.225)scale(0.12 -0.12)">
      <use xlink:href="#DejaVuSans-67"/>
      <use x="69.824219" xlink:href="#DejaVuSans-111"/>
      <use x="131.005859" xlink:href="#DejaVuSans-117"/>
      <use x="194.384766" xlink:href="#DejaVuSans-110"/>
      <use x="257.763672" xlink:href="#DejaVuSans-116"/>
      <use x="296.972656" xlink:href="#DejaVuSans-114"/>
      <use x="338.085938" xlink:href="#DejaVuSans-121"/>
     </g>
    </g>
   </g>
   <g id="matplotlib.axis_2">
    <g id="ytick_1">
     <g id="line2d_28">
      <defs>
       <path d="M 0 0 
L -3.5 0 
" id="me2c0ff160d" style="stroke:#000000;stroke-width:0.8;"/>
      </defs>
      <g>
       <use style="stroke:#000000;stroke-width:0.8;" x="67.21" xlink:href="#me2c0ff160d" y="442.79"/>
      </g>
     </g>
     <g id="text_29">
      <!-- 0 -->
      <defs>
       <path d="M 31.78125 66.40625 
Q 24.171875 66.40625 20.328125 58.90625 
Q 16.5 51.421875 16.5 36.375 
Q 16.5 21.390625 20.328125 13.890625 
Q 24.171875 6.390625 31.78125 6.390625 
Q 39.453125 6.390625 43.28125 13.890625 
Q 47.125 21.390625 47.125 36.375 
Q 47.125 51.421875 43.28125 58.90625 
Q 39.453125 66.40625 31.78125 66.40625 
z
M 31.78125 74.21875 
Q 44.046875 74.21875 50.515625 64.515625 
Q 56.984375 54.828125 56.984375 36.375 
Q 56.984375 17.96875 50.515625 8.265625 
Q 44.046875 -1.421875 31.78125 -1.421875 
Q 19.53125 -1.421875 13.0625 8.265625 
Q 6.59375 17.96875 6.59375 36.375 
Q 6.59375 54.828125 13.0625 64.515625 
Q 19.53125 74.21875 31.78125 74.21875 
z
" id="DejaVuSans-48"/>
      </defs>
      <g transform="translate(52.575 447.349063)scale(0.12 -0.12)">
       <use xlink:href="#DejaVuSans-48"/>
      </g>
     </g>
    </g>
    <g id="ytick_2">
     <g id="line2d_29">
      <g>
       <use style="stroke:#000000;stroke-width:0.8;" x="67.21" xlink:href="#me2c0ff160d" y="392.614984"/>
      </g>
     </g>
     <g id="text_30">
      <!-- 250 -->
      <defs>
       <path d="M 19.1875 8.296875 
L 53.609375 8.296875 
L 53.609375 0 
L 7.328125 0 
L 7.328125 8.296875 
Q 12.9375 14.109375 22.625 23.890625 
Q 32.328125 33.6875 34.8125 36.53125 
Q 39.546875 41.84375 41.421875 45.53125 
Q 43.3125 49.21875 43.3125 52.78125 
Q 43.3125 58.59375 39.234375 62.25 
Q 35.15625 65.921875 28.609375 65.921875 
Q 23.96875 65.921875 18.8125 64.3125 
Q 13.671875 62.703125 7.8125 59.421875 
L 7.8125 69.390625 
Q 13.765625 71.78125 18.9375 73 
Q 24.125 74.21875 28.421875 74.21875 
Q 39.75 74.21875 46.484375 68.546875 
Q 53.21875 62.890625 53.21875 53.421875 
Q 53.21875 48.921875 51.53125 44.890625 
Q 49.859375 40.875 45.40625 35.40625 
Q 44.1875 33.984375 37.640625 27.21875 
Q 31.109375 20.453125 19.1875 8.296875 
z
" id="DejaVuSans-50"/>
       <path d="M 10.796875 72.90625 
L 49.515625 72.90625 
L 49.515625 64.59375 
L 19.828125 64.59375 
L 19.828125 46.734375 
Q 21.96875 47.46875 24.109375 47.828125 
Q 26.265625 48.1875 28.421875 48.1875 
Q 40.625 48.1875 47.75 41.5 
Q 54.890625 34.8125 54.890625 23.390625 
Q 54.890625 11.625 47.5625 5.09375 
Q 40.234375 -1.421875 26.90625 -1.421875 
Q 22.3125 -1.421875 17.546875 -0.640625 
Q 12.796875 0.140625 7.71875 1.703125 
L 7.71875 11.625 
Q 12.109375 9.234375 16.796875 8.0625 
Q 21.484375 6.890625 26.703125 6.890625 
Q 35.15625 6.890625 40.078125 11.328125 
Q 45.015625 15.765625 45.015625 23.390625 
Q 45.015625 31 40.078125 35.4375 
Q 35.15625 39.890625 26.703125 39.890625 
Q 22.75 39.890625 18.8125 39.015625 
Q 14.890625 38.140625 10.796875 36.28125 
z
" id="DejaVuSans-53"/>
      </defs>
      <g transform="translate(37.305 397.174046)scale(0.12 -0.12)">
       <use xlink:href="#DejaVuSans-50"/>
       <use x="63.623047" xlink:href="#DejaVuSans-53"/>
       <use x="127.246094" xlink:href="#DejaVuSans-48"/>
      </g>
     </g>
    </g>
    <g id="ytick_3">
     <g id="line2d_30">
      <g>
       <use style="stroke:#000000;stroke-width:0.8;" x="67.21" xlink:href="#me2c0ff160d" y="342.439967"/>
      </g>
     </g>
     <g id="text_31">
      <!-- 500 -->
      <g transform="translate(37.305 346.99903)scale(0.12 -0.12)">
       <use xlink:href="#DejaVuSans-53"/>
       <use x="63.623047" xlink:href="#DejaVuSans-48"/>
       <use x="127.246094" xlink:href="#DejaVuSans-48"/>
      </g>
     </g>
    </g>
    <g id="ytick_4">
     <g id="line2d_31">
      <g>
       <use style="stroke:#000000;stroke-width:0.8;" x="67.21" xlink:href="#me2c0ff160d" y="292.264951"/>
      </g>
     </g>
     <g id="text_32">
      <!-- 750 -->
      <defs>
       <path d="M 8.203125 72.90625 
L 55.078125 72.90625 
L 55.078125 68.703125 
L 28.609375 0 
L 18.3125 0 
L 43.21875 64.59375 
L 8.203125 64.59375 
z
" id="DejaVuSans-55"/>
      </defs>
      <g transform="translate(37.305 296.824013)scale(0.12 -0.12)">
       <use xlink:href="#DejaVuSans-55"/>
       <use x="63.623047" xlink:href="#DejaVuSans-53"/>
       <use x="127.246094" xlink:href="#DejaVuSans-48"/>
      </g>
     </g>
    </g>
    <g id="ytick_5">
     <g id="line2d_32">
      <g>
       <use style="stroke:#000000;stroke-width:0.8;" x="67.21" xlink:href="#me2c0ff160d" y="242.089934"/>
      </g>
     </g>
     <g id="text_33">
      <!-- 1000 -->
      <defs>
       <path d="M 12.40625 8.296875 
L 28.515625 8.296875 
L 28.515625 63.921875 
L 10.984375 60.40625 
L 10.984375 69.390625 
L 28.421875 72.90625 
L 38.28125 72.90625 
L 38.28125 8.296875 
L 54.390625 8.296875 
L 54.390625 0 
L 12.40625 0 
z
" id="DejaVuSans-49"/>
      </defs>
      <g transform="translate(29.67 246.648997)scale(0.12 -0.12)">
       <use xlink:href="#DejaVuSans-49"/>
       <use x="63.623047" xlink:href="#DejaVuSans-48"/>
       <use x="127.246094" xlink:href="#DejaVuSans-48"/>
       <use x="190.869141" xlink:href="#DejaVuSans-48"/>
      </g>
     </g>
    </g>
    <g id="ytick_6">
     <g id="line2d_33">
      <g>
       <use style="stroke:#000000;stroke-width:0.8;" x="67.21" xlink:href="#me2c0ff160d" y="191.914918"/>
      </g>
     </g>
     <g id="text_34">
      <!-- 1250 -->
      <g transform="translate(29.67 196.47398)scale(0.12 -0.12)">
       <use xlink:href="#DejaVuSans-49"/>
       <use x="63.623047" xlink:href="#DejaVuSans-50"/>
       <use x="127.246094" xlink:href="#DejaVuSans-53"/>
       <use x="190.869141" xlink:href="#DejaVuSans-48"/>
      </g>
     </g>
    </g>
    <g id="ytick_7">
     <g id="line2d_34">
      <g>
       <use style="stroke:#000000;stroke-width:0.8;" x="67.21" xlink:href="#me2c0ff160d" y="141.739902"/>
      </g>
     </g>
     <g id="text_35">
      <!-- 1500 -->
      <g transform="translate(29.67 146.298964)scale(0.12 -0.12)">
       <use xlink:href="#DejaVuSans-49"/>
       <use x="63.623047" xlink:href="#DejaVuSans-53"/>
       <use x="127.246094" xlink:href="#DejaVuSans-48"/>
       <use x="190.869141" xlink:href="#DejaVuSans-48"/>
      </g>
     </g>
    </g>
    <g id="ytick_8">
     <g id="line2d_35">
      <g>
       <use style="stroke:#000000;stroke-width:0.8;" x="67.21" xlink:href="#me2c0ff160d" y="91.564885"/>
      </g>
     </g>
     <g id="text_36">
      <!-- 1750 -->
      <g transform="translate(29.67 96.123948)scale(0.12 -0.12)">
       <use xlink:href="#DejaVuSans-49"/>
       <use x="63.623047" xlink:href="#DejaVuSans-55"/>
       <use x="127.246094" xlink:href="#DejaVuSans-53"/>
       <use x="190.869141" xlink:href="#DejaVuSans-48"/>
      </g>
     </g>
    </g>
    <g id="ytick_9">
     <g id="line2d_36">
      <g>
       <use style="stroke:#000000;stroke-width:0.8;" x="67.21" xlink:href="#me2c0ff160d" y="41.389869"/>
      </g>
     </g>
     <g id="text_37">
      <!-- 2000 -->
      <g transform="translate(29.67 45.948931)scale(0.12 -0.12)">
       <use xlink:href="#DejaVuSans-50"/>
       <use x="63.623047" xlink:href="#DejaVuSans-48"/>
       <use x="127.246094" xlink:href="#DejaVuSans-48"/>
       <use x="190.869141" xlink:href="#DejaVuSans-48"/>
      </g>
     </g>
    </g>
    <g id="text_38">
     <!-- Count -->
     <g transform="translate(23.174375 254.193125)rotate(-90)scale(0.12 -0.12)">
      <use xlink:href="#DejaVuSans-67"/>
      <use x="69.824219" xlink:href="#DejaVuSans-111"/>
      <use x="131.005859" xlink:href="#DejaVuSans-117"/>
      <use x="194.384766" xlink:href="#DejaVuSans-110"/>
      <use x="257.763672" xlink:href="#DejaVuSans-116"/>
     </g>
    </g>
   </g>
   <g id="patch_30">
    <path d="M 67.21 442.79 
L 67.21 29.96 
" style="fill:none;stroke:#000000;stroke-linecap:square;stroke-linejoin:miter;stroke-width:0.8;"/>
   </g>
   <g id="patch_31">
    <path d="M 851.04 442.79 
L 851.04 29.96 
" style="fill:none;stroke:#000000;stroke-linecap:square;stroke-linejoin:miter;stroke-width:0.8;"/>
   </g>
   <g id="patch_32">
    <path d="M 67.21 442.79 
L 851.04 442.79 
" style="fill:none;stroke:#000000;stroke-linecap:square;stroke-linejoin:miter;stroke-width:0.8;"/>
   </g>
   <g id="patch_33">
    <path d="M 67.21 29.96 
L 851.04 29.96 
" style="fill:none;stroke:#000000;stroke-linecap:square;stroke-linejoin:miter;stroke-width:0.8;"/>
   </g>
   <g id="text_39">
    <!-- Count of Research Projects by EU countries (Including UK) -->
    <defs>
     <path d="M 37.109375 75.984375 
L 37.109375 68.5 
L 28.515625 68.5 
Q 23.6875 68.5 21.796875 66.546875 
Q 19.921875 64.59375 19.921875 59.515625 
L 19.921875 54.6875 
L 34.71875 54.6875 
L 34.71875 47.703125 
L 19.921875 47.703125 
L 19.921875 0 
L 10.890625 0 
L 10.890625 47.703125 
L 2.296875 47.703125 
L 2.296875 54.6875 
L 10.890625 54.6875 
L 10.890625 58.5 
Q 10.890625 67.625 15.140625 71.796875 
Q 19.390625 75.984375 28.609375 75.984375 
z
" id="DejaVuSans-102"/>
     <path d="M 9.421875 54.6875 
L 18.40625 54.6875 
L 18.40625 -0.984375 
Q 18.40625 -11.421875 14.421875 -16.109375 
Q 10.453125 -20.796875 1.609375 -20.796875 
L -1.8125 -20.796875 
L -1.8125 -13.1875 
L 0.59375 -13.1875 
Q 5.71875 -13.1875 7.5625 -10.8125 
Q 9.421875 -8.453125 9.421875 -0.984375 
z
M 9.421875 75.984375 
L 18.40625 75.984375 
L 18.40625 64.59375 
L 9.421875 64.59375 
z
" id="DejaVuSans-106"/>
     <path d="M 31 75.875 
Q 24.46875 64.65625 21.28125 53.65625 
Q 18.109375 42.671875 18.109375 31.390625 
Q 18.109375 20.125 21.3125 9.0625 
Q 24.515625 -2 31 -13.1875 
L 23.1875 -13.1875 
Q 15.875 -1.703125 12.234375 9.375 
Q 8.59375 20.453125 8.59375 31.390625 
Q 8.59375 42.28125 12.203125 53.3125 
Q 15.828125 64.359375 23.1875 75.875 
z
" id="DejaVuSans-40"/>
     <path d="M 8.015625 75.875 
L 15.828125 75.875 
Q 23.140625 64.359375 26.78125 53.3125 
Q 30.421875 42.28125 30.421875 31.390625 
Q 30.421875 20.453125 26.78125 9.375 
Q 23.140625 -1.703125 15.828125 -13.1875 
L 8.015625 -13.1875 
Q 14.5 -2 17.703125 9.0625 
Q 20.90625 20.125 20.90625 31.390625 
Q 20.90625 42.671875 17.703125 53.65625 
Q 14.5 64.65625 8.015625 75.875 
z
" id="DejaVuSans-41"/>
    </defs>
    <g transform="translate(249.700625 23.96)scale(0.144 -0.144)">
     <use xlink:href="#DejaVuSans-67"/>
     <use x="69.824219" xlink:href="#DejaVuSans-111"/>
     <use x="131.005859" xlink:href="#DejaVuSans-117"/>
     <use x="194.384766" xlink:href="#DejaVuSans-110"/>
     <use x="257.763672" xlink:href="#DejaVuSans-116"/>
     <use x="296.972656" xlink:href="#DejaVuSans-32"/>
     <use x="328.759766" xlink:href="#DejaVuSans-111"/>
     <use x="389.941406" xlink:href="#DejaVuSans-102"/>
     <use x="425.146484" xlink:href="#DejaVuSans-32"/>
     <use x="456.933594" xlink:href="#DejaVuSans-82"/>
     <use x="526.353516" xlink:href="#DejaVuSans-101"/>
     <use x="587.876953" xlink:href="#DejaVuSans-115"/>
     <use x="639.976562" xlink:href="#DejaVuSans-101"/>
     <use x="701.5" xlink:href="#DejaVuSans-97"/>
     <use x="762.779297" xlink:href="#DejaVuSans-114"/>
     <use x="803.861328" xlink:href="#DejaVuSans-99"/>
     <use x="858.841797" xlink:href="#DejaVuSans-104"/>
     <use x="922.220703" xlink:href="#DejaVuSans-32"/>
     <use x="954.007812" xlink:href="#DejaVuSans-80"/>
     <use x="1014.294922" xlink:href="#DejaVuSans-114"/>
     <use x="1055.376953" xlink:href="#DejaVuSans-111"/>
     <use x="1116.558594" xlink:href="#DejaVuSans-106"/>
     <use x="1144.341797" xlink:href="#DejaVuSans-101"/>
     <use x="1205.865234" xlink:href="#DejaVuSans-99"/>
     <use x="1260.845703" xlink:href="#DejaVuSans-116"/>
     <use x="1300.054688" xlink:href="#DejaVuSans-115"/>
     <use x="1352.154297" xlink:href="#DejaVuSans-32"/>
     <use x="1383.941406" xlink:href="#DejaVuSans-98"/>
     <use x="1447.417969" xlink:href="#DejaVuSans-121"/>
     <use x="1506.597656" xlink:href="#DejaVuSans-32"/>
     <use x="1538.384766" xlink:href="#DejaVuSans-69"/>
     <use x="1601.568359" xlink:href="#DejaVuSans-85"/>
     <use x="1674.761719" xlink:href="#DejaVuSans-32"/>
     <use x="1706.548828" xlink:href="#DejaVuSans-99"/>
     <use x="1761.529297" xlink:href="#DejaVuSans-111"/>
     <use x="1822.710938" xlink:href="#DejaVuSans-117"/>
     <use x="1886.089844" xlink:href="#DejaVuSans-110"/>
     <use x="1949.46875" xlink:href="#DejaVuSans-116"/>
     <use x="1988.677734" xlink:href="#DejaVuSans-114"/>
     <use x="2029.791016" xlink:href="#DejaVuSans-105"/>
     <use x="2057.574219" xlink:href="#DejaVuSans-101"/>
     <use x="2119.097656" xlink:href="#DejaVuSans-115"/>
     <use x="2171.197266" xlink:href="#DejaVuSans-32"/>
     <use x="2202.984375" xlink:href="#DejaVuSans-40"/>
     <use x="2241.998047" xlink:href="#DejaVuSans-73"/>
     <use x="2271.490234" xlink:href="#DejaVuSans-110"/>
     <use x="2334.869141" xlink:href="#DejaVuSans-99"/>
     <use x="2389.849609" xlink:href="#DejaVuSans-108"/>
     <use x="2417.632812" xlink:href="#DejaVuSans-117"/>
     <use x="2481.011719" xlink:href="#DejaVuSans-100"/>
     <use x="2544.488281" xlink:href="#DejaVuSans-105"/>
     <use x="2572.271484" xlink:href="#DejaVuSans-110"/>
     <use x="2635.650391" xlink:href="#DejaVuSans-103"/>
     <use x="2699.126953" xlink:href="#DejaVuSans-32"/>
     <use x="2730.914062" xlink:href="#DejaVuSans-85"/>
     <use x="2804.107422" xlink:href="#DejaVuSans-75"/>
     <use x="2869.683594" xlink:href="#DejaVuSans-41"/>
    </g>
   </g>
  </g>
 </g>
 <defs>
  <clipPath id="pc1d09b2824">
   <rect height="412.83" width="783.83" x="67.21" y="29.96"/>
  </clipPath>
 </defs>
</svg>
