<?xml version="1.0" encoding="utf-8" standalone="no"?>
<!DOCTYPE svg PUBLIC "-//W3C//DTD SVG 1.1//EN"
  "http://www.w3.org/Graphics/SVG/1.1/DTD/svg11.dtd">
<!-- Created with matplotlib (https://matplotlib.org/) -->
<svg height="504pt" version="1.1" viewBox="0 0 720 504" width="720pt" xmlns="http://www.w3.org/2000/svg" xmlns:xlink="http://www.w3.org/1999/xlink">
 <defs>
  <style type="text/css">
*{stroke-linecap:butt;stroke-linejoin:round;}
  </style>
 </defs>
 <g id="figure_1">
  <g id="patch_1">
   <path d="M 0 504 
L 720 504 
L 720 0 
L 0 0 
z
" style="fill:#ffffff;"/>
  </g>
  <g id="axes_1">
   <g id="patch_2">
    <path d="M 59.585 204.79 
L 707.04 204.79 
L 707.04 29.96 
L 59.585 29.96 
z
" style="fill:#ffffff;"/>
   </g>
   <g id="patch_3">
    <path clip-path="url(#pa064ddc0d2)" d="M 67.678187 204.79 
L 83.864562 204.79 
L 83.864562 38.285238 
L 67.678187 38.285238 
z
" style="fill:#3754b3;"/>
   </g>
   <g id="patch_4">
    <path clip-path="url(#pa064ddc0d2)" d="M 100.050937 204.79 
L 116.237312 204.79 
L 116.237312 107.323798 
L 100.050937 107.323798 
z
" style="fill:#3754b3;"/>
   </g>
   <g id="patch_5">
    <path clip-path="url(#pa064ddc0d2)" d="M 132.423687 204.79 
L 148.610062 204.79 
L 148.610062 116.026137 
L 132.423687 116.026137 
z
" style="fill:#3754b3;"/>
   </g>
   <g id="patch_6">
    <path clip-path="url(#pa064ddc0d2)" d="M 164.796437 204.79 
L 180.982812 204.79 
L 180.982812 128.209413 
L 164.796437 128.209413 
z
" style="fill:#3754b3;"/>
   </g>
   <g id="patch_7">
    <path clip-path="url(#pa064ddc0d2)" d="M 197.169187 204.79 
L 213.355562 204.79 
L 213.355562 132.85066 
L 197.169187 132.85066 
z
" style="fill:#3754b3;"/>
   </g>
   <g id="patch_8">
    <path clip-path="url(#pa064ddc0d2)" d="M 229.541937 204.79 
L 245.728312 204.79 
L 245.728312 140.392688 
L 229.541937 140.392688 
z
" style="fill:#3754b3;"/>
   </g>
   <g id="patch_9">
    <path clip-path="url(#pa064ddc0d2)" d="M 261.914687 204.79 
L 278.101062 204.79 
L 278.101062 143.873624 
L 261.914687 143.873624 
z
" style="fill:#3754b3;"/>
   </g>
   <g id="patch_10">
    <path clip-path="url(#pa064ddc0d2)" d="M 294.287437 204.79 
L 310.473812 204.79 
L 310.473812 145.033936 
L 294.287437 145.033936 
z
" style="fill:#3754b3;"/>
   </g>
   <g id="patch_11">
    <path clip-path="url(#pa064ddc0d2)" d="M 326.660187 204.79 
L 342.846562 204.79 
L 342.846562 151.415651 
L 326.660187 151.415651 
z
" style="fill:#3754b3;"/>
   </g>
   <g id="patch_12">
    <path clip-path="url(#pa064ddc0d2)" d="M 359.032937 204.79 
L 375.219312 204.79 
L 375.219312 153.736275 
L 359.032937 153.736275 
z
" style="fill:#3754b3;"/>
   </g>
   <g id="patch_13">
    <path clip-path="url(#pa064ddc0d2)" d="M 391.405687 204.79 
L 407.592062 204.79 
L 407.592062 153.736275 
L 391.405687 153.736275 
z
" style="fill:#3754b3;"/>
   </g>
   <g id="patch_14">
    <path clip-path="url(#pa064ddc0d2)" d="M 423.778437 204.79 
L 439.964812 204.79 
L 439.964812 154.316431 
L 423.778437 154.316431 
z
" style="fill:#3754b3;"/>
   </g>
   <g id="patch_15">
    <path clip-path="url(#pa064ddc0d2)" d="M 456.151187 204.79 
L 472.337562 204.79 
L 472.337562 156.637055 
L 456.151187 156.637055 
z
" style="fill:#3754b3;"/>
   </g>
   <g id="patch_16">
    <path clip-path="url(#pa064ddc0d2)" d="M 488.523937 204.79 
L 504.710312 204.79 
L 504.710312 158.377523 
L 488.523937 158.377523 
z
" style="fill:#3754b3;"/>
   </g>
   <g id="patch_17">
    <path clip-path="url(#pa064ddc0d2)" d="M 520.896687 204.79 
L 537.083062 204.79 
L 537.083062 160.117991 
L 520.896687 160.117991 
z
" style="fill:#3754b3;"/>
   </g>
   <g id="patch_18">
    <path clip-path="url(#pa064ddc0d2)" d="M 553.269437 204.79 
L 569.455812 204.79 
L 569.455812 160.698147 
L 553.269437 160.698147 
z
" style="fill:#3754b3;"/>
   </g>
   <g id="patch_19">
    <path clip-path="url(#pa064ddc0d2)" d="M 585.642187 204.79 
L 601.828562 204.79 
L 601.828562 163.018771 
L 585.642187 163.018771 
z
" style="fill:#3754b3;"/>
   </g>
   <g id="patch_20">
    <path clip-path="url(#pa064ddc0d2)" d="M 618.014937 204.79 
L 634.201312 204.79 
L 634.201312 163.018771 
L 618.014937 163.018771 
z
" style="fill:#3754b3;"/>
   </g>
   <g id="patch_21">
    <path clip-path="url(#pa064ddc0d2)" d="M 650.387687 204.79 
L 666.574062 204.79 
L 666.574062 164.179082 
L 650.387687 164.179082 
z
" style="fill:#3754b3;"/>
   </g>
   <g id="patch_22">
    <path clip-path="url(#pa064ddc0d2)" d="M 682.760437 204.79 
L 698.946812 204.79 
L 698.946812 165.339394 
L 682.760437 165.339394 
z
" style="fill:#3754b3;"/>
   </g>
   <g id="matplotlib.axis_1">
    <g id="xtick_1">
     <g id="line2d_1">
      <defs>
       <path d="M 0 0 
L 0 3.5 
" id="mef85e0179b" style="stroke:#000000;stroke-width:0.8;"/>
      </defs>
      <g>
       <use style="stroke:#000000;stroke-width:0.8;" x="75.771375" xlink:href="#mef85e0179b" y="204.79"/>
      </g>
     </g>
     <g id="text_1">
      <!-- 0_rna_protein_coronavirus_viral -->
      <defs>
       <path d="M 31.78125 66.40625 
Q 24.171875 66.40625 20.328125 58.90625 
Q 16.5 51.421875 16.5 36.375 
Q 16.5 21.390625 20.328125 13.890625 
Q 24.171875 6.390625 31.78125 6.390625 
Q 39.453125 6.390625 43.28125 13.890625 
Q 47.125 21.390625 47.125 36.375 
Q 47.125 51.421875 43.28125 58.90625 
Q 39.453125 66.40625 31.78125 66.40625 
z
M 31.78125 74.21875 
Q 44.046875 74.21875 50.515625 64.515625 
Q 56.984375 54.828125 56.984375 36.375 
Q 56.984375 17.96875 50.515625 8.265625 
Q 44.046875 -1.421875 31.78125 -1.421875 
Q 19.53125 -1.421875 13.0625 8.265625 
Q 6.59375 17.96875 6.59375 36.375 
Q 6.59375 54.828125 13.0625 64.515625 
Q 19.53125 74.21875 31.78125 74.21875 
z
" id="DejaVuSans-48"/>
       <path d="M 50.984375 -16.609375 
L 50.984375 -23.578125 
L -0.984375 -23.578125 
L -0.984375 -16.609375 
z
" id="DejaVuSans-95"/>
       <path d="M 41.109375 46.296875 
Q 39.59375 47.171875 37.8125 47.578125 
Q 36.03125 48 33.890625 48 
Q 26.265625 48 22.1875 43.046875 
Q 18.109375 38.09375 18.109375 28.8125 
L 18.109375 0 
L 9.078125 0 
L 9.078125 54.6875 
L 18.109375 54.6875 
L 18.109375 46.1875 
Q 20.953125 51.171875 25.484375 53.578125 
Q 30.03125 56 36.53125 56 
Q 37.453125 56 38.578125 55.875 
Q 39.703125 55.765625 41.0625 55.515625 
z
" id="DejaVuSans-114"/>
       <path d="M 54.890625 33.015625 
L 54.890625 0 
L 45.90625 0 
L 45.90625 32.71875 
Q 45.90625 40.484375 42.875 44.328125 
Q 39.84375 48.1875 33.796875 48.1875 
Q 26.515625 48.1875 22.3125 43.546875 
Q 18.109375 38.921875 18.109375 30.90625 
L 18.109375 0 
L 9.078125 0 
L 9.078125 54.6875 
L 18.109375 54.6875 
L 18.109375 46.1875 
Q 21.34375 51.125 25.703125 53.5625 
Q 30.078125 56 35.796875 56 
Q 45.21875 56 50.046875 50.171875 
Q 54.890625 44.34375 54.890625 33.015625 
z
" id="DejaVuSans-110"/>
       <path d="M 34.28125 27.484375 
Q 23.390625 27.484375 19.1875 25 
Q 14.984375 22.515625 14.984375 16.5 
Q 14.984375 11.71875 18.140625 8.90625 
Q 21.296875 6.109375 26.703125 6.109375 
Q 34.1875 6.109375 38.703125 11.40625 
Q 43.21875 16.703125 43.21875 25.484375 
L 43.21875 27.484375 
z
M 52.203125 31.203125 
L 52.203125 0 
L 43.21875 0 
L 43.21875 8.296875 
Q 40.140625 3.328125 35.546875 0.953125 
Q 30.953125 -1.421875 24.3125 -1.421875 
Q 15.921875 -1.421875 10.953125 3.296875 
Q 6 8.015625 6 15.921875 
Q 6 25.140625 12.171875 29.828125 
Q 18.359375 34.515625 30.609375 34.515625 
L 43.21875 34.515625 
L 43.21875 35.40625 
Q 43.21875 41.609375 39.140625 45 
Q 35.0625 48.390625 27.6875 48.390625 
Q 23 48.390625 18.546875 47.265625 
Q 14.109375 46.140625 10.015625 43.890625 
L 10.015625 52.203125 
Q 14.9375 54.109375 19.578125 55.046875 
Q 24.21875 56 28.609375 56 
Q 40.484375 56 46.34375 49.84375 
Q 52.203125 43.703125 52.203125 31.203125 
z
" id="DejaVuSans-97"/>
       <path d="M 18.109375 8.203125 
L 18.109375 -20.796875 
L 9.078125 -20.796875 
L 9.078125 54.6875 
L 18.109375 54.6875 
L 18.109375 46.390625 
Q 20.953125 51.265625 25.265625 53.625 
Q 29.59375 56 35.59375 56 
Q 45.5625 56 51.78125 48.09375 
Q 58.015625 40.1875 58.015625 27.296875 
Q 58.015625 14.40625 51.78125 6.484375 
Q 45.5625 -1.421875 35.59375 -1.421875 
Q 29.59375 -1.421875 25.265625 0.953125 
Q 20.953125 3.328125 18.109375 8.203125 
z
M 48.6875 27.296875 
Q 48.6875 37.203125 44.609375 42.84375 
Q 40.53125 48.484375 33.40625 48.484375 
Q 26.265625 48.484375 22.1875 42.84375 
Q 18.109375 37.203125 18.109375 27.296875 
Q 18.109375 17.390625 22.1875 11.75 
Q 26.265625 6.109375 33.40625 6.109375 
Q 40.53125 6.109375 44.609375 11.75 
Q 48.6875 17.390625 48.6875 27.296875 
z
" id="DejaVuSans-112"/>
       <path d="M 30.609375 48.390625 
Q 23.390625 48.390625 19.1875 42.75 
Q 14.984375 37.109375 14.984375 27.296875 
Q 14.984375 17.484375 19.15625 11.84375 
Q 23.34375 6.203125 30.609375 6.203125 
Q 37.796875 6.203125 41.984375 11.859375 
Q 46.1875 17.53125 46.1875 27.296875 
Q 46.1875 37.015625 41.984375 42.703125 
Q 37.796875 48.390625 30.609375 48.390625 
z
M 30.609375 56 
Q 42.328125 56 49.015625 48.375 
Q 55.71875 40.765625 55.71875 27.296875 
Q 55.71875 13.875 49.015625 6.21875 
Q 42.328125 -1.421875 30.609375 -1.421875 
Q 18.84375 -1.421875 12.171875 6.21875 
Q 5.515625 13.875 5.515625 27.296875 
Q 5.515625 40.765625 12.171875 48.375 
Q 18.84375 56 30.609375 56 
z
" id="DejaVuSans-111"/>
       <path d="M 18.3125 70.21875 
L 18.3125 54.6875 
L 36.8125 54.6875 
L 36.8125 47.703125 
L 18.3125 47.703125 
L 18.3125 18.015625 
Q 18.3125 11.328125 20.140625 9.421875 
Q 21.96875 7.515625 27.59375 7.515625 
L 36.8125 7.515625 
L 36.8125 0 
L 27.59375 0 
Q 17.1875 0 13.234375 3.875 
Q 9.28125 7.765625 9.28125 18.015625 
L 9.28125 47.703125 
L 2.6875 47.703125 
L 2.6875 54.6875 
L 9.28125 54.6875 
L 9.28125 70.21875 
z
" id="DejaVuSans-116"/>
       <path d="M 56.203125 29.59375 
L 56.203125 25.203125 
L 14.890625 25.203125 
Q 15.484375 15.921875 20.484375 11.0625 
Q 25.484375 6.203125 34.421875 6.203125 
Q 39.59375 6.203125 44.453125 7.46875 
Q 49.3125 8.734375 54.109375 11.28125 
L 54.109375 2.78125 
Q 49.265625 0.734375 44.1875 -0.34375 
Q 39.109375 -1.421875 33.890625 -1.421875 
Q 20.796875 -1.421875 13.15625 6.1875 
Q 5.515625 13.8125 5.515625 26.8125 
Q 5.515625 40.234375 12.765625 48.109375 
Q 20.015625 56 32.328125 56 
Q 43.359375 56 49.78125 48.890625 
Q 56.203125 41.796875 56.203125 29.59375 
z
M 47.21875 32.234375 
Q 47.125 39.59375 43.09375 43.984375 
Q 39.0625 48.390625 32.421875 48.390625 
Q 24.90625 48.390625 20.390625 44.140625 
Q 15.875 39.890625 15.1875 32.171875 
z
" id="DejaVuSans-101"/>
       <path d="M 9.421875 54.6875 
L 18.40625 54.6875 
L 18.40625 0 
L 9.421875 0 
z
M 9.421875 75.984375 
L 18.40625 75.984375 
L 18.40625 64.59375 
L 9.421875 64.59375 
z
" id="DejaVuSans-105"/>
       <path d="M 48.78125 52.59375 
L 48.78125 44.1875 
Q 44.96875 46.296875 41.140625 47.34375 
Q 37.3125 48.390625 33.40625 48.390625 
Q 24.65625 48.390625 19.8125 42.84375 
Q 14.984375 37.3125 14.984375 27.296875 
Q 14.984375 17.28125 19.8125 11.734375 
Q 24.65625 6.203125 33.40625 6.203125 
Q 37.3125 6.203125 41.140625 7.25 
Q 44.96875 8.296875 48.78125 10.40625 
L 48.78125 2.09375 
Q 45.015625 0.34375 40.984375 -0.53125 
Q 36.96875 -1.421875 32.421875 -1.421875 
Q 20.0625 -1.421875 12.78125 6.34375 
Q 5.515625 14.109375 5.515625 27.296875 
Q 5.515625 40.671875 12.859375 48.328125 
Q 20.21875 56 33.015625 56 
Q 37.15625 56 41.109375 55.140625 
Q 45.0625 54.296875 48.78125 52.59375 
z
" id="DejaVuSans-99"/>
       <path d="M 2.984375 54.6875 
L 12.5 54.6875 
L 29.59375 8.796875 
L 46.6875 54.6875 
L 56.203125 54.6875 
L 35.6875 0 
L 23.484375 0 
z
" id="DejaVuSans-118"/>
       <path d="M 8.5 21.578125 
L 8.5 54.6875 
L 17.484375 54.6875 
L 17.484375 21.921875 
Q 17.484375 14.15625 20.5 10.265625 
Q 23.53125 6.390625 29.59375 6.390625 
Q 36.859375 6.390625 41.078125 11.03125 
Q 45.3125 15.671875 45.3125 23.6875 
L 45.3125 54.6875 
L 54.296875 54.6875 
L 54.296875 0 
L 45.3125 0 
L 45.3125 8.40625 
Q 42.046875 3.421875 37.71875 1 
Q 33.40625 -1.421875 27.6875 -1.421875 
Q 18.265625 -1.421875 13.375 4.4375 
Q 8.5 10.296875 8.5 21.578125 
z
M 31.109375 56 
z
" id="DejaVuSans-117"/>
       <path d="M 44.28125 53.078125 
L 44.28125 44.578125 
Q 40.484375 46.53125 36.375 47.5 
Q 32.28125 48.484375 27.875 48.484375 
Q 21.1875 48.484375 17.84375 46.4375 
Q 14.5 44.390625 14.5 40.28125 
Q 14.5 37.15625 16.890625 35.375 
Q 19.28125 33.59375 26.515625 31.984375 
L 29.59375 31.296875 
Q 39.15625 29.25 43.1875 25.515625 
Q 47.21875 21.78125 47.21875 15.09375 
Q 47.21875 7.46875 41.1875 3.015625 
Q 35.15625 -1.421875 24.609375 -1.421875 
Q 20.21875 -1.421875 15.453125 -0.5625 
Q 10.6875 0.296875 5.421875 2 
L 5.421875 11.28125 
Q 10.40625 8.6875 15.234375 7.390625 
Q 20.0625 6.109375 24.8125 6.109375 
Q 31.15625 6.109375 34.5625 8.28125 
Q 37.984375 10.453125 37.984375 14.40625 
Q 37.984375 18.0625 35.515625 20.015625 
Q 33.0625 21.96875 24.703125 23.78125 
L 21.578125 24.515625 
Q 13.234375 26.265625 9.515625 29.90625 
Q 5.8125 33.546875 5.8125 39.890625 
Q 5.8125 47.609375 11.28125 51.796875 
Q 16.75 56 26.8125 56 
Q 31.78125 56 36.171875 55.265625 
Q 40.578125 54.546875 44.28125 53.078125 
z
" id="DejaVuSans-115"/>
       <path d="M 9.421875 75.984375 
L 18.40625 75.984375 
L 18.40625 0 
L 9.421875 0 
z
" id="DejaVuSans-108"/>
      </defs>
      <g transform="translate(78.91575 402.685625)rotate(-90)scale(0.12 -0.12)">
       <use xlink:href="#DejaVuSans-48"/>
       <use x="63.623047" xlink:href="#DejaVuSans-95"/>
       <use x="113.623047" xlink:href="#DejaVuSans-114"/>
       <use x="154.720703" xlink:href="#DejaVuSans-110"/>
       <use x="218.099609" xlink:href="#DejaVuSans-97"/>
       <use x="279.378906" xlink:href="#DejaVuSans-95"/>
       <use x="329.378906" xlink:href="#DejaVuSans-112"/>
       <use x="392.855469" xlink:href="#DejaVuSans-114"/>
       <use x="433.9375" xlink:href="#DejaVuSans-111"/>
       <use x="495.119141" xlink:href="#DejaVuSans-116"/>
       <use x="534.328125" xlink:href="#DejaVuSans-101"/>
       <use x="595.851562" xlink:href="#DejaVuSans-105"/>
       <use x="623.634766" xlink:href="#DejaVuSans-110"/>
       <use x="687.013672" xlink:href="#DejaVuSans-95"/>
       <use x="737.013672" xlink:href="#DejaVuSans-99"/>
       <use x="791.994141" xlink:href="#DejaVuSans-111"/>
       <use x="853.175781" xlink:href="#DejaVuSans-114"/>
       <use x="894.257812" xlink:href="#DejaVuSans-111"/>
       <use x="955.439453" xlink:href="#DejaVuSans-110"/>
       <use x="1018.818359" xlink:href="#DejaVuSans-97"/>
       <use x="1080.097656" xlink:href="#DejaVuSans-118"/>
       <use x="1139.277344" xlink:href="#DejaVuSans-105"/>
       <use x="1167.060547" xlink:href="#DejaVuSans-114"/>
       <use x="1208.173828" xlink:href="#DejaVuSans-117"/>
       <use x="1271.552734" xlink:href="#DejaVuSans-115"/>
       <use x="1323.652344" xlink:href="#DejaVuSans-95"/>
       <use x="1373.652344" xlink:href="#DejaVuSans-118"/>
       <use x="1432.832031" xlink:href="#DejaVuSans-105"/>
       <use x="1460.615234" xlink:href="#DejaVuSans-114"/>
       <use x="1501.728516" xlink:href="#DejaVuSans-97"/>
       <use x="1563.007812" xlink:href="#DejaVuSans-108"/>
      </g>
     </g>
    </g>
    <g id="xtick_2">
     <g id="line2d_2">
      <g>
       <use style="stroke:#000000;stroke-width:0.8;" x="108.144125" xlink:href="#mef85e0179b" y="204.79"/>
      </g>
     </g>
     <g id="text_2">
      <!-- 1_mental_anxieti_psycholog_depress -->
      <defs>
       <path d="M 12.40625 8.296875 
L 28.515625 8.296875 
L 28.515625 63.921875 
L 10.984375 60.40625 
L 10.984375 69.390625 
L 28.421875 72.90625 
L 38.28125 72.90625 
L 38.28125 8.296875 
L 54.390625 8.296875 
L 54.390625 0 
L 12.40625 0 
z
" id="DejaVuSans-49"/>
       <path d="M 52 44.1875 
Q 55.375 50.25 60.0625 53.125 
Q 64.75 56 71.09375 56 
Q 79.640625 56 84.28125 50.015625 
Q 88.921875 44.046875 88.921875 33.015625 
L 88.921875 0 
L 79.890625 0 
L 79.890625 32.71875 
Q 79.890625 40.578125 77.09375 44.375 
Q 74.3125 48.1875 68.609375 48.1875 
Q 61.625 48.1875 57.5625 43.546875 
Q 53.515625 38.921875 53.515625 30.90625 
L 53.515625 0 
L 44.484375 0 
L 44.484375 32.71875 
Q 44.484375 40.625 41.703125 44.40625 
Q 38.921875 48.1875 33.109375 48.1875 
Q 26.21875 48.1875 22.15625 43.53125 
Q 18.109375 38.875 18.109375 30.90625 
L 18.109375 0 
L 9.078125 0 
L 9.078125 54.6875 
L 18.109375 54.6875 
L 18.109375 46.1875 
Q 21.1875 51.21875 25.484375 53.609375 
Q 29.78125 56 35.6875 56 
Q 41.65625 56 45.828125 52.96875 
Q 50 49.953125 52 44.1875 
z
" id="DejaVuSans-109"/>
       <path d="M 54.890625 54.6875 
L 35.109375 28.078125 
L 55.90625 0 
L 45.3125 0 
L 29.390625 21.484375 
L 13.484375 0 
L 2.875 0 
L 24.125 28.609375 
L 4.6875 54.6875 
L 15.28125 54.6875 
L 29.78125 35.203125 
L 44.28125 54.6875 
z
" id="DejaVuSans-120"/>
       <path d="M 32.171875 -5.078125 
Q 28.375 -14.84375 24.75 -17.8125 
Q 21.140625 -20.796875 15.09375 -20.796875 
L 7.90625 -20.796875 
L 7.90625 -13.28125 
L 13.1875 -13.28125 
Q 16.890625 -13.28125 18.9375 -11.515625 
Q 21 -9.765625 23.484375 -3.21875 
L 25.09375 0.875 
L 2.984375 54.6875 
L 12.5 54.6875 
L 29.59375 11.921875 
L 46.6875 54.6875 
L 56.203125 54.6875 
z
" id="DejaVuSans-121"/>
       <path d="M 54.890625 33.015625 
L 54.890625 0 
L 45.90625 0 
L 45.90625 32.71875 
Q 45.90625 40.484375 42.875 44.328125 
Q 39.84375 48.1875 33.796875 48.1875 
Q 26.515625 48.1875 22.3125 43.546875 
Q 18.109375 38.921875 18.109375 30.90625 
L 18.109375 0 
L 9.078125 0 
L 9.078125 75.984375 
L 18.109375 75.984375 
L 18.109375 46.1875 
Q 21.34375 51.125 25.703125 53.5625 
Q 30.078125 56 35.796875 56 
Q 45.21875 56 50.046875 50.171875 
Q 54.890625 44.34375 54.890625 33.015625 
z
" id="DejaVuSans-104"/>
       <path d="M 45.40625 27.984375 
Q 45.40625 37.75 41.375 43.109375 
Q 37.359375 48.484375 30.078125 48.484375 
Q 22.859375 48.484375 18.828125 43.109375 
Q 14.796875 37.75 14.796875 27.984375 
Q 14.796875 18.265625 18.828125 12.890625 
Q 22.859375 7.515625 30.078125 7.515625 
Q 37.359375 7.515625 41.375 12.890625 
Q 45.40625 18.265625 45.40625 27.984375 
z
M 54.390625 6.78125 
Q 54.390625 -7.171875 48.1875 -13.984375 
Q 42 -20.796875 29.203125 -20.796875 
Q 24.46875 -20.796875 20.265625 -20.09375 
Q 16.0625 -19.390625 12.109375 -17.921875 
L 12.109375 -9.1875 
Q 16.0625 -11.328125 19.921875 -12.34375 
Q 23.78125 -13.375 27.78125 -13.375 
Q 36.625 -13.375 41.015625 -8.765625 
Q 45.40625 -4.15625 45.40625 5.171875 
L 45.40625 9.625 
Q 42.625 4.78125 38.28125 2.390625 
Q 33.9375 0 27.875 0 
Q 17.828125 0 11.671875 7.65625 
Q 5.515625 15.328125 5.515625 27.984375 
Q 5.515625 40.671875 11.671875 48.328125 
Q 17.828125 56 27.875 56 
Q 33.9375 56 38.28125 53.609375 
Q 42.625 51.21875 45.40625 46.390625 
L 45.40625 54.6875 
L 54.390625 54.6875 
z
" id="DejaVuSans-103"/>
       <path d="M 45.40625 46.390625 
L 45.40625 75.984375 
L 54.390625 75.984375 
L 54.390625 0 
L 45.40625 0 
L 45.40625 8.203125 
Q 42.578125 3.328125 38.25 0.953125 
Q 33.9375 -1.421875 27.875 -1.421875 
Q 17.96875 -1.421875 11.734375 6.484375 
Q 5.515625 14.40625 5.515625 27.296875 
Q 5.515625 40.1875 11.734375 48.09375 
Q 17.96875 56 27.875 56 
Q 33.9375 56 38.25 53.625 
Q 42.578125 51.265625 45.40625 46.390625 
z
M 14.796875 27.296875 
Q 14.796875 17.390625 18.875 11.75 
Q 22.953125 6.109375 30.078125 6.109375 
Q 37.203125 6.109375 41.296875 11.75 
Q 45.40625 17.390625 45.40625 27.296875 
Q 45.40625 37.203125 41.296875 42.84375 
Q 37.203125 48.484375 30.078125 48.484375 
Q 22.953125 48.484375 18.875 42.84375 
Q 14.796875 37.203125 14.796875 27.296875 
z
" id="DejaVuSans-100"/>
      </defs>
      <g transform="translate(111.2885 434.55875)rotate(-90)scale(0.12 -0.12)">
       <use xlink:href="#DejaVuSans-49"/>
       <use x="63.623047" xlink:href="#DejaVuSans-95"/>
       <use x="113.623047" xlink:href="#DejaVuSans-109"/>
       <use x="211.035156" xlink:href="#DejaVuSans-101"/>
       <use x="272.558594" xlink:href="#DejaVuSans-110"/>
       <use x="335.9375" xlink:href="#DejaVuSans-116"/>
       <use x="375.146484" xlink:href="#DejaVuSans-97"/>
       <use x="436.425781" xlink:href="#DejaVuSans-108"/>
       <use x="464.208984" xlink:href="#DejaVuSans-95"/>
       <use x="514.208984" xlink:href="#DejaVuSans-97"/>
       <use x="575.488281" xlink:href="#DejaVuSans-110"/>
       <use x="638.867188" xlink:href="#DejaVuSans-120"/>
       <use x="698.046875" xlink:href="#DejaVuSans-105"/>
       <use x="725.830078" xlink:href="#DejaVuSans-101"/>
       <use x="787.353516" xlink:href="#DejaVuSans-116"/>
       <use x="826.5625" xlink:href="#DejaVuSans-105"/>
       <use x="854.345703" xlink:href="#DejaVuSans-95"/>
       <use x="904.345703" xlink:href="#DejaVuSans-112"/>
       <use x="967.822266" xlink:href="#DejaVuSans-115"/>
       <use x="1019.921875" xlink:href="#DejaVuSans-121"/>
       <use x="1079.101562" xlink:href="#DejaVuSans-99"/>
       <use x="1134.082031" xlink:href="#DejaVuSans-104"/>
       <use x="1197.460938" xlink:href="#DejaVuSans-111"/>
       <use x="1258.642578" xlink:href="#DejaVuSans-108"/>
       <use x="1286.425781" xlink:href="#DejaVuSans-111"/>
       <use x="1347.607422" xlink:href="#DejaVuSans-103"/>
       <use x="1411.083984" xlink:href="#DejaVuSans-95"/>
       <use x="1461.083984" xlink:href="#DejaVuSans-100"/>
       <use x="1524.560547" xlink:href="#DejaVuSans-101"/>
       <use x="1586.083984" xlink:href="#DejaVuSans-112"/>
       <use x="1649.560547" xlink:href="#DejaVuSans-114"/>
       <use x="1690.642578" xlink:href="#DejaVuSans-101"/>
       <use x="1752.166016" xlink:href="#DejaVuSans-115"/>
       <use x="1804.265625" xlink:href="#DejaVuSans-115"/>
      </g>
     </g>
    </g>
    <g id="xtick_3">
     <g id="line2d_3">
      <g>
       <use style="stroke:#000000;stroke-width:0.8;" x="140.516875" xlink:href="#mef85e0179b" y="204.79"/>
      </g>
     </g>
     <g id="text_3">
      <!-- 2_children_child_parent_youth -->
      <defs>
       <path d="M 19.1875 8.296875 
L 53.609375 8.296875 
L 53.609375 0 
L 7.328125 0 
L 7.328125 8.296875 
Q 12.9375 14.109375 22.625 23.890625 
Q 32.328125 33.6875 34.8125 36.53125 
Q 39.546875 41.84375 41.421875 45.53125 
Q 43.3125 49.21875 43.3125 52.78125 
Q 43.3125 58.59375 39.234375 62.25 
Q 35.15625 65.921875 28.609375 65.921875 
Q 23.96875 65.921875 18.8125 64.3125 
Q 13.671875 62.703125 7.8125 59.421875 
L 7.8125 69.390625 
Q 13.765625 71.78125 18.9375 73 
Q 24.125 74.21875 28.421875 74.21875 
Q 39.75 74.21875 46.484375 68.546875 
Q 53.21875 62.890625 53.21875 53.421875 
Q 53.21875 48.921875 51.53125 44.890625 
Q 49.859375 40.875 45.40625 35.40625 
Q 44.1875 33.984375 37.640625 27.21875 
Q 31.109375 20.453125 19.1875 8.296875 
z
" id="DejaVuSans-50"/>
      </defs>
      <g transform="translate(143.66125 394.274375)rotate(-90)scale(0.12 -0.12)">
       <use xlink:href="#DejaVuSans-50"/>
       <use x="63.623047" xlink:href="#DejaVuSans-95"/>
       <use x="113.623047" xlink:href="#DejaVuSans-99"/>
       <use x="168.603516" xlink:href="#DejaVuSans-104"/>
       <use x="231.982422" xlink:href="#DejaVuSans-105"/>
       <use x="259.765625" xlink:href="#DejaVuSans-108"/>
       <use x="287.548828" xlink:href="#DejaVuSans-100"/>
       <use x="351.025391" xlink:href="#DejaVuSans-114"/>
       <use x="392.107422" xlink:href="#DejaVuSans-101"/>
       <use x="453.630859" xlink:href="#DejaVuSans-110"/>
       <use x="517.009766" xlink:href="#DejaVuSans-95"/>
       <use x="567.009766" xlink:href="#DejaVuSans-99"/>
       <use x="621.990234" xlink:href="#DejaVuSans-104"/>
       <use x="685.369141" xlink:href="#DejaVuSans-105"/>
       <use x="713.152344" xlink:href="#DejaVuSans-108"/>
       <use x="740.935547" xlink:href="#DejaVuSans-100"/>
       <use x="804.412109" xlink:href="#DejaVuSans-95"/>
       <use x="854.412109" xlink:href="#DejaVuSans-112"/>
       <use x="917.888672" xlink:href="#DejaVuSans-97"/>
       <use x="979.167969" xlink:href="#DejaVuSans-114"/>
       <use x="1020.25" xlink:href="#DejaVuSans-101"/>
       <use x="1081.773438" xlink:href="#DejaVuSans-110"/>
       <use x="1145.152344" xlink:href="#DejaVuSans-116"/>
       <use x="1184.361328" xlink:href="#DejaVuSans-95"/>
       <use x="1234.361328" xlink:href="#DejaVuSans-121"/>
       <use x="1293.541016" xlink:href="#DejaVuSans-111"/>
       <use x="1354.722656" xlink:href="#DejaVuSans-117"/>
       <use x="1418.101562" xlink:href="#DejaVuSans-116"/>
       <use x="1457.310547" xlink:href="#DejaVuSans-104"/>
      </g>
     </g>
    </g>
    <g id="xtick_4">
     <g id="line2d_4">
      <g>
       <use style="stroke:#000000;stroke-width:0.8;" x="172.889625" xlink:href="#mef85e0179b" y="204.79"/>
      </g>
     </g>
     <g id="text_4">
      <!-- 3_mask_face_protect_visor -->
      <defs>
       <path d="M 40.578125 39.3125 
Q 47.65625 37.796875 51.625 33 
Q 55.609375 28.21875 55.609375 21.1875 
Q 55.609375 10.40625 48.1875 4.484375 
Q 40.765625 -1.421875 27.09375 -1.421875 
Q 22.515625 -1.421875 17.65625 -0.515625 
Q 12.796875 0.390625 7.625 2.203125 
L 7.625 11.71875 
Q 11.71875 9.328125 16.59375 8.109375 
Q 21.484375 6.890625 26.8125 6.890625 
Q 36.078125 6.890625 40.9375 10.546875 
Q 45.796875 14.203125 45.796875 21.1875 
Q 45.796875 27.640625 41.28125 31.265625 
Q 36.765625 34.90625 28.71875 34.90625 
L 20.21875 34.90625 
L 20.21875 43.015625 
L 29.109375 43.015625 
Q 36.375 43.015625 40.234375 45.921875 
Q 44.09375 48.828125 44.09375 54.296875 
Q 44.09375 59.90625 40.109375 62.90625 
Q 36.140625 65.921875 28.71875 65.921875 
Q 24.65625 65.921875 20.015625 65.03125 
Q 15.375 64.15625 9.8125 62.3125 
L 9.8125 71.09375 
Q 15.4375 72.65625 20.34375 73.4375 
Q 25.25 74.21875 29.59375 74.21875 
Q 40.828125 74.21875 47.359375 69.109375 
Q 53.90625 64.015625 53.90625 55.328125 
Q 53.90625 49.265625 50.4375 45.09375 
Q 46.96875 40.921875 40.578125 39.3125 
z
" id="DejaVuSans-51"/>
       <path d="M 9.078125 75.984375 
L 18.109375 75.984375 
L 18.109375 31.109375 
L 44.921875 54.6875 
L 56.390625 54.6875 
L 27.390625 29.109375 
L 57.625 0 
L 45.90625 0 
L 18.109375 26.703125 
L 18.109375 0 
L 9.078125 0 
z
" id="DejaVuSans-107"/>
       <path d="M 37.109375 75.984375 
L 37.109375 68.5 
L 28.515625 68.5 
Q 23.6875 68.5 21.796875 66.546875 
Q 19.921875 64.59375 19.921875 59.515625 
L 19.921875 54.6875 
L 34.71875 54.6875 
L 34.71875 47.703125 
L 19.921875 47.703125 
L 19.921875 0 
L 10.890625 0 
L 10.890625 47.703125 
L 2.296875 47.703125 
L 2.296875 54.6875 
L 10.890625 54.6875 
L 10.890625 58.5 
Q 10.890625 67.625 15.140625 71.796875 
Q 19.390625 75.984375 28.609375 75.984375 
z
" id="DejaVuSans-102"/>
      </defs>
      <g transform="translate(176.034 373.47125)rotate(-90)scale(0.12 -0.12)">
       <use xlink:href="#DejaVuSans-51"/>
       <use x="63.623047" xlink:href="#DejaVuSans-95"/>
       <use x="113.623047" xlink:href="#DejaVuSans-109"/>
       <use x="211.035156" xlink:href="#DejaVuSans-97"/>
       <use x="272.314453" xlink:href="#DejaVuSans-115"/>
       <use x="324.414062" xlink:href="#DejaVuSans-107"/>
       <use x="382.324219" xlink:href="#DejaVuSans-95"/>
       <use x="432.324219" xlink:href="#DejaVuSans-102"/>
       <use x="467.529297" xlink:href="#DejaVuSans-97"/>
       <use x="528.808594" xlink:href="#DejaVuSans-99"/>
       <use x="583.789062" xlink:href="#DejaVuSans-101"/>
       <use x="645.3125" xlink:href="#DejaVuSans-95"/>
       <use x="695.3125" xlink:href="#DejaVuSans-112"/>
       <use x="758.789062" xlink:href="#DejaVuSans-114"/>
       <use x="799.871094" xlink:href="#DejaVuSans-111"/>
       <use x="861.052734" xlink:href="#DejaVuSans-116"/>
       <use x="900.261719" xlink:href="#DejaVuSans-101"/>
       <use x="961.785156" xlink:href="#DejaVuSans-99"/>
       <use x="1016.765625" xlink:href="#DejaVuSans-116"/>
       <use x="1055.974609" xlink:href="#DejaVuSans-95"/>
       <use x="1105.974609" xlink:href="#DejaVuSans-118"/>
       <use x="1165.154297" xlink:href="#DejaVuSans-105"/>
       <use x="1192.9375" xlink:href="#DejaVuSans-115"/>
       <use x="1245.037109" xlink:href="#DejaVuSans-111"/>
       <use x="1306.21875" xlink:href="#DejaVuSans-114"/>
      </g>
     </g>
    </g>
    <g id="xtick_5">
     <g id="line2d_5">
      <g>
       <use style="stroke:#000000;stroke-width:0.8;" x="205.262375" xlink:href="#mef85e0179b" y="204.79"/>
      </g>
     </g>
     <g id="text_5">
      <!-- 4_vaccin_antigen_immun_antibodi -->
      <defs>
       <path d="M 37.796875 64.3125 
L 12.890625 25.390625 
L 37.796875 25.390625 
z
M 35.203125 72.90625 
L 47.609375 72.90625 
L 47.609375 25.390625 
L 58.015625 25.390625 
L 58.015625 17.1875 
L 47.609375 17.1875 
L 47.609375 0 
L 37.796875 0 
L 37.796875 17.1875 
L 4.890625 17.1875 
L 4.890625 26.703125 
z
" id="DejaVuSans-52"/>
       <path d="M 48.6875 27.296875 
Q 48.6875 37.203125 44.609375 42.84375 
Q 40.53125 48.484375 33.40625 48.484375 
Q 26.265625 48.484375 22.1875 42.84375 
Q 18.109375 37.203125 18.109375 27.296875 
Q 18.109375 17.390625 22.1875 11.75 
Q 26.265625 6.109375 33.40625 6.109375 
Q 40.53125 6.109375 44.609375 11.75 
Q 48.6875 17.390625 48.6875 27.296875 
z
M 18.109375 46.390625 
Q 20.953125 51.265625 25.265625 53.625 
Q 29.59375 56 35.59375 56 
Q 45.5625 56 51.78125 48.09375 
Q 58.015625 40.1875 58.015625 27.296875 
Q 58.015625 14.40625 51.78125 6.484375 
Q 45.5625 -1.421875 35.59375 -1.421875 
Q 29.59375 -1.421875 25.265625 0.953125 
Q 20.953125 3.328125 18.109375 8.203125 
L 18.109375 0 
L 9.078125 0 
L 9.078125 75.984375 
L 18.109375 75.984375 
z
" id="DejaVuSans-98"/>
      </defs>
      <g transform="translate(208.40675 418.450625)rotate(-90)scale(0.12 -0.12)">
       <use xlink:href="#DejaVuSans-52"/>
       <use x="63.623047" xlink:href="#DejaVuSans-95"/>
       <use x="113.623047" xlink:href="#DejaVuSans-118"/>
       <use x="172.802734" xlink:href="#DejaVuSans-97"/>
       <use x="234.082031" xlink:href="#DejaVuSans-99"/>
       <use x="289.0625" xlink:href="#DejaVuSans-99"/>
       <use x="344.042969" xlink:href="#DejaVuSans-105"/>
       <use x="371.826172" xlink:href="#DejaVuSans-110"/>
       <use x="435.205078" xlink:href="#DejaVuSans-95"/>
       <use x="485.205078" xlink:href="#DejaVuSans-97"/>
       <use x="546.484375" xlink:href="#DejaVuSans-110"/>
       <use x="609.863281" xlink:href="#DejaVuSans-116"/>
       <use x="649.072266" xlink:href="#DejaVuSans-105"/>
       <use x="676.855469" xlink:href="#DejaVuSans-103"/>
       <use x="740.332031" xlink:href="#DejaVuSans-101"/>
       <use x="801.855469" xlink:href="#DejaVuSans-110"/>
       <use x="865.234375" xlink:href="#DejaVuSans-95"/>
       <use x="915.234375" xlink:href="#DejaVuSans-105"/>
       <use x="943.017578" xlink:href="#DejaVuSans-109"/>
       <use x="1040.429688" xlink:href="#DejaVuSans-109"/>
       <use x="1137.841797" xlink:href="#DejaVuSans-117"/>
       <use x="1201.220703" xlink:href="#DejaVuSans-110"/>
       <use x="1264.599609" xlink:href="#DejaVuSans-95"/>
       <use x="1314.599609" xlink:href="#DejaVuSans-97"/>
       <use x="1375.878906" xlink:href="#DejaVuSans-110"/>
       <use x="1439.257812" xlink:href="#DejaVuSans-116"/>
       <use x="1478.466797" xlink:href="#DejaVuSans-105"/>
       <use x="1506.25" xlink:href="#DejaVuSans-98"/>
       <use x="1569.726562" xlink:href="#DejaVuSans-111"/>
       <use x="1630.908203" xlink:href="#DejaVuSans-100"/>
       <use x="1694.384766" xlink:href="#DejaVuSans-105"/>
      </g>
     </g>
    </g>
    <g id="xtick_6">
     <g id="line2d_6">
      <g>
       <use style="stroke:#000000;stroke-width:0.8;" x="237.635125" xlink:href="#mef85e0179b" y="204.79"/>
      </g>
     </g>
     <g id="text_6">
      <!-- 5_outbreak_infecti_transmiss_epidem -->
      <defs>
       <path d="M 10.796875 72.90625 
L 49.515625 72.90625 
L 49.515625 64.59375 
L 19.828125 64.59375 
L 19.828125 46.734375 
Q 21.96875 47.46875 24.109375 47.828125 
Q 26.265625 48.1875 28.421875 48.1875 
Q 40.625 48.1875 47.75 41.5 
Q 54.890625 34.8125 54.890625 23.390625 
Q 54.890625 11.625 47.5625 5.09375 
Q 40.234375 -1.421875 26.90625 -1.421875 
Q 22.3125 -1.421875 17.546875 -0.640625 
Q 12.796875 0.140625 7.71875 1.703125 
L 7.71875 11.625 
Q 12.109375 9.234375 16.796875 8.0625 
Q 21.484375 6.890625 26.703125 6.890625 
Q 35.15625 6.890625 40.078125 11.328125 
Q 45.015625 15.765625 45.015625 23.390625 
Q 45.015625 31 40.078125 35.4375 
Q 35.15625 39.890625 26.703125 39.890625 
Q 22.75 39.890625 18.8125 39.015625 
Q 14.890625 38.140625 10.796875 36.28125 
z
" id="DejaVuSans-53"/>
      </defs>
      <g transform="translate(240.7795 437.8925)rotate(-90)scale(0.12 -0.12)">
       <use xlink:href="#DejaVuSans-53"/>
       <use x="63.623047" xlink:href="#DejaVuSans-95"/>
       <use x="113.623047" xlink:href="#DejaVuSans-111"/>
       <use x="174.804688" xlink:href="#DejaVuSans-117"/>
       <use x="238.183594" xlink:href="#DejaVuSans-116"/>
       <use x="277.392578" xlink:href="#DejaVuSans-98"/>
       <use x="340.869141" xlink:href="#DejaVuSans-114"/>
       <use x="381.951172" xlink:href="#DejaVuSans-101"/>
       <use x="443.474609" xlink:href="#DejaVuSans-97"/>
       <use x="504.753906" xlink:href="#DejaVuSans-107"/>
       <use x="562.664062" xlink:href="#DejaVuSans-95"/>
       <use x="612.664062" xlink:href="#DejaVuSans-105"/>
       <use x="640.447266" xlink:href="#DejaVuSans-110"/>
       <use x="703.826172" xlink:href="#DejaVuSans-102"/>
       <use x="739.03125" xlink:href="#DejaVuSans-101"/>
       <use x="800.554688" xlink:href="#DejaVuSans-99"/>
       <use x="855.535156" xlink:href="#DejaVuSans-116"/>
       <use x="894.744141" xlink:href="#DejaVuSans-105"/>
       <use x="922.527344" xlink:href="#DejaVuSans-95"/>
       <use x="972.527344" xlink:href="#DejaVuSans-116"/>
       <use x="1011.736328" xlink:href="#DejaVuSans-114"/>
       <use x="1052.849609" xlink:href="#DejaVuSans-97"/>
       <use x="1114.128906" xlink:href="#DejaVuSans-110"/>
       <use x="1177.507812" xlink:href="#DejaVuSans-115"/>
       <use x="1229.607422" xlink:href="#DejaVuSans-109"/>
       <use x="1327.019531" xlink:href="#DejaVuSans-105"/>
       <use x="1354.802734" xlink:href="#DejaVuSans-115"/>
       <use x="1406.902344" xlink:href="#DejaVuSans-115"/>
       <use x="1459.001953" xlink:href="#DejaVuSans-95"/>
       <use x="1509.001953" xlink:href="#DejaVuSans-101"/>
       <use x="1570.525391" xlink:href="#DejaVuSans-112"/>
       <use x="1634.001953" xlink:href="#DejaVuSans-105"/>
       <use x="1661.785156" xlink:href="#DejaVuSans-100"/>
       <use x="1725.261719" xlink:href="#DejaVuSans-101"/>
       <use x="1786.785156" xlink:href="#DejaVuSans-109"/>
      </g>
     </g>
    </g>
    <g id="xtick_7">
     <g id="line2d_7">
      <g>
       <use style="stroke:#000000;stroke-width:0.8;" x="270.007875" xlink:href="#mef85e0179b" y="204.79"/>
      </g>
     </g>
     <g id="text_7">
      <!-- 6_student_teach_teacher_learn -->
      <defs>
       <path d="M 33.015625 40.375 
Q 26.375 40.375 22.484375 35.828125 
Q 18.609375 31.296875 18.609375 23.390625 
Q 18.609375 15.53125 22.484375 10.953125 
Q 26.375 6.390625 33.015625 6.390625 
Q 39.65625 6.390625 43.53125 10.953125 
Q 47.40625 15.53125 47.40625 23.390625 
Q 47.40625 31.296875 43.53125 35.828125 
Q 39.65625 40.375 33.015625 40.375 
z
M 52.59375 71.296875 
L 52.59375 62.3125 
Q 48.875 64.0625 45.09375 64.984375 
Q 41.3125 65.921875 37.59375 65.921875 
Q 27.828125 65.921875 22.671875 59.328125 
Q 17.53125 52.734375 16.796875 39.40625 
Q 19.671875 43.65625 24.015625 45.921875 
Q 28.375 48.1875 33.59375 48.1875 
Q 44.578125 48.1875 50.953125 41.515625 
Q 57.328125 34.859375 57.328125 23.390625 
Q 57.328125 12.15625 50.6875 5.359375 
Q 44.046875 -1.421875 33.015625 -1.421875 
Q 20.359375 -1.421875 13.671875 8.265625 
Q 6.984375 17.96875 6.984375 36.375 
Q 6.984375 53.65625 15.1875 63.9375 
Q 23.390625 74.21875 37.203125 74.21875 
Q 40.921875 74.21875 44.703125 73.484375 
Q 48.484375 72.75 52.59375 71.296875 
z
" id="DejaVuSans-54"/>
      </defs>
      <g transform="translate(273.15225 399.51125)rotate(-90)scale(0.12 -0.12)">
       <use xlink:href="#DejaVuSans-54"/>
       <use x="63.623047" xlink:href="#DejaVuSans-95"/>
       <use x="113.623047" xlink:href="#DejaVuSans-115"/>
       <use x="165.722656" xlink:href="#DejaVuSans-116"/>
       <use x="204.931641" xlink:href="#DejaVuSans-117"/>
       <use x="268.310547" xlink:href="#DejaVuSans-100"/>
       <use x="331.787109" xlink:href="#DejaVuSans-101"/>
       <use x="393.310547" xlink:href="#DejaVuSans-110"/>
       <use x="456.689453" xlink:href="#DejaVuSans-116"/>
       <use x="495.898438" xlink:href="#DejaVuSans-95"/>
       <use x="545.898438" xlink:href="#DejaVuSans-116"/>
       <use x="585.107422" xlink:href="#DejaVuSans-101"/>
       <use x="646.630859" xlink:href="#DejaVuSans-97"/>
       <use x="707.910156" xlink:href="#DejaVuSans-99"/>
       <use x="762.890625" xlink:href="#DejaVuSans-104"/>
       <use x="826.269531" xlink:href="#DejaVuSans-95"/>
       <use x="876.269531" xlink:href="#DejaVuSans-116"/>
       <use x="915.478516" xlink:href="#DejaVuSans-101"/>
       <use x="977.001953" xlink:href="#DejaVuSans-97"/>
       <use x="1038.28125" xlink:href="#DejaVuSans-99"/>
       <use x="1093.261719" xlink:href="#DejaVuSans-104"/>
       <use x="1156.640625" xlink:href="#DejaVuSans-101"/>
       <use x="1218.164062" xlink:href="#DejaVuSans-114"/>
       <use x="1259.277344" xlink:href="#DejaVuSans-95"/>
       <use x="1309.277344" xlink:href="#DejaVuSans-108"/>
       <use x="1337.060547" xlink:href="#DejaVuSans-101"/>
       <use x="1398.583984" xlink:href="#DejaVuSans-97"/>
       <use x="1459.863281" xlink:href="#DejaVuSans-114"/>
       <use x="1500.960938" xlink:href="#DejaVuSans-110"/>
      </g>
     </g>
    </g>
    <g id="xtick_8">
     <g id="line2d_8">
      <g>
       <use style="stroke:#000000;stroke-width:0.8;" x="302.380625" xlink:href="#mef85e0179b" y="204.79"/>
      </g>
     </g>
     <g id="text_8">
      <!-- 7_food_fish_retail_restaur -->
      <defs>
       <path d="M 8.203125 72.90625 
L 55.078125 72.90625 
L 55.078125 68.703125 
L 28.609375 0 
L 18.3125 0 
L 43.21875 64.59375 
L 8.203125 64.59375 
z
" id="DejaVuSans-55"/>
      </defs>
      <g transform="translate(305.525 365.56625)rotate(-90)scale(0.12 -0.12)">
       <use xlink:href="#DejaVuSans-55"/>
       <use x="63.623047" xlink:href="#DejaVuSans-95"/>
       <use x="113.623047" xlink:href="#DejaVuSans-102"/>
       <use x="148.828125" xlink:href="#DejaVuSans-111"/>
       <use x="210.009766" xlink:href="#DejaVuSans-111"/>
       <use x="271.191406" xlink:href="#DejaVuSans-100"/>
       <use x="334.667969" xlink:href="#DejaVuSans-95"/>
       <use x="384.667969" xlink:href="#DejaVuSans-102"/>
       <use x="419.873047" xlink:href="#DejaVuSans-105"/>
       <use x="447.65625" xlink:href="#DejaVuSans-115"/>
       <use x="499.755859" xlink:href="#DejaVuSans-104"/>
       <use x="563.134766" xlink:href="#DejaVuSans-95"/>
       <use x="613.134766" xlink:href="#DejaVuSans-114"/>
       <use x="654.216797" xlink:href="#DejaVuSans-101"/>
       <use x="715.740234" xlink:href="#DejaVuSans-116"/>
       <use x="754.949219" xlink:href="#DejaVuSans-97"/>
       <use x="816.228516" xlink:href="#DejaVuSans-105"/>
       <use x="844.011719" xlink:href="#DejaVuSans-108"/>
       <use x="871.794922" xlink:href="#DejaVuSans-95"/>
       <use x="921.794922" xlink:href="#DejaVuSans-114"/>
       <use x="962.876953" xlink:href="#DejaVuSans-101"/>
       <use x="1024.400391" xlink:href="#DejaVuSans-115"/>
       <use x="1076.5" xlink:href="#DejaVuSans-116"/>
       <use x="1115.708984" xlink:href="#DejaVuSans-97"/>
       <use x="1176.988281" xlink:href="#DejaVuSans-117"/>
       <use x="1240.367188" xlink:href="#DejaVuSans-114"/>
      </g>
     </g>
    </g>
    <g id="xtick_9">
     <g id="line2d_9">
      <g>
       <use style="stroke:#000000;stroke-width:0.8;" x="334.753375" xlink:href="#mef85e0179b" y="204.79"/>
      </g>
     </g>
     <g id="text_9">
      <!-- 8_hiv_alcohol_plhiv_smoke -->
      <defs>
       <path d="M 31.78125 34.625 
Q 24.75 34.625 20.71875 30.859375 
Q 16.703125 27.09375 16.703125 20.515625 
Q 16.703125 13.921875 20.71875 10.15625 
Q 24.75 6.390625 31.78125 6.390625 
Q 38.8125 6.390625 42.859375 10.171875 
Q 46.921875 13.96875 46.921875 20.515625 
Q 46.921875 27.09375 42.890625 30.859375 
Q 38.875 34.625 31.78125 34.625 
z
M 21.921875 38.8125 
Q 15.578125 40.375 12.03125 44.71875 
Q 8.5 49.078125 8.5 55.328125 
Q 8.5 64.0625 14.71875 69.140625 
Q 20.953125 74.21875 31.78125 74.21875 
Q 42.671875 74.21875 48.875 69.140625 
Q 55.078125 64.0625 55.078125 55.328125 
Q 55.078125 49.078125 51.53125 44.71875 
Q 48 40.375 41.703125 38.8125 
Q 48.828125 37.15625 52.796875 32.3125 
Q 56.78125 27.484375 56.78125 20.515625 
Q 56.78125 9.90625 50.3125 4.234375 
Q 43.84375 -1.421875 31.78125 -1.421875 
Q 19.734375 -1.421875 13.25 4.234375 
Q 6.78125 9.90625 6.78125 20.515625 
Q 6.78125 27.484375 10.78125 32.3125 
Q 14.796875 37.15625 21.921875 38.8125 
z
M 18.3125 54.390625 
Q 18.3125 48.734375 21.84375 45.5625 
Q 25.390625 42.390625 31.78125 42.390625 
Q 38.140625 42.390625 41.71875 45.5625 
Q 45.3125 48.734375 45.3125 54.390625 
Q 45.3125 60.0625 41.71875 63.234375 
Q 38.140625 66.40625 31.78125 66.40625 
Q 25.390625 66.40625 21.84375 63.234375 
Q 18.3125 60.0625 18.3125 54.390625 
z
" id="DejaVuSans-56"/>
      </defs>
      <g transform="translate(337.89775 372.978125)rotate(-90)scale(0.12 -0.12)">
       <use xlink:href="#DejaVuSans-56"/>
       <use x="63.623047" xlink:href="#DejaVuSans-95"/>
       <use x="113.623047" xlink:href="#DejaVuSans-104"/>
       <use x="177.001953" xlink:href="#DejaVuSans-105"/>
       <use x="204.785156" xlink:href="#DejaVuSans-118"/>
       <use x="263.964844" xlink:href="#DejaVuSans-95"/>
       <use x="313.964844" xlink:href="#DejaVuSans-97"/>
       <use x="375.244141" xlink:href="#DejaVuSans-108"/>
       <use x="403.027344" xlink:href="#DejaVuSans-99"/>
       <use x="458.007812" xlink:href="#DejaVuSans-111"/>
       <use x="519.189453" xlink:href="#DejaVuSans-104"/>
       <use x="582.568359" xlink:href="#DejaVuSans-111"/>
       <use x="643.75" xlink:href="#DejaVuSans-108"/>
       <use x="671.533203" xlink:href="#DejaVuSans-95"/>
       <use x="721.533203" xlink:href="#DejaVuSans-112"/>
       <use x="785.009766" xlink:href="#DejaVuSans-108"/>
       <use x="812.792969" xlink:href="#DejaVuSans-104"/>
       <use x="876.171875" xlink:href="#DejaVuSans-105"/>
       <use x="903.955078" xlink:href="#DejaVuSans-118"/>
       <use x="963.134766" xlink:href="#DejaVuSans-95"/>
       <use x="1013.134766" xlink:href="#DejaVuSans-115"/>
       <use x="1065.234375" xlink:href="#DejaVuSans-109"/>
       <use x="1162.646484" xlink:href="#DejaVuSans-111"/>
       <use x="1223.828125" xlink:href="#DejaVuSans-107"/>
       <use x="1281.691406" xlink:href="#DejaVuSans-101"/>
      </g>
     </g>
    </g>
    <g id="xtick_10">
     <g id="line2d_10">
      <g>
       <use style="stroke:#000000;stroke-width:0.8;" x="367.126125" xlink:href="#mef85e0179b" y="204.79"/>
      </g>
     </g>
     <g id="text_10">
      <!-- 10_que_como_se_de -->
      <defs>
       <path d="M 14.796875 27.296875 
Q 14.796875 17.390625 18.875 11.75 
Q 22.953125 6.109375 30.078125 6.109375 
Q 37.203125 6.109375 41.296875 11.75 
Q 45.40625 17.390625 45.40625 27.296875 
Q 45.40625 37.203125 41.296875 42.84375 
Q 37.203125 48.484375 30.078125 48.484375 
Q 22.953125 48.484375 18.875 42.84375 
Q 14.796875 37.203125 14.796875 27.296875 
z
M 45.40625 8.203125 
Q 42.578125 3.328125 38.25 0.953125 
Q 33.9375 -1.421875 27.875 -1.421875 
Q 17.96875 -1.421875 11.734375 6.484375 
Q 5.515625 14.40625 5.515625 27.296875 
Q 5.515625 40.1875 11.734375 48.09375 
Q 17.96875 56 27.875 56 
Q 33.9375 56 38.25 53.625 
Q 42.578125 51.265625 45.40625 46.390625 
L 45.40625 54.6875 
L 54.390625 54.6875 
L 54.390625 -20.796875 
L 45.40625 -20.796875 
z
" id="DejaVuSans-113"/>
      </defs>
      <g transform="translate(370.2705 335.275625)rotate(-90)scale(0.12 -0.12)">
       <use xlink:href="#DejaVuSans-49"/>
       <use x="63.623047" xlink:href="#DejaVuSans-48"/>
       <use x="127.246094" xlink:href="#DejaVuSans-95"/>
       <use x="177.246094" xlink:href="#DejaVuSans-113"/>
       <use x="240.722656" xlink:href="#DejaVuSans-117"/>
       <use x="304.101562" xlink:href="#DejaVuSans-101"/>
       <use x="365.625" xlink:href="#DejaVuSans-95"/>
       <use x="415.625" xlink:href="#DejaVuSans-99"/>
       <use x="470.605469" xlink:href="#DejaVuSans-111"/>
       <use x="531.787109" xlink:href="#DejaVuSans-109"/>
       <use x="629.199219" xlink:href="#DejaVuSans-111"/>
       <use x="690.380859" xlink:href="#DejaVuSans-95"/>
       <use x="740.380859" xlink:href="#DejaVuSans-115"/>
       <use x="792.480469" xlink:href="#DejaVuSans-101"/>
       <use x="854.003906" xlink:href="#DejaVuSans-95"/>
       <use x="904.003906" xlink:href="#DejaVuSans-100"/>
       <use x="967.480469" xlink:href="#DejaVuSans-101"/>
      </g>
     </g>
    </g>
    <g id="xtick_11">
     <g id="line2d_11">
      <g>
       <use style="stroke:#000000;stroke-width:0.8;" x="399.498875" xlink:href="#mef85e0179b" y="204.79"/>
      </g>
     </g>
     <g id="text_11">
      <!-- 9_spread_predict_mathemat_forecast -->
      <defs>
       <path d="M 10.984375 1.515625 
L 10.984375 10.5 
Q 14.703125 8.734375 18.5 7.8125 
Q 22.3125 6.890625 25.984375 6.890625 
Q 35.75 6.890625 40.890625 13.453125 
Q 46.046875 20.015625 46.78125 33.40625 
Q 43.953125 29.203125 39.59375 26.953125 
Q 35.25 24.703125 29.984375 24.703125 
Q 19.046875 24.703125 12.671875 31.3125 
Q 6.296875 37.9375 6.296875 49.421875 
Q 6.296875 60.640625 12.9375 67.421875 
Q 19.578125 74.21875 30.609375 74.21875 
Q 43.265625 74.21875 49.921875 64.515625 
Q 56.59375 54.828125 56.59375 36.375 
Q 56.59375 19.140625 48.40625 8.859375 
Q 40.234375 -1.421875 26.421875 -1.421875 
Q 22.703125 -1.421875 18.890625 -0.6875 
Q 15.09375 0.046875 10.984375 1.515625 
z
M 30.609375 32.421875 
Q 37.25 32.421875 41.125 36.953125 
Q 45.015625 41.5 45.015625 49.421875 
Q 45.015625 57.28125 41.125 61.84375 
Q 37.25 66.40625 30.609375 66.40625 
Q 23.96875 66.40625 20.09375 61.84375 
Q 16.21875 57.28125 16.21875 49.421875 
Q 16.21875 41.5 20.09375 36.953125 
Q 23.96875 32.421875 30.609375 32.421875 
z
" id="DejaVuSans-57"/>
      </defs>
      <g transform="translate(402.64325 438.035)rotate(-90)scale(0.12 -0.12)">
       <use xlink:href="#DejaVuSans-57"/>
       <use x="63.623047" xlink:href="#DejaVuSans-95"/>
       <use x="113.623047" xlink:href="#DejaVuSans-115"/>
       <use x="165.722656" xlink:href="#DejaVuSans-112"/>
       <use x="229.199219" xlink:href="#DejaVuSans-114"/>
       <use x="270.28125" xlink:href="#DejaVuSans-101"/>
       <use x="331.804688" xlink:href="#DejaVuSans-97"/>
       <use x="393.083984" xlink:href="#DejaVuSans-100"/>
       <use x="456.560547" xlink:href="#DejaVuSans-95"/>
       <use x="506.560547" xlink:href="#DejaVuSans-112"/>
       <use x="570.037109" xlink:href="#DejaVuSans-114"/>
       <use x="611.119141" xlink:href="#DejaVuSans-101"/>
       <use x="672.642578" xlink:href="#DejaVuSans-100"/>
       <use x="736.119141" xlink:href="#DejaVuSans-105"/>
       <use x="763.902344" xlink:href="#DejaVuSans-99"/>
       <use x="818.882812" xlink:href="#DejaVuSans-116"/>
       <use x="858.091797" xlink:href="#DejaVuSans-95"/>
       <use x="908.091797" xlink:href="#DejaVuSans-109"/>
       <use x="1005.503906" xlink:href="#DejaVuSans-97"/>
       <use x="1066.783203" xlink:href="#DejaVuSans-116"/>
       <use x="1105.992188" xlink:href="#DejaVuSans-104"/>
       <use x="1169.371094" xlink:href="#DejaVuSans-101"/>
       <use x="1230.894531" xlink:href="#DejaVuSans-109"/>
       <use x="1328.306641" xlink:href="#DejaVuSans-97"/>
       <use x="1389.585938" xlink:href="#DejaVuSans-116"/>
       <use x="1428.794922" xlink:href="#DejaVuSans-95"/>
       <use x="1478.794922" xlink:href="#DejaVuSans-102"/>
       <use x="1514" xlink:href="#DejaVuSans-111"/>
       <use x="1575.181641" xlink:href="#DejaVuSans-114"/>
       <use x="1616.263672" xlink:href="#DejaVuSans-101"/>
       <use x="1677.787109" xlink:href="#DejaVuSans-99"/>
       <use x="1732.767578" xlink:href="#DejaVuSans-97"/>
       <use x="1794.046875" xlink:href="#DejaVuSans-115"/>
       <use x="1846.146484" xlink:href="#DejaVuSans-116"/>
      </g>
     </g>
    </g>
    <g id="xtick_12">
     <g id="line2d_12">
      <g>
       <use style="stroke:#000000;stroke-width:0.8;" x="431.871625" xlink:href="#mef85e0179b" y="204.79"/>
      </g>
     </g>
     <g id="text_12">
      <!-- 11_media_misinform_news_messag -->
      <defs>
       <path d="M 4.203125 54.6875 
L 13.1875 54.6875 
L 24.421875 12.015625 
L 35.59375 54.6875 
L 46.1875 54.6875 
L 57.421875 12.015625 
L 68.609375 54.6875 
L 77.59375 54.6875 
L 63.28125 0 
L 52.6875 0 
L 40.921875 44.828125 
L 29.109375 0 
L 18.5 0 
z
" id="DejaVuSans-119"/>
      </defs>
      <g transform="translate(435.016 426.438125)rotate(-90)scale(0.12 -0.12)">
       <use xlink:href="#DejaVuSans-49"/>
       <use x="63.623047" xlink:href="#DejaVuSans-49"/>
       <use x="127.246094" xlink:href="#DejaVuSans-95"/>
       <use x="177.246094" xlink:href="#DejaVuSans-109"/>
       <use x="274.658203" xlink:href="#DejaVuSans-101"/>
       <use x="336.181641" xlink:href="#DejaVuSans-100"/>
       <use x="399.658203" xlink:href="#DejaVuSans-105"/>
       <use x="427.441406" xlink:href="#DejaVuSans-97"/>
       <use x="488.720703" xlink:href="#DejaVuSans-95"/>
       <use x="538.720703" xlink:href="#DejaVuSans-109"/>
       <use x="636.132812" xlink:href="#DejaVuSans-105"/>
       <use x="663.916016" xlink:href="#DejaVuSans-115"/>
       <use x="716.015625" xlink:href="#DejaVuSans-105"/>
       <use x="743.798828" xlink:href="#DejaVuSans-110"/>
       <use x="807.177734" xlink:href="#DejaVuSans-102"/>
       <use x="842.382812" xlink:href="#DejaVuSans-111"/>
       <use x="903.564453" xlink:href="#DejaVuSans-114"/>
       <use x="944.662109" xlink:href="#DejaVuSans-109"/>
       <use x="1042.074219" xlink:href="#DejaVuSans-95"/>
       <use x="1092.074219" xlink:href="#DejaVuSans-110"/>
       <use x="1155.453125" xlink:href="#DejaVuSans-101"/>
       <use x="1216.976562" xlink:href="#DejaVuSans-119"/>
       <use x="1298.763672" xlink:href="#DejaVuSans-115"/>
       <use x="1350.863281" xlink:href="#DejaVuSans-95"/>
       <use x="1400.863281" xlink:href="#DejaVuSans-109"/>
       <use x="1498.275391" xlink:href="#DejaVuSans-101"/>
       <use x="1559.798828" xlink:href="#DejaVuSans-115"/>
       <use x="1611.898438" xlink:href="#DejaVuSans-115"/>
       <use x="1663.998047" xlink:href="#DejaVuSans-97"/>
       <use x="1725.277344" xlink:href="#DejaVuSans-103"/>
      </g>
     </g>
    </g>
    <g id="xtick_13">
     <g id="line2d_13">
      <g>
       <use style="stroke:#000000;stroke-width:0.8;" x="464.244375" xlink:href="#mef85e0179b" y="204.79"/>
      </g>
     </g>
     <g id="text_13">
      <!-- 12_le_la_en_une -->
      <g transform="translate(467.38875 310.0475)rotate(-90)scale(0.12 -0.12)">
       <use xlink:href="#DejaVuSans-49"/>
       <use x="63.623047" xlink:href="#DejaVuSans-50"/>
       <use x="127.246094" xlink:href="#DejaVuSans-95"/>
       <use x="177.246094" xlink:href="#DejaVuSans-108"/>
       <use x="205.029297" xlink:href="#DejaVuSans-101"/>
       <use x="266.552734" xlink:href="#DejaVuSans-95"/>
       <use x="316.552734" xlink:href="#DejaVuSans-108"/>
       <use x="344.335938" xlink:href="#DejaVuSans-97"/>
       <use x="405.615234" xlink:href="#DejaVuSans-95"/>
       <use x="455.615234" xlink:href="#DejaVuSans-101"/>
       <use x="517.138672" xlink:href="#DejaVuSans-110"/>
       <use x="580.517578" xlink:href="#DejaVuSans-95"/>
       <use x="630.517578" xlink:href="#DejaVuSans-117"/>
       <use x="693.896484" xlink:href="#DejaVuSans-110"/>
       <use x="757.275391" xlink:href="#DejaVuSans-101"/>
      </g>
     </g>
    </g>
    <g id="xtick_14">
     <g id="line2d_14">
      <g>
       <use style="stroke:#000000;stroke-width:0.8;" x="496.617125" xlink:href="#mef85e0179b" y="204.79"/>
      </g>
     </g>
     <g id="text_14">
      <!-- 13_lung_ct_chest_ventil -->
      <g transform="translate(499.7615 354.53)rotate(-90)scale(0.12 -0.12)">
       <use xlink:href="#DejaVuSans-49"/>
       <use x="63.623047" xlink:href="#DejaVuSans-51"/>
       <use x="127.246094" xlink:href="#DejaVuSans-95"/>
       <use x="177.246094" xlink:href="#DejaVuSans-108"/>
       <use x="205.029297" xlink:href="#DejaVuSans-117"/>
       <use x="268.408203" xlink:href="#DejaVuSans-110"/>
       <use x="331.787109" xlink:href="#DejaVuSans-103"/>
       <use x="395.263672" xlink:href="#DejaVuSans-95"/>
       <use x="445.263672" xlink:href="#DejaVuSans-99"/>
       <use x="500.244141" xlink:href="#DejaVuSans-116"/>
       <use x="539.453125" xlink:href="#DejaVuSans-95"/>
       <use x="589.453125" xlink:href="#DejaVuSans-99"/>
       <use x="644.433594" xlink:href="#DejaVuSans-104"/>
       <use x="707.8125" xlink:href="#DejaVuSans-101"/>
       <use x="769.335938" xlink:href="#DejaVuSans-115"/>
       <use x="821.435547" xlink:href="#DejaVuSans-116"/>
       <use x="860.644531" xlink:href="#DejaVuSans-95"/>
       <use x="910.644531" xlink:href="#DejaVuSans-118"/>
       <use x="969.824219" xlink:href="#DejaVuSans-101"/>
       <use x="1031.347656" xlink:href="#DejaVuSans-110"/>
       <use x="1094.726562" xlink:href="#DejaVuSans-116"/>
       <use x="1133.935547" xlink:href="#DejaVuSans-105"/>
       <use x="1161.71875" xlink:href="#DejaVuSans-108"/>
      </g>
     </g>
    </g>
    <g id="xtick_15">
     <g id="line2d_15">
      <g>
       <use style="stroke:#000000;stroke-width:0.8;" x="528.989875" xlink:href="#mef85e0179b" y="204.79"/>
      </g>
     </g>
     <g id="text_15">
      <!-- 14_psycholog_biotechnolog_monitor_scienc -->
      <g transform="translate(532.13425 474.419375)rotate(-90)scale(0.12 -0.12)">
       <use xlink:href="#DejaVuSans-49"/>
       <use x="63.623047" xlink:href="#DejaVuSans-52"/>
       <use x="127.246094" xlink:href="#DejaVuSans-95"/>
       <use x="177.246094" xlink:href="#DejaVuSans-112"/>
       <use x="240.722656" xlink:href="#DejaVuSans-115"/>
       <use x="292.822266" xlink:href="#DejaVuSans-121"/>
       <use x="352.001953" xlink:href="#DejaVuSans-99"/>
       <use x="406.982422" xlink:href="#DejaVuSans-104"/>
       <use x="470.361328" xlink:href="#DejaVuSans-111"/>
       <use x="531.542969" xlink:href="#DejaVuSans-108"/>
       <use x="559.326172" xlink:href="#DejaVuSans-111"/>
       <use x="620.507812" xlink:href="#DejaVuSans-103"/>
       <use x="683.984375" xlink:href="#DejaVuSans-95"/>
       <use x="733.984375" xlink:href="#DejaVuSans-98"/>
       <use x="797.460938" xlink:href="#DejaVuSans-105"/>
       <use x="825.244141" xlink:href="#DejaVuSans-111"/>
       <use x="886.425781" xlink:href="#DejaVuSans-116"/>
       <use x="925.634766" xlink:href="#DejaVuSans-101"/>
       <use x="987.158203" xlink:href="#DejaVuSans-99"/>
       <use x="1042.138672" xlink:href="#DejaVuSans-104"/>
       <use x="1105.517578" xlink:href="#DejaVuSans-110"/>
       <use x="1168.896484" xlink:href="#DejaVuSans-111"/>
       <use x="1230.078125" xlink:href="#DejaVuSans-108"/>
       <use x="1257.861328" xlink:href="#DejaVuSans-111"/>
       <use x="1319.042969" xlink:href="#DejaVuSans-103"/>
       <use x="1382.519531" xlink:href="#DejaVuSans-95"/>
       <use x="1432.519531" xlink:href="#DejaVuSans-109"/>
       <use x="1529.931641" xlink:href="#DejaVuSans-111"/>
       <use x="1591.113281" xlink:href="#DejaVuSans-110"/>
       <use x="1654.492188" xlink:href="#DejaVuSans-105"/>
       <use x="1682.275391" xlink:href="#DejaVuSans-116"/>
       <use x="1721.484375" xlink:href="#DejaVuSans-111"/>
       <use x="1782.666016" xlink:href="#DejaVuSans-114"/>
       <use x="1823.779297" xlink:href="#DejaVuSans-95"/>
       <use x="1873.779297" xlink:href="#DejaVuSans-115"/>
       <use x="1925.878906" xlink:href="#DejaVuSans-99"/>
       <use x="1980.859375" xlink:href="#DejaVuSans-105"/>
       <use x="2008.642578" xlink:href="#DejaVuSans-101"/>
       <use x="2070.166016" xlink:href="#DejaVuSans-110"/>
       <use x="2133.544922" xlink:href="#DejaVuSans-99"/>
      </g>
     </g>
    </g>
    <g id="xtick_16">
     <g id="line2d_16">
      <g>
       <use style="stroke:#000000;stroke-width:0.8;" x="561.362625" xlink:href="#mef85e0179b" y="204.79"/>
      </g>
     </g>
     <g id="text_16">
      <!-- 15_ltc_caregiv_care_telemedicin -->
      <g transform="translate(564.507 406.6475)rotate(-90)scale(0.12 -0.12)">
       <use xlink:href="#DejaVuSans-49"/>
       <use x="63.623047" xlink:href="#DejaVuSans-53"/>
       <use x="127.246094" xlink:href="#DejaVuSans-95"/>
       <use x="177.246094" xlink:href="#DejaVuSans-108"/>
       <use x="205.029297" xlink:href="#DejaVuSans-116"/>
       <use x="244.238281" xlink:href="#DejaVuSans-99"/>
       <use x="299.21875" xlink:href="#DejaVuSans-95"/>
       <use x="349.21875" xlink:href="#DejaVuSans-99"/>
       <use x="404.199219" xlink:href="#DejaVuSans-97"/>
       <use x="465.478516" xlink:href="#DejaVuSans-114"/>
       <use x="506.560547" xlink:href="#DejaVuSans-101"/>
       <use x="568.083984" xlink:href="#DejaVuSans-103"/>
       <use x="631.560547" xlink:href="#DejaVuSans-105"/>
       <use x="659.34375" xlink:href="#DejaVuSans-118"/>
       <use x="718.523438" xlink:href="#DejaVuSans-95"/>
       <use x="768.523438" xlink:href="#DejaVuSans-99"/>
       <use x="823.503906" xlink:href="#DejaVuSans-97"/>
       <use x="884.783203" xlink:href="#DejaVuSans-114"/>
       <use x="925.865234" xlink:href="#DejaVuSans-101"/>
       <use x="987.388672" xlink:href="#DejaVuSans-95"/>
       <use x="1037.388672" xlink:href="#DejaVuSans-116"/>
       <use x="1076.597656" xlink:href="#DejaVuSans-101"/>
       <use x="1138.121094" xlink:href="#DejaVuSans-108"/>
       <use x="1165.904297" xlink:href="#DejaVuSans-101"/>
       <use x="1227.427734" xlink:href="#DejaVuSans-109"/>
       <use x="1324.839844" xlink:href="#DejaVuSans-101"/>
       <use x="1386.363281" xlink:href="#DejaVuSans-100"/>
       <use x="1449.839844" xlink:href="#DejaVuSans-105"/>
       <use x="1477.623047" xlink:href="#DejaVuSans-99"/>
       <use x="1532.603516" xlink:href="#DejaVuSans-105"/>
       <use x="1560.386719" xlink:href="#DejaVuSans-110"/>
      </g>
     </g>
    </g>
    <g id="xtick_17">
     <g id="line2d_17">
      <g>
       <use style="stroke:#000000;stroke-width:0.8;" x="593.735375" xlink:href="#mef85e0179b" y="204.79"/>
      </g>
     </g>
     <g id="text_17">
      <!-- 17_employe_job_employ_worker -->
      <defs>
       <path d="M 9.421875 54.6875 
L 18.40625 54.6875 
L 18.40625 -0.984375 
Q 18.40625 -11.421875 14.421875 -16.109375 
Q 10.453125 -20.796875 1.609375 -20.796875 
L -1.8125 -20.796875 
L -1.8125 -13.1875 
L 0.59375 -13.1875 
Q 5.71875 -13.1875 7.5625 -10.8125 
Q 9.421875 -8.453125 9.421875 -0.984375 
z
M 9.421875 75.984375 
L 18.40625 75.984375 
L 18.40625 64.59375 
L 9.421875 64.59375 
z
" id="DejaVuSans-106"/>
      </defs>
      <g transform="translate(596.87975 407.02625)rotate(-90)scale(0.12 -0.12)">
       <use xlink:href="#DejaVuSans-49"/>
       <use x="63.623047" xlink:href="#DejaVuSans-55"/>
       <use x="127.246094" xlink:href="#DejaVuSans-95"/>
       <use x="177.246094" xlink:href="#DejaVuSans-101"/>
       <use x="238.769531" xlink:href="#DejaVuSans-109"/>
       <use x="336.181641" xlink:href="#DejaVuSans-112"/>
       <use x="399.658203" xlink:href="#DejaVuSans-108"/>
       <use x="427.441406" xlink:href="#DejaVuSans-111"/>
       <use x="488.623047" xlink:href="#DejaVuSans-121"/>
       <use x="547.802734" xlink:href="#DejaVuSans-101"/>
       <use x="609.326172" xlink:href="#DejaVuSans-95"/>
       <use x="659.326172" xlink:href="#DejaVuSans-106"/>
       <use x="687.109375" xlink:href="#DejaVuSans-111"/>
       <use x="748.291016" xlink:href="#DejaVuSans-98"/>
       <use x="811.767578" xlink:href="#DejaVuSans-95"/>
       <use x="861.767578" xlink:href="#DejaVuSans-101"/>
       <use x="923.291016" xlink:href="#DejaVuSans-109"/>
       <use x="1020.703125" xlink:href="#DejaVuSans-112"/>
       <use x="1084.179688" xlink:href="#DejaVuSans-108"/>
       <use x="1111.962891" xlink:href="#DejaVuSans-111"/>
       <use x="1173.144531" xlink:href="#DejaVuSans-121"/>
       <use x="1232.324219" xlink:href="#DejaVuSans-95"/>
       <use x="1282.324219" xlink:href="#DejaVuSans-119"/>
       <use x="1364.111328" xlink:href="#DejaVuSans-111"/>
       <use x="1425.292969" xlink:href="#DejaVuSans-114"/>
       <use x="1466.40625" xlink:href="#DejaVuSans-107"/>
       <use x="1524.269531" xlink:href="#DejaVuSans-101"/>
       <use x="1585.792969" xlink:href="#DejaVuSans-114"/>
      </g>
     </g>
    </g>
    <g id="xtick_18">
     <g id="line2d_18">
      <g>
       <use style="stroke:#000000;stroke-width:0.8;" x="626.108125" xlink:href="#mef85e0179b" y="204.79"/>
      </g>
     </g>
     <g id="text_18">
      <!-- 16_biomed_engin_biotechnolog_biobank -->
      <g transform="translate(629.2525 455.238125)rotate(-90)scale(0.12 -0.12)">
       <use xlink:href="#DejaVuSans-49"/>
       <use x="63.623047" xlink:href="#DejaVuSans-54"/>
       <use x="127.246094" xlink:href="#DejaVuSans-95"/>
       <use x="177.246094" xlink:href="#DejaVuSans-98"/>
       <use x="240.722656" xlink:href="#DejaVuSans-105"/>
       <use x="268.505859" xlink:href="#DejaVuSans-111"/>
       <use x="329.6875" xlink:href="#DejaVuSans-109"/>
       <use x="427.099609" xlink:href="#DejaVuSans-101"/>
       <use x="488.623047" xlink:href="#DejaVuSans-100"/>
       <use x="552.099609" xlink:href="#DejaVuSans-95"/>
       <use x="602.099609" xlink:href="#DejaVuSans-101"/>
       <use x="663.623047" xlink:href="#DejaVuSans-110"/>
       <use x="727.001953" xlink:href="#DejaVuSans-103"/>
       <use x="790.478516" xlink:href="#DejaVuSans-105"/>
       <use x="818.261719" xlink:href="#DejaVuSans-110"/>
       <use x="881.640625" xlink:href="#DejaVuSans-95"/>
       <use x="931.640625" xlink:href="#DejaVuSans-98"/>
       <use x="995.117188" xlink:href="#DejaVuSans-105"/>
       <use x="1022.900391" xlink:href="#DejaVuSans-111"/>
       <use x="1084.082031" xlink:href="#DejaVuSans-116"/>
       <use x="1123.291016" xlink:href="#DejaVuSans-101"/>
       <use x="1184.814453" xlink:href="#DejaVuSans-99"/>
       <use x="1239.794922" xlink:href="#DejaVuSans-104"/>
       <use x="1303.173828" xlink:href="#DejaVuSans-110"/>
       <use x="1366.552734" xlink:href="#DejaVuSans-111"/>
       <use x="1427.734375" xlink:href="#DejaVuSans-108"/>
       <use x="1455.517578" xlink:href="#DejaVuSans-111"/>
       <use x="1516.699219" xlink:href="#DejaVuSans-103"/>
       <use x="1580.175781" xlink:href="#DejaVuSans-95"/>
       <use x="1630.175781" xlink:href="#DejaVuSans-98"/>
       <use x="1693.652344" xlink:href="#DejaVuSans-105"/>
       <use x="1721.435547" xlink:href="#DejaVuSans-111"/>
       <use x="1782.617188" xlink:href="#DejaVuSans-98"/>
       <use x="1846.09375" xlink:href="#DejaVuSans-97"/>
       <use x="1907.373047" xlink:href="#DejaVuSans-110"/>
       <use x="1970.751953" xlink:href="#DejaVuSans-107"/>
      </g>
     </g>
    </g>
    <g id="xtick_19">
     <g id="line2d_19">
      <g>
       <use style="stroke:#000000;stroke-width:0.8;" x="658.480875" xlink:href="#mef85e0179b" y="204.79"/>
      </g>
     </g>
     <g id="text_19">
      <!-- 18_busi_transport_transit_owner -->
      <g transform="translate(661.62525 407.2775)rotate(-90)scale(0.12 -0.12)">
       <use xlink:href="#DejaVuSans-49"/>
       <use x="63.623047" xlink:href="#DejaVuSans-56"/>
       <use x="127.246094" xlink:href="#DejaVuSans-95"/>
       <use x="177.246094" xlink:href="#DejaVuSans-98"/>
       <use x="240.722656" xlink:href="#DejaVuSans-117"/>
       <use x="304.101562" xlink:href="#DejaVuSans-115"/>
       <use x="356.201172" xlink:href="#DejaVuSans-105"/>
       <use x="383.984375" xlink:href="#DejaVuSans-95"/>
       <use x="433.984375" xlink:href="#DejaVuSans-116"/>
       <use x="473.193359" xlink:href="#DejaVuSans-114"/>
       <use x="514.306641" xlink:href="#DejaVuSans-97"/>
       <use x="575.585938" xlink:href="#DejaVuSans-110"/>
       <use x="638.964844" xlink:href="#DejaVuSans-115"/>
       <use x="691.064453" xlink:href="#DejaVuSans-112"/>
       <use x="754.541016" xlink:href="#DejaVuSans-111"/>
       <use x="815.722656" xlink:href="#DejaVuSans-114"/>
       <use x="856.835938" xlink:href="#DejaVuSans-116"/>
       <use x="896.044922" xlink:href="#DejaVuSans-95"/>
       <use x="946.044922" xlink:href="#DejaVuSans-116"/>
       <use x="985.253906" xlink:href="#DejaVuSans-114"/>
       <use x="1026.367188" xlink:href="#DejaVuSans-97"/>
       <use x="1087.646484" xlink:href="#DejaVuSans-110"/>
       <use x="1151.025391" xlink:href="#DejaVuSans-115"/>
       <use x="1203.125" xlink:href="#DejaVuSans-105"/>
       <use x="1230.908203" xlink:href="#DejaVuSans-116"/>
       <use x="1270.117188" xlink:href="#DejaVuSans-95"/>
       <use x="1320.117188" xlink:href="#DejaVuSans-111"/>
       <use x="1381.298828" xlink:href="#DejaVuSans-119"/>
       <use x="1463.085938" xlink:href="#DejaVuSans-110"/>
       <use x="1526.464844" xlink:href="#DejaVuSans-101"/>
       <use x="1587.988281" xlink:href="#DejaVuSans-114"/>
      </g>
     </g>
    </g>
    <g id="xtick_20">
     <g id="line2d_20">
      <g>
       <use style="stroke:#000000;stroke-width:0.8;" x="690.853625" xlink:href="#mef85e0179b" y="204.79"/>
      </g>
     </g>
     <g id="text_20">
      <!-- 19_music_artist_musician_virtual -->
      <g transform="translate(693.998 409.953125)rotate(-90)scale(0.12 -0.12)">
       <use xlink:href="#DejaVuSans-49"/>
       <use x="63.623047" xlink:href="#DejaVuSans-57"/>
       <use x="127.246094" xlink:href="#DejaVuSans-95"/>
       <use x="177.246094" xlink:href="#DejaVuSans-109"/>
       <use x="274.658203" xlink:href="#DejaVuSans-117"/>
       <use x="338.037109" xlink:href="#DejaVuSans-115"/>
       <use x="390.136719" xlink:href="#DejaVuSans-105"/>
       <use x="417.919922" xlink:href="#DejaVuSans-99"/>
       <use x="472.900391" xlink:href="#DejaVuSans-95"/>
       <use x="522.900391" xlink:href="#DejaVuSans-97"/>
       <use x="584.179688" xlink:href="#DejaVuSans-114"/>
       <use x="625.292969" xlink:href="#DejaVuSans-116"/>
       <use x="664.501953" xlink:href="#DejaVuSans-105"/>
       <use x="692.285156" xlink:href="#DejaVuSans-115"/>
       <use x="744.384766" xlink:href="#DejaVuSans-116"/>
       <use x="783.59375" xlink:href="#DejaVuSans-95"/>
       <use x="833.59375" xlink:href="#DejaVuSans-109"/>
       <use x="931.005859" xlink:href="#DejaVuSans-117"/>
       <use x="994.384766" xlink:href="#DejaVuSans-115"/>
       <use x="1046.484375" xlink:href="#DejaVuSans-105"/>
       <use x="1074.267578" xlink:href="#DejaVuSans-99"/>
       <use x="1129.248047" xlink:href="#DejaVuSans-105"/>
       <use x="1157.03125" xlink:href="#DejaVuSans-97"/>
       <use x="1218.310547" xlink:href="#DejaVuSans-110"/>
       <use x="1281.689453" xlink:href="#DejaVuSans-95"/>
       <use x="1331.689453" xlink:href="#DejaVuSans-118"/>
       <use x="1390.869141" xlink:href="#DejaVuSans-105"/>
       <use x="1418.652344" xlink:href="#DejaVuSans-114"/>
       <use x="1459.765625" xlink:href="#DejaVuSans-116"/>
       <use x="1498.974609" xlink:href="#DejaVuSans-117"/>
       <use x="1562.353516" xlink:href="#DejaVuSans-97"/>
       <use x="1623.632812" xlink:href="#DejaVuSans-108"/>
      </g>
     </g>
    </g>
    <g id="text_21">
     <!-- Topic -->
     <defs>
      <path d="M -0.296875 72.90625 
L 61.375 72.90625 
L 61.375 64.59375 
L 35.5 64.59375 
L 35.5 0 
L 25.59375 0 
L 25.59375 64.59375 
L -0.296875 64.59375 
z
" id="DejaVuSans-84"/>
     </defs>
     <g transform="translate(367.2175 487.5375)scale(0.12 -0.12)">
      <use xlink:href="#DejaVuSans-84"/>
      <use x="60.818359" xlink:href="#DejaVuSans-111"/>
      <use x="122" xlink:href="#DejaVuSans-112"/>
      <use x="185.476562" xlink:href="#DejaVuSans-105"/>
      <use x="213.259766" xlink:href="#DejaVuSans-99"/>
     </g>
    </g>
   </g>
   <g id="matplotlib.axis_2">
    <g id="ytick_1">
     <g id="line2d_21">
      <defs>
       <path d="M 0 0 
L -3.5 0 
" id="m0420f7e012" style="stroke:#000000;stroke-width:0.8;"/>
      </defs>
      <g>
       <use style="stroke:#000000;stroke-width:0.8;" x="59.585" xlink:href="#m0420f7e012" y="204.79"/>
      </g>
     </g>
     <g id="text_22">
      <!-- 0 -->
      <g transform="translate(44.95 209.349063)scale(0.12 -0.12)">
       <use xlink:href="#DejaVuSans-48"/>
      </g>
     </g>
    </g>
    <g id="ytick_2">
     <g id="line2d_22">
      <g>
       <use style="stroke:#000000;stroke-width:0.8;" x="59.585" xlink:href="#m0420f7e012" y="175.782202"/>
      </g>
     </g>
     <g id="text_23">
      <!-- 50 -->
      <g transform="translate(37.315 180.341264)scale(0.12 -0.12)">
       <use xlink:href="#DejaVuSans-53"/>
       <use x="63.623047" xlink:href="#DejaVuSans-48"/>
      </g>
     </g>
    </g>
    <g id="ytick_3">
     <g id="line2d_23">
      <g>
       <use style="stroke:#000000;stroke-width:0.8;" x="59.585" xlink:href="#m0420f7e012" y="146.774404"/>
      </g>
     </g>
     <g id="text_24">
      <!-- 100 -->
      <g transform="translate(29.68 151.333466)scale(0.12 -0.12)">
       <use xlink:href="#DejaVuSans-49"/>
       <use x="63.623047" xlink:href="#DejaVuSans-48"/>
       <use x="127.246094" xlink:href="#DejaVuSans-48"/>
      </g>
     </g>
    </g>
    <g id="ytick_4">
     <g id="line2d_24">
      <g>
       <use style="stroke:#000000;stroke-width:0.8;" x="59.585" xlink:href="#m0420f7e012" y="117.766605"/>
      </g>
     </g>
     <g id="text_25">
      <!-- 150 -->
      <g transform="translate(29.68 122.325668)scale(0.12 -0.12)">
       <use xlink:href="#DejaVuSans-49"/>
       <use x="63.623047" xlink:href="#DejaVuSans-53"/>
       <use x="127.246094" xlink:href="#DejaVuSans-48"/>
      </g>
     </g>
    </g>
    <g id="ytick_5">
     <g id="line2d_25">
      <g>
       <use style="stroke:#000000;stroke-width:0.8;" x="59.585" xlink:href="#m0420f7e012" y="88.758807"/>
      </g>
     </g>
     <g id="text_26">
      <!-- 200 -->
      <g transform="translate(29.68 93.31787)scale(0.12 -0.12)">
       <use xlink:href="#DejaVuSans-50"/>
       <use x="63.623047" xlink:href="#DejaVuSans-48"/>
       <use x="127.246094" xlink:href="#DejaVuSans-48"/>
      </g>
     </g>
    </g>
    <g id="ytick_6">
     <g id="line2d_26">
      <g>
       <use style="stroke:#000000;stroke-width:0.8;" x="59.585" xlink:href="#m0420f7e012" y="59.751009"/>
      </g>
     </g>
     <g id="text_27">
      <!-- 250 -->
      <g transform="translate(29.68 64.310071)scale(0.12 -0.12)">
       <use xlink:href="#DejaVuSans-50"/>
       <use x="63.623047" xlink:href="#DejaVuSans-53"/>
       <use x="127.246094" xlink:href="#DejaVuSans-48"/>
      </g>
     </g>
    </g>
    <g id="ytick_7">
     <g id="line2d_27">
      <g>
       <use style="stroke:#000000;stroke-width:0.8;" x="59.585" xlink:href="#m0420f7e012" y="30.743211"/>
      </g>
     </g>
     <g id="text_28">
      <!-- 300 -->
      <g transform="translate(29.68 35.302273)scale(0.12 -0.12)">
       <use xlink:href="#DejaVuSans-51"/>
       <use x="63.623047" xlink:href="#DejaVuSans-48"/>
       <use x="127.246094" xlink:href="#DejaVuSans-48"/>
      </g>
     </g>
    </g>
    <g id="text_29">
     <!-- Count -->
     <defs>
      <path d="M 64.40625 67.28125 
L 64.40625 56.890625 
Q 59.421875 61.53125 53.78125 63.8125 
Q 48.140625 66.109375 41.796875 66.109375 
Q 29.296875 66.109375 22.65625 58.46875 
Q 16.015625 50.828125 16.015625 36.375 
Q 16.015625 21.96875 22.65625 14.328125 
Q 29.296875 6.6875 41.796875 6.6875 
Q 48.140625 6.6875 53.78125 8.984375 
Q 59.421875 11.28125 64.40625 15.921875 
L 64.40625 5.609375 
Q 59.234375 2.09375 53.4375 0.328125 
Q 47.65625 -1.421875 41.21875 -1.421875 
Q 24.65625 -1.421875 15.125 8.703125 
Q 5.609375 18.84375 5.609375 36.375 
Q 5.609375 53.953125 15.125 64.078125 
Q 24.65625 74.21875 41.21875 74.21875 
Q 47.75 74.21875 53.53125 72.484375 
Q 59.328125 70.75 64.40625 67.28125 
z
" id="DejaVuSans-67"/>
     </defs>
     <g transform="translate(23.184375 135.193125)rotate(-90)scale(0.12 -0.12)">
      <use xlink:href="#DejaVuSans-67"/>
      <use x="69.824219" xlink:href="#DejaVuSans-111"/>
      <use x="131.005859" xlink:href="#DejaVuSans-117"/>
      <use x="194.384766" xlink:href="#DejaVuSans-110"/>
      <use x="257.763672" xlink:href="#DejaVuSans-116"/>
     </g>
    </g>
   </g>
   <g id="patch_23">
    <path d="M 59.585 204.79 
L 59.585 29.96 
" style="fill:none;stroke:#000000;stroke-linecap:square;stroke-linejoin:miter;stroke-width:0.8;"/>
   </g>
   <g id="patch_24">
    <path d="M 707.04 204.79 
L 707.04 29.96 
" style="fill:none;stroke:#000000;stroke-linecap:square;stroke-linejoin:miter;stroke-width:0.8;"/>
   </g>
   <g id="patch_25">
    <path d="M 59.585 204.79 
L 707.04 204.79 
" style="fill:none;stroke:#000000;stroke-linecap:square;stroke-linejoin:miter;stroke-width:0.8;"/>
   </g>
   <g id="patch_26">
    <path d="M 59.585 29.96 
L 707.04 29.96 
" style="fill:none;stroke:#000000;stroke-linecap:square;stroke-linejoin:miter;stroke-width:0.8;"/>
   </g>
   <g id="text_30">
    <!-- Number of research projects per topic (top 20) -->
    <defs>
     <path d="M 9.8125 72.90625 
L 23.09375 72.90625 
L 55.421875 11.921875 
L 55.421875 72.90625 
L 64.984375 72.90625 
L 64.984375 0 
L 51.703125 0 
L 19.390625 60.984375 
L 19.390625 0 
L 9.8125 0 
z
" id="DejaVuSans-78"/>
     <path id="DejaVuSans-32"/>
     <path d="M 31 75.875 
Q 24.46875 64.65625 21.28125 53.65625 
Q 18.109375 42.671875 18.109375 31.390625 
Q 18.109375 20.125 21.3125 9.0625 
Q 24.515625 -2 31 -13.1875 
L 23.1875 -13.1875 
Q 15.875 -1.703125 12.234375 9.375 
Q 8.59375 20.453125 8.59375 31.390625 
Q 8.59375 42.28125 12.203125 53.3125 
Q 15.828125 64.359375 23.1875 75.875 
z
" id="DejaVuSans-40"/>
     <path d="M 8.015625 75.875 
L 15.828125 75.875 
Q 23.140625 64.359375 26.78125 53.3125 
Q 30.421875 42.28125 30.421875 31.390625 
Q 30.421875 20.453125 26.78125 9.375 
Q 23.140625 -1.703125 15.828125 -13.1875 
L 8.015625 -13.1875 
Q 14.5 -2 17.703125 9.0625 
Q 20.90625 20.125 20.90625 31.390625 
Q 20.90625 42.671875 17.703125 53.65625 
Q 14.5 64.65625 8.015625 75.875 
z
" id="DejaVuSans-41"/>
    </defs>
    <g transform="translate(214.775125 23.96)scale(0.144 -0.144)">
     <use xlink:href="#DejaVuSans-78"/>
     <use x="74.804688" xlink:href="#DejaVuSans-117"/>
     <use x="138.183594" xlink:href="#DejaVuSans-109"/>
     <use x="235.595703" xlink:href="#DejaVuSans-98"/>
     <use x="299.072266" xlink:href="#DejaVuSans-101"/>
     <use x="360.595703" xlink:href="#DejaVuSans-114"/>
     <use x="401.708984" xlink:href="#DejaVuSans-32"/>
     <use x="433.496094" xlink:href="#DejaVuSans-111"/>
     <use x="494.677734" xlink:href="#DejaVuSans-102"/>
     <use x="529.882812" xlink:href="#DejaVuSans-32"/>
     <use x="561.669922" xlink:href="#DejaVuSans-114"/>
     <use x="602.751953" xlink:href="#DejaVuSans-101"/>
     <use x="664.275391" xlink:href="#DejaVuSans-115"/>
     <use x="716.375" xlink:href="#DejaVuSans-101"/>
     <use x="777.898438" xlink:href="#DejaVuSans-97"/>
     <use x="839.177734" xlink:href="#DejaVuSans-114"/>
     <use x="880.259766" xlink:href="#DejaVuSans-99"/>
     <use x="935.240234" xlink:href="#DejaVuSans-104"/>
     <use x="998.619141" xlink:href="#DejaVuSans-32"/>
     <use x="1030.40625" xlink:href="#DejaVuSans-112"/>
     <use x="1093.882812" xlink:href="#DejaVuSans-114"/>
     <use x="1134.964844" xlink:href="#DejaVuSans-111"/>
     <use x="1196.146484" xlink:href="#DejaVuSans-106"/>
     <use x="1223.929688" xlink:href="#DejaVuSans-101"/>
     <use x="1285.453125" xlink:href="#DejaVuSans-99"/>
     <use x="1340.433594" xlink:href="#DejaVuSans-116"/>
     <use x="1379.642578" xlink:href="#DejaVuSans-115"/>
     <use x="1431.742188" xlink:href="#DejaVuSans-32"/>
     <use x="1463.529297" xlink:href="#DejaVuSans-112"/>
     <use x="1527.005859" xlink:href="#DejaVuSans-101"/>
     <use x="1588.529297" xlink:href="#DejaVuSans-114"/>
     <use x="1629.642578" xlink:href="#DejaVuSans-32"/>
     <use x="1661.429688" xlink:href="#DejaVuSans-116"/>
     <use x="1700.638672" xlink:href="#DejaVuSans-111"/>
     <use x="1761.820312" xlink:href="#DejaVuSans-112"/>
     <use x="1825.296875" xlink:href="#DejaVuSans-105"/>
     <use x="1853.080078" xlink:href="#DejaVuSans-99"/>
     <use x="1908.060547" xlink:href="#DejaVuSans-32"/>
     <use x="1939.847656" xlink:href="#DejaVuSans-40"/>
     <use x="1978.861328" xlink:href="#DejaVuSans-116"/>
     <use x="2018.070312" xlink:href="#DejaVuSans-111"/>
     <use x="2079.251953" xlink:href="#DejaVuSans-112"/>
     <use x="2142.728516" xlink:href="#DejaVuSans-32"/>
     <use x="2174.515625" xlink:href="#DejaVuSans-50"/>
     <use x="2238.138672" xlink:href="#DejaVuSans-48"/>
     <use x="2301.761719" xlink:href="#DejaVuSans-41"/>
    </g>
   </g>
  </g>
 </g>
 <defs>
  <clipPath id="pa064ddc0d2">
   <rect height="174.83" width="647.455" x="59.585" y="29.96"/>
  </clipPath>
 </defs>
</svg>
