<?xml version="1.0" encoding="utf-8" standalone="no"?>
<!DOCTYPE svg PUBLIC "-//W3C//DTD SVG 1.1//EN"
  "http://www.w3.org/Graphics/SVG/1.1/DTD/svg11.dtd">
<!-- Created with matplotlib (https://matplotlib.org/) -->
<svg height="576pt" version="1.1" viewBox="0 0 864 576" width="864pt" xmlns="http://www.w3.org/2000/svg" xmlns:xlink="http://www.w3.org/1999/xlink">
 <defs>
  <style type="text/css">
*{stroke-linecap:butt;stroke-linejoin:round;}
  </style>
 </defs>
 <g id="figure_1">
  <g id="patch_1">
   <path d="M 0 576 
L 864 576 
L 864 0 
L 0 0 
z
" style="fill:#ffffff;"/>
  </g>
  <g id="axes_1">
   <g id="patch_2">
    <path d="M 27.585 311.665 
L 808.165 311.665 
L 808.165 29.96 
L 27.585 29.96 
z
" style="fill:#ffffff;"/>
   </g>
   <g id="patch_3">
    <path clip-path="url(#p89acf69b9a)" d="M 47.0995 311.665 
L 66.614 311.665 
L 66.614 43.374524 
L 47.0995 43.374524 
z
" style="fill:#3754b3;"/>
   </g>
   <g id="patch_4">
    <path clip-path="url(#p89acf69b9a)" d="M 125.1575 311.665 
L 144.672 311.665 
L 144.672 167.704257 
L 125.1575 167.704257 
z
" style="fill:#3754b3;"/>
   </g>
   <g id="patch_5">
    <path clip-path="url(#p89acf69b9a)" d="M 203.2155 311.665 
L 222.73 311.665 
L 222.73 167.704257 
L 203.2155 167.704257 
z
" style="fill:#3754b3;"/>
   </g>
   <g id="patch_6">
    <path clip-path="url(#p89acf69b9a)" d="M 281.2735 311.665 
L 300.788 311.665 
L 300.788 126.261012 
L 281.2735 126.261012 
z
" style="fill:#3754b3;"/>
   </g>
   <g id="patch_7">
    <path clip-path="url(#p89acf69b9a)" d="M 359.3315 311.665 
L 378.846 311.665 
L 378.846 228.778511 
L 359.3315 228.778511 
z
" style="fill:#3754b3;"/>
   </g>
   <g id="patch_8">
    <path clip-path="url(#p89acf69b9a)" d="M 437.3895 311.665 
L 456.904 311.665 
L 456.904 237.503405 
L 437.3895 237.503405 
z
" style="fill:#3754b3;"/>
   </g>
   <g id="patch_9">
    <path clip-path="url(#p89acf69b9a)" d="M 515.4475 311.665 
L 534.962 311.665 
L 534.962 185.154044 
L 515.4475 185.154044 
z
" style="fill:#3754b3;"/>
   </g>
   <g id="patch_10">
    <path clip-path="url(#p89acf69b9a)" d="M 593.5055 311.665 
L 613.02 311.665 
L 613.02 235.322182 
L 593.5055 235.322182 
z
" style="fill:#3754b3;"/>
   </g>
   <g id="patch_11">
    <path clip-path="url(#p89acf69b9a)" d="M 671.5635 311.665 
L 691.078 311.665 
L 691.078 289.852766 
L 671.5635 289.852766 
z
" style="fill:#3754b3;"/>
   </g>
   <g id="patch_12">
    <path clip-path="url(#p89acf69b9a)" d="M 749.6215 311.665 
L 769.136 311.665 
L 769.136 248.409522 
L 749.6215 248.409522 
z
" style="fill:#3754b3;"/>
   </g>
   <g id="matplotlib.axis_1">
    <g id="xtick_1">
     <g id="line2d_1">
      <defs>
       <path d="M 0 0 
L 0 3.5 
" id="m4012880f61" style="stroke:#000000;stroke-width:0.8;"/>
      </defs>
      <g>
       <use style="stroke:#000000;stroke-width:0.8;" x="66.614" xlink:href="#m4012880f61" y="311.665"/>
      </g>
     </g>
     <g id="text_1">
      <!-- 0_rna_protein_coronavirus_viral -->
      <defs>
       <path d="M 31.78125 66.40625 
Q 24.171875 66.40625 20.328125 58.90625 
Q 16.5 51.421875 16.5 36.375 
Q 16.5 21.390625 20.328125 13.890625 
Q 24.171875 6.390625 31.78125 6.390625 
Q 39.453125 6.390625 43.28125 13.890625 
Q 47.125 21.390625 47.125 36.375 
Q 47.125 51.421875 43.28125 58.90625 
Q 39.453125 66.40625 31.78125 66.40625 
z
M 31.78125 74.21875 
Q 44.046875 74.21875 50.515625 64.515625 
Q 56.984375 54.828125 56.984375 36.375 
Q 56.984375 17.96875 50.515625 8.265625 
Q 44.046875 -1.421875 31.78125 -1.421875 
Q 19.53125 -1.421875 13.0625 8.265625 
Q 6.59375 17.96875 6.59375 36.375 
Q 6.59375 54.828125 13.0625 64.515625 
Q 19.53125 74.21875 31.78125 74.21875 
z
" id="DejaVuSans-48"/>
       <path d="M 50.984375 -16.609375 
L 50.984375 -23.578125 
L -0.984375 -23.578125 
L -0.984375 -16.609375 
z
" id="DejaVuSans-95"/>
       <path d="M 41.109375 46.296875 
Q 39.59375 47.171875 37.8125 47.578125 
Q 36.03125 48 33.890625 48 
Q 26.265625 48 22.1875 43.046875 
Q 18.109375 38.09375 18.109375 28.8125 
L 18.109375 0 
L 9.078125 0 
L 9.078125 54.6875 
L 18.109375 54.6875 
L 18.109375 46.1875 
Q 20.953125 51.171875 25.484375 53.578125 
Q 30.03125 56 36.53125 56 
Q 37.453125 56 38.578125 55.875 
Q 39.703125 55.765625 41.0625 55.515625 
z
" id="DejaVuSans-114"/>
       <path d="M 54.890625 33.015625 
L 54.890625 0 
L 45.90625 0 
L 45.90625 32.71875 
Q 45.90625 40.484375 42.875 44.328125 
Q 39.84375 48.1875 33.796875 48.1875 
Q 26.515625 48.1875 22.3125 43.546875 
Q 18.109375 38.921875 18.109375 30.90625 
L 18.109375 0 
L 9.078125 0 
L 9.078125 54.6875 
L 18.109375 54.6875 
L 18.109375 46.1875 
Q 21.34375 51.125 25.703125 53.5625 
Q 30.078125 56 35.796875 56 
Q 45.21875 56 50.046875 50.171875 
Q 54.890625 44.34375 54.890625 33.015625 
z
" id="DejaVuSans-110"/>
       <path d="M 34.28125 27.484375 
Q 23.390625 27.484375 19.1875 25 
Q 14.984375 22.515625 14.984375 16.5 
Q 14.984375 11.71875 18.140625 8.90625 
Q 21.296875 6.109375 26.703125 6.109375 
Q 34.1875 6.109375 38.703125 11.40625 
Q 43.21875 16.703125 43.21875 25.484375 
L 43.21875 27.484375 
z
M 52.203125 31.203125 
L 52.203125 0 
L 43.21875 0 
L 43.21875 8.296875 
Q 40.140625 3.328125 35.546875 0.953125 
Q 30.953125 -1.421875 24.3125 -1.421875 
Q 15.921875 -1.421875 10.953125 3.296875 
Q 6 8.015625 6 15.921875 
Q 6 25.140625 12.171875 29.828125 
Q 18.359375 34.515625 30.609375 34.515625 
L 43.21875 34.515625 
L 43.21875 35.40625 
Q 43.21875 41.609375 39.140625 45 
Q 35.0625 48.390625 27.6875 48.390625 
Q 23 48.390625 18.546875 47.265625 
Q 14.109375 46.140625 10.015625 43.890625 
L 10.015625 52.203125 
Q 14.9375 54.109375 19.578125 55.046875 
Q 24.21875 56 28.609375 56 
Q 40.484375 56 46.34375 49.84375 
Q 52.203125 43.703125 52.203125 31.203125 
z
" id="DejaVuSans-97"/>
       <path d="M 18.109375 8.203125 
L 18.109375 -20.796875 
L 9.078125 -20.796875 
L 9.078125 54.6875 
L 18.109375 54.6875 
L 18.109375 46.390625 
Q 20.953125 51.265625 25.265625 53.625 
Q 29.59375 56 35.59375 56 
Q 45.5625 56 51.78125 48.09375 
Q 58.015625 40.1875 58.015625 27.296875 
Q 58.015625 14.40625 51.78125 6.484375 
Q 45.5625 -1.421875 35.59375 -1.421875 
Q 29.59375 -1.421875 25.265625 0.953125 
Q 20.953125 3.328125 18.109375 8.203125 
z
M 48.6875 27.296875 
Q 48.6875 37.203125 44.609375 42.84375 
Q 40.53125 48.484375 33.40625 48.484375 
Q 26.265625 48.484375 22.1875 42.84375 
Q 18.109375 37.203125 18.109375 27.296875 
Q 18.109375 17.390625 22.1875 11.75 
Q 26.265625 6.109375 33.40625 6.109375 
Q 40.53125 6.109375 44.609375 11.75 
Q 48.6875 17.390625 48.6875 27.296875 
z
" id="DejaVuSans-112"/>
       <path d="M 30.609375 48.390625 
Q 23.390625 48.390625 19.1875 42.75 
Q 14.984375 37.109375 14.984375 27.296875 
Q 14.984375 17.484375 19.15625 11.84375 
Q 23.34375 6.203125 30.609375 6.203125 
Q 37.796875 6.203125 41.984375 11.859375 
Q 46.1875 17.53125 46.1875 27.296875 
Q 46.1875 37.015625 41.984375 42.703125 
Q 37.796875 48.390625 30.609375 48.390625 
z
M 30.609375 56 
Q 42.328125 56 49.015625 48.375 
Q 55.71875 40.765625 55.71875 27.296875 
Q 55.71875 13.875 49.015625 6.21875 
Q 42.328125 -1.421875 30.609375 -1.421875 
Q 18.84375 -1.421875 12.171875 6.21875 
Q 5.515625 13.875 5.515625 27.296875 
Q 5.515625 40.765625 12.171875 48.375 
Q 18.84375 56 30.609375 56 
z
" id="DejaVuSans-111"/>
       <path d="M 18.3125 70.21875 
L 18.3125 54.6875 
L 36.8125 54.6875 
L 36.8125 47.703125 
L 18.3125 47.703125 
L 18.3125 18.015625 
Q 18.3125 11.328125 20.140625 9.421875 
Q 21.96875 7.515625 27.59375 7.515625 
L 36.8125 7.515625 
L 36.8125 0 
L 27.59375 0 
Q 17.1875 0 13.234375 3.875 
Q 9.28125 7.765625 9.28125 18.015625 
L 9.28125 47.703125 
L 2.6875 47.703125 
L 2.6875 54.6875 
L 9.28125 54.6875 
L 9.28125 70.21875 
z
" id="DejaVuSans-116"/>
       <path d="M 56.203125 29.59375 
L 56.203125 25.203125 
L 14.890625 25.203125 
Q 15.484375 15.921875 20.484375 11.0625 
Q 25.484375 6.203125 34.421875 6.203125 
Q 39.59375 6.203125 44.453125 7.46875 
Q 49.3125 8.734375 54.109375 11.28125 
L 54.109375 2.78125 
Q 49.265625 0.734375 44.1875 -0.34375 
Q 39.109375 -1.421875 33.890625 -1.421875 
Q 20.796875 -1.421875 13.15625 6.1875 
Q 5.515625 13.8125 5.515625 26.8125 
Q 5.515625 40.234375 12.765625 48.109375 
Q 20.015625 56 32.328125 56 
Q 43.359375 56 49.78125 48.890625 
Q 56.203125 41.796875 56.203125 29.59375 
z
M 47.21875 32.234375 
Q 47.125 39.59375 43.09375 43.984375 
Q 39.0625 48.390625 32.421875 48.390625 
Q 24.90625 48.390625 20.390625 44.140625 
Q 15.875 39.890625 15.1875 32.171875 
z
" id="DejaVuSans-101"/>
       <path d="M 9.421875 54.6875 
L 18.40625 54.6875 
L 18.40625 0 
L 9.421875 0 
z
M 9.421875 75.984375 
L 18.40625 75.984375 
L 18.40625 64.59375 
L 9.421875 64.59375 
z
" id="DejaVuSans-105"/>
       <path d="M 48.78125 52.59375 
L 48.78125 44.1875 
Q 44.96875 46.296875 41.140625 47.34375 
Q 37.3125 48.390625 33.40625 48.390625 
Q 24.65625 48.390625 19.8125 42.84375 
Q 14.984375 37.3125 14.984375 27.296875 
Q 14.984375 17.28125 19.8125 11.734375 
Q 24.65625 6.203125 33.40625 6.203125 
Q 37.3125 6.203125 41.140625 7.25 
Q 44.96875 8.296875 48.78125 10.40625 
L 48.78125 2.09375 
Q 45.015625 0.34375 40.984375 -0.53125 
Q 36.96875 -1.421875 32.421875 -1.421875 
Q 20.0625 -1.421875 12.78125 6.34375 
Q 5.515625 14.109375 5.515625 27.296875 
Q 5.515625 40.671875 12.859375 48.328125 
Q 20.21875 56 33.015625 56 
Q 37.15625 56 41.109375 55.140625 
Q 45.0625 54.296875 48.78125 52.59375 
z
" id="DejaVuSans-99"/>
       <path d="M 2.984375 54.6875 
L 12.5 54.6875 
L 29.59375 8.796875 
L 46.6875 54.6875 
L 56.203125 54.6875 
L 35.6875 0 
L 23.484375 0 
z
" id="DejaVuSans-118"/>
       <path d="M 8.5 21.578125 
L 8.5 54.6875 
L 17.484375 54.6875 
L 17.484375 21.921875 
Q 17.484375 14.15625 20.5 10.265625 
Q 23.53125 6.390625 29.59375 6.390625 
Q 36.859375 6.390625 41.078125 11.03125 
Q 45.3125 15.671875 45.3125 23.6875 
L 45.3125 54.6875 
L 54.296875 54.6875 
L 54.296875 0 
L 45.3125 0 
L 45.3125 8.40625 
Q 42.046875 3.421875 37.71875 1 
Q 33.40625 -1.421875 27.6875 -1.421875 
Q 18.265625 -1.421875 13.375 4.4375 
Q 8.5 10.296875 8.5 21.578125 
z
M 31.109375 56 
z
" id="DejaVuSans-117"/>
       <path d="M 44.28125 53.078125 
L 44.28125 44.578125 
Q 40.484375 46.53125 36.375 47.5 
Q 32.28125 48.484375 27.875 48.484375 
Q 21.1875 48.484375 17.84375 46.4375 
Q 14.5 44.390625 14.5 40.28125 
Q 14.5 37.15625 16.890625 35.375 
Q 19.28125 33.59375 26.515625 31.984375 
L 29.59375 31.296875 
Q 39.15625 29.25 43.1875 25.515625 
Q 47.21875 21.78125 47.21875 15.09375 
Q 47.21875 7.46875 41.1875 3.015625 
Q 35.15625 -1.421875 24.609375 -1.421875 
Q 20.21875 -1.421875 15.453125 -0.5625 
Q 10.6875 0.296875 5.421875 2 
L 5.421875 11.28125 
Q 10.40625 8.6875 15.234375 7.390625 
Q 20.0625 6.109375 24.8125 6.109375 
Q 31.15625 6.109375 34.5625 8.28125 
Q 37.984375 10.453125 37.984375 14.40625 
Q 37.984375 18.0625 35.515625 20.015625 
Q 33.0625 21.96875 24.703125 23.78125 
L 21.578125 24.515625 
Q 13.234375 26.265625 9.515625 29.90625 
Q 5.8125 33.546875 5.8125 39.890625 
Q 5.8125 47.609375 11.28125 51.796875 
Q 16.75 56 26.8125 56 
Q 31.78125 56 36.171875 55.265625 
Q 40.578125 54.546875 44.28125 53.078125 
z
" id="DejaVuSans-115"/>
       <path d="M 9.421875 75.984375 
L 18.40625 75.984375 
L 18.40625 0 
L 9.421875 0 
z
" id="DejaVuSans-108"/>
      </defs>
      <g transform="translate(69.758375 509.560625)rotate(-90)scale(0.12 -0.12)">
       <use xlink:href="#DejaVuSans-48"/>
       <use x="63.623047" xlink:href="#DejaVuSans-95"/>
       <use x="113.623047" xlink:href="#DejaVuSans-114"/>
       <use x="154.720703" xlink:href="#DejaVuSans-110"/>
       <use x="218.099609" xlink:href="#DejaVuSans-97"/>
       <use x="279.378906" xlink:href="#DejaVuSans-95"/>
       <use x="329.378906" xlink:href="#DejaVuSans-112"/>
       <use x="392.855469" xlink:href="#DejaVuSans-114"/>
       <use x="433.9375" xlink:href="#DejaVuSans-111"/>
       <use x="495.119141" xlink:href="#DejaVuSans-116"/>
       <use x="534.328125" xlink:href="#DejaVuSans-101"/>
       <use x="595.851562" xlink:href="#DejaVuSans-105"/>
       <use x="623.634766" xlink:href="#DejaVuSans-110"/>
       <use x="687.013672" xlink:href="#DejaVuSans-95"/>
       <use x="737.013672" xlink:href="#DejaVuSans-99"/>
       <use x="791.994141" xlink:href="#DejaVuSans-111"/>
       <use x="853.175781" xlink:href="#DejaVuSans-114"/>
       <use x="894.257812" xlink:href="#DejaVuSans-111"/>
       <use x="955.439453" xlink:href="#DejaVuSans-110"/>
       <use x="1018.818359" xlink:href="#DejaVuSans-97"/>
       <use x="1080.097656" xlink:href="#DejaVuSans-118"/>
       <use x="1139.277344" xlink:href="#DejaVuSans-105"/>
       <use x="1167.060547" xlink:href="#DejaVuSans-114"/>
       <use x="1208.173828" xlink:href="#DejaVuSans-117"/>
       <use x="1271.552734" xlink:href="#DejaVuSans-115"/>
       <use x="1323.652344" xlink:href="#DejaVuSans-95"/>
       <use x="1373.652344" xlink:href="#DejaVuSans-118"/>
       <use x="1432.832031" xlink:href="#DejaVuSans-105"/>
       <use x="1460.615234" xlink:href="#DejaVuSans-114"/>
       <use x="1501.728516" xlink:href="#DejaVuSans-97"/>
       <use x="1563.007812" xlink:href="#DejaVuSans-108"/>
      </g>
     </g>
    </g>
    <g id="xtick_2">
     <g id="line2d_2">
      <g>
       <use style="stroke:#000000;stroke-width:0.8;" x="144.672" xlink:href="#m4012880f61" y="311.665"/>
      </g>
     </g>
     <g id="text_2">
      <!-- 1_mental_anxieti_psycholog_depress -->
      <defs>
       <path d="M 12.40625 8.296875 
L 28.515625 8.296875 
L 28.515625 63.921875 
L 10.984375 60.40625 
L 10.984375 69.390625 
L 28.421875 72.90625 
L 38.28125 72.90625 
L 38.28125 8.296875 
L 54.390625 8.296875 
L 54.390625 0 
L 12.40625 0 
z
" id="DejaVuSans-49"/>
       <path d="M 52 44.1875 
Q 55.375 50.25 60.0625 53.125 
Q 64.75 56 71.09375 56 
Q 79.640625 56 84.28125 50.015625 
Q 88.921875 44.046875 88.921875 33.015625 
L 88.921875 0 
L 79.890625 0 
L 79.890625 32.71875 
Q 79.890625 40.578125 77.09375 44.375 
Q 74.3125 48.1875 68.609375 48.1875 
Q 61.625 48.1875 57.5625 43.546875 
Q 53.515625 38.921875 53.515625 30.90625 
L 53.515625 0 
L 44.484375 0 
L 44.484375 32.71875 
Q 44.484375 40.625 41.703125 44.40625 
Q 38.921875 48.1875 33.109375 48.1875 
Q 26.21875 48.1875 22.15625 43.53125 
Q 18.109375 38.875 18.109375 30.90625 
L 18.109375 0 
L 9.078125 0 
L 9.078125 54.6875 
L 18.109375 54.6875 
L 18.109375 46.1875 
Q 21.1875 51.21875 25.484375 53.609375 
Q 29.78125 56 35.6875 56 
Q 41.65625 56 45.828125 52.96875 
Q 50 49.953125 52 44.1875 
z
" id="DejaVuSans-109"/>
       <path d="M 54.890625 54.6875 
L 35.109375 28.078125 
L 55.90625 0 
L 45.3125 0 
L 29.390625 21.484375 
L 13.484375 0 
L 2.875 0 
L 24.125 28.609375 
L 4.6875 54.6875 
L 15.28125 54.6875 
L 29.78125 35.203125 
L 44.28125 54.6875 
z
" id="DejaVuSans-120"/>
       <path d="M 32.171875 -5.078125 
Q 28.375 -14.84375 24.75 -17.8125 
Q 21.140625 -20.796875 15.09375 -20.796875 
L 7.90625 -20.796875 
L 7.90625 -13.28125 
L 13.1875 -13.28125 
Q 16.890625 -13.28125 18.9375 -11.515625 
Q 21 -9.765625 23.484375 -3.21875 
L 25.09375 0.875 
L 2.984375 54.6875 
L 12.5 54.6875 
L 29.59375 11.921875 
L 46.6875 54.6875 
L 56.203125 54.6875 
z
" id="DejaVuSans-121"/>
       <path d="M 54.890625 33.015625 
L 54.890625 0 
L 45.90625 0 
L 45.90625 32.71875 
Q 45.90625 40.484375 42.875 44.328125 
Q 39.84375 48.1875 33.796875 48.1875 
Q 26.515625 48.1875 22.3125 43.546875 
Q 18.109375 38.921875 18.109375 30.90625 
L 18.109375 0 
L 9.078125 0 
L 9.078125 75.984375 
L 18.109375 75.984375 
L 18.109375 46.1875 
Q 21.34375 51.125 25.703125 53.5625 
Q 30.078125 56 35.796875 56 
Q 45.21875 56 50.046875 50.171875 
Q 54.890625 44.34375 54.890625 33.015625 
z
" id="DejaVuSans-104"/>
       <path d="M 45.40625 27.984375 
Q 45.40625 37.75 41.375 43.109375 
Q 37.359375 48.484375 30.078125 48.484375 
Q 22.859375 48.484375 18.828125 43.109375 
Q 14.796875 37.75 14.796875 27.984375 
Q 14.796875 18.265625 18.828125 12.890625 
Q 22.859375 7.515625 30.078125 7.515625 
Q 37.359375 7.515625 41.375 12.890625 
Q 45.40625 18.265625 45.40625 27.984375 
z
M 54.390625 6.78125 
Q 54.390625 -7.171875 48.1875 -13.984375 
Q 42 -20.796875 29.203125 -20.796875 
Q 24.46875 -20.796875 20.265625 -20.09375 
Q 16.0625 -19.390625 12.109375 -17.921875 
L 12.109375 -9.1875 
Q 16.0625 -11.328125 19.921875 -12.34375 
Q 23.78125 -13.375 27.78125 -13.375 
Q 36.625 -13.375 41.015625 -8.765625 
Q 45.40625 -4.15625 45.40625 5.171875 
L 45.40625 9.625 
Q 42.625 4.78125 38.28125 2.390625 
Q 33.9375 0 27.875 0 
Q 17.828125 0 11.671875 7.65625 
Q 5.515625 15.328125 5.515625 27.984375 
Q 5.515625 40.671875 11.671875 48.328125 
Q 17.828125 56 27.875 56 
Q 33.9375 56 38.28125 53.609375 
Q 42.625 51.21875 45.40625 46.390625 
L 45.40625 54.6875 
L 54.390625 54.6875 
z
" id="DejaVuSans-103"/>
       <path d="M 45.40625 46.390625 
L 45.40625 75.984375 
L 54.390625 75.984375 
L 54.390625 0 
L 45.40625 0 
L 45.40625 8.203125 
Q 42.578125 3.328125 38.25 0.953125 
Q 33.9375 -1.421875 27.875 -1.421875 
Q 17.96875 -1.421875 11.734375 6.484375 
Q 5.515625 14.40625 5.515625 27.296875 
Q 5.515625 40.1875 11.734375 48.09375 
Q 17.96875 56 27.875 56 
Q 33.9375 56 38.25 53.625 
Q 42.578125 51.265625 45.40625 46.390625 
z
M 14.796875 27.296875 
Q 14.796875 17.390625 18.875 11.75 
Q 22.953125 6.109375 30.078125 6.109375 
Q 37.203125 6.109375 41.296875 11.75 
Q 45.40625 17.390625 45.40625 27.296875 
Q 45.40625 37.203125 41.296875 42.84375 
Q 37.203125 48.484375 30.078125 48.484375 
Q 22.953125 48.484375 18.875 42.84375 
Q 14.796875 37.203125 14.796875 27.296875 
z
" id="DejaVuSans-100"/>
      </defs>
      <g transform="translate(147.816375 541.43375)rotate(-90)scale(0.12 -0.12)">
       <use xlink:href="#DejaVuSans-49"/>
       <use x="63.623047" xlink:href="#DejaVuSans-95"/>
       <use x="113.623047" xlink:href="#DejaVuSans-109"/>
       <use x="211.035156" xlink:href="#DejaVuSans-101"/>
       <use x="272.558594" xlink:href="#DejaVuSans-110"/>
       <use x="335.9375" xlink:href="#DejaVuSans-116"/>
       <use x="375.146484" xlink:href="#DejaVuSans-97"/>
       <use x="436.425781" xlink:href="#DejaVuSans-108"/>
       <use x="464.208984" xlink:href="#DejaVuSans-95"/>
       <use x="514.208984" xlink:href="#DejaVuSans-97"/>
       <use x="575.488281" xlink:href="#DejaVuSans-110"/>
       <use x="638.867188" xlink:href="#DejaVuSans-120"/>
       <use x="698.046875" xlink:href="#DejaVuSans-105"/>
       <use x="725.830078" xlink:href="#DejaVuSans-101"/>
       <use x="787.353516" xlink:href="#DejaVuSans-116"/>
       <use x="826.5625" xlink:href="#DejaVuSans-105"/>
       <use x="854.345703" xlink:href="#DejaVuSans-95"/>
       <use x="904.345703" xlink:href="#DejaVuSans-112"/>
       <use x="967.822266" xlink:href="#DejaVuSans-115"/>
       <use x="1019.921875" xlink:href="#DejaVuSans-121"/>
       <use x="1079.101562" xlink:href="#DejaVuSans-99"/>
       <use x="1134.082031" xlink:href="#DejaVuSans-104"/>
       <use x="1197.460938" xlink:href="#DejaVuSans-111"/>
       <use x="1258.642578" xlink:href="#DejaVuSans-108"/>
       <use x="1286.425781" xlink:href="#DejaVuSans-111"/>
       <use x="1347.607422" xlink:href="#DejaVuSans-103"/>
       <use x="1411.083984" xlink:href="#DejaVuSans-95"/>
       <use x="1461.083984" xlink:href="#DejaVuSans-100"/>
       <use x="1524.560547" xlink:href="#DejaVuSans-101"/>
       <use x="1586.083984" xlink:href="#DejaVuSans-112"/>
       <use x="1649.560547" xlink:href="#DejaVuSans-114"/>
       <use x="1690.642578" xlink:href="#DejaVuSans-101"/>
       <use x="1752.166016" xlink:href="#DejaVuSans-115"/>
       <use x="1804.265625" xlink:href="#DejaVuSans-115"/>
      </g>
     </g>
    </g>
    <g id="xtick_3">
     <g id="line2d_3">
      <g>
       <use style="stroke:#000000;stroke-width:0.8;" x="222.73" xlink:href="#m4012880f61" y="311.665"/>
      </g>
     </g>
     <g id="text_3">
      <!-- 2_children_child_parent_youth -->
      <defs>
       <path d="M 19.1875 8.296875 
L 53.609375 8.296875 
L 53.609375 0 
L 7.328125 0 
L 7.328125 8.296875 
Q 12.9375 14.109375 22.625 23.890625 
Q 32.328125 33.6875 34.8125 36.53125 
Q 39.546875 41.84375 41.421875 45.53125 
Q 43.3125 49.21875 43.3125 52.78125 
Q 43.3125 58.59375 39.234375 62.25 
Q 35.15625 65.921875 28.609375 65.921875 
Q 23.96875 65.921875 18.8125 64.3125 
Q 13.671875 62.703125 7.8125 59.421875 
L 7.8125 69.390625 
Q 13.765625 71.78125 18.9375 73 
Q 24.125 74.21875 28.421875 74.21875 
Q 39.75 74.21875 46.484375 68.546875 
Q 53.21875 62.890625 53.21875 53.421875 
Q 53.21875 48.921875 51.53125 44.890625 
Q 49.859375 40.875 45.40625 35.40625 
Q 44.1875 33.984375 37.640625 27.21875 
Q 31.109375 20.453125 19.1875 8.296875 
z
" id="DejaVuSans-50"/>
      </defs>
      <g transform="translate(225.874375 501.149375)rotate(-90)scale(0.12 -0.12)">
       <use xlink:href="#DejaVuSans-50"/>
       <use x="63.623047" xlink:href="#DejaVuSans-95"/>
       <use x="113.623047" xlink:href="#DejaVuSans-99"/>
       <use x="168.603516" xlink:href="#DejaVuSans-104"/>
       <use x="231.982422" xlink:href="#DejaVuSans-105"/>
       <use x="259.765625" xlink:href="#DejaVuSans-108"/>
       <use x="287.548828" xlink:href="#DejaVuSans-100"/>
       <use x="351.025391" xlink:href="#DejaVuSans-114"/>
       <use x="392.107422" xlink:href="#DejaVuSans-101"/>
       <use x="453.630859" xlink:href="#DejaVuSans-110"/>
       <use x="517.009766" xlink:href="#DejaVuSans-95"/>
       <use x="567.009766" xlink:href="#DejaVuSans-99"/>
       <use x="621.990234" xlink:href="#DejaVuSans-104"/>
       <use x="685.369141" xlink:href="#DejaVuSans-105"/>
       <use x="713.152344" xlink:href="#DejaVuSans-108"/>
       <use x="740.935547" xlink:href="#DejaVuSans-100"/>
       <use x="804.412109" xlink:href="#DejaVuSans-95"/>
       <use x="854.412109" xlink:href="#DejaVuSans-112"/>
       <use x="917.888672" xlink:href="#DejaVuSans-97"/>
       <use x="979.167969" xlink:href="#DejaVuSans-114"/>
       <use x="1020.25" xlink:href="#DejaVuSans-101"/>
       <use x="1081.773438" xlink:href="#DejaVuSans-110"/>
       <use x="1145.152344" xlink:href="#DejaVuSans-116"/>
       <use x="1184.361328" xlink:href="#DejaVuSans-95"/>
       <use x="1234.361328" xlink:href="#DejaVuSans-121"/>
       <use x="1293.541016" xlink:href="#DejaVuSans-111"/>
       <use x="1354.722656" xlink:href="#DejaVuSans-117"/>
       <use x="1418.101562" xlink:href="#DejaVuSans-116"/>
       <use x="1457.310547" xlink:href="#DejaVuSans-104"/>
      </g>
     </g>
    </g>
    <g id="xtick_4">
     <g id="line2d_4">
      <g>
       <use style="stroke:#000000;stroke-width:0.8;" x="300.788" xlink:href="#m4012880f61" y="311.665"/>
      </g>
     </g>
     <g id="text_4">
      <!-- 3_mask_face_protect_visor -->
      <defs>
       <path d="M 40.578125 39.3125 
Q 47.65625 37.796875 51.625 33 
Q 55.609375 28.21875 55.609375 21.1875 
Q 55.609375 10.40625 48.1875 4.484375 
Q 40.765625 -1.421875 27.09375 -1.421875 
Q 22.515625 -1.421875 17.65625 -0.515625 
Q 12.796875 0.390625 7.625 2.203125 
L 7.625 11.71875 
Q 11.71875 9.328125 16.59375 8.109375 
Q 21.484375 6.890625 26.8125 6.890625 
Q 36.078125 6.890625 40.9375 10.546875 
Q 45.796875 14.203125 45.796875 21.1875 
Q 45.796875 27.640625 41.28125 31.265625 
Q 36.765625 34.90625 28.71875 34.90625 
L 20.21875 34.90625 
L 20.21875 43.015625 
L 29.109375 43.015625 
Q 36.375 43.015625 40.234375 45.921875 
Q 44.09375 48.828125 44.09375 54.296875 
Q 44.09375 59.90625 40.109375 62.90625 
Q 36.140625 65.921875 28.71875 65.921875 
Q 24.65625 65.921875 20.015625 65.03125 
Q 15.375 64.15625 9.8125 62.3125 
L 9.8125 71.09375 
Q 15.4375 72.65625 20.34375 73.4375 
Q 25.25 74.21875 29.59375 74.21875 
Q 40.828125 74.21875 47.359375 69.109375 
Q 53.90625 64.015625 53.90625 55.328125 
Q 53.90625 49.265625 50.4375 45.09375 
Q 46.96875 40.921875 40.578125 39.3125 
z
" id="DejaVuSans-51"/>
       <path d="M 9.078125 75.984375 
L 18.109375 75.984375 
L 18.109375 31.109375 
L 44.921875 54.6875 
L 56.390625 54.6875 
L 27.390625 29.109375 
L 57.625 0 
L 45.90625 0 
L 18.109375 26.703125 
L 18.109375 0 
L 9.078125 0 
z
" id="DejaVuSans-107"/>
       <path d="M 37.109375 75.984375 
L 37.109375 68.5 
L 28.515625 68.5 
Q 23.6875 68.5 21.796875 66.546875 
Q 19.921875 64.59375 19.921875 59.515625 
L 19.921875 54.6875 
L 34.71875 54.6875 
L 34.71875 47.703125 
L 19.921875 47.703125 
L 19.921875 0 
L 10.890625 0 
L 10.890625 47.703125 
L 2.296875 47.703125 
L 2.296875 54.6875 
L 10.890625 54.6875 
L 10.890625 58.5 
Q 10.890625 67.625 15.140625 71.796875 
Q 19.390625 75.984375 28.609375 75.984375 
z
" id="DejaVuSans-102"/>
      </defs>
      <g transform="translate(303.932375 480.34625)rotate(-90)scale(0.12 -0.12)">
       <use xlink:href="#DejaVuSans-51"/>
       <use x="63.623047" xlink:href="#DejaVuSans-95"/>
       <use x="113.623047" xlink:href="#DejaVuSans-109"/>
       <use x="211.035156" xlink:href="#DejaVuSans-97"/>
       <use x="272.314453" xlink:href="#DejaVuSans-115"/>
       <use x="324.414062" xlink:href="#DejaVuSans-107"/>
       <use x="382.324219" xlink:href="#DejaVuSans-95"/>
       <use x="432.324219" xlink:href="#DejaVuSans-102"/>
       <use x="467.529297" xlink:href="#DejaVuSans-97"/>
       <use x="528.808594" xlink:href="#DejaVuSans-99"/>
       <use x="583.789062" xlink:href="#DejaVuSans-101"/>
       <use x="645.3125" xlink:href="#DejaVuSans-95"/>
       <use x="695.3125" xlink:href="#DejaVuSans-112"/>
       <use x="758.789062" xlink:href="#DejaVuSans-114"/>
       <use x="799.871094" xlink:href="#DejaVuSans-111"/>
       <use x="861.052734" xlink:href="#DejaVuSans-116"/>
       <use x="900.261719" xlink:href="#DejaVuSans-101"/>
       <use x="961.785156" xlink:href="#DejaVuSans-99"/>
       <use x="1016.765625" xlink:href="#DejaVuSans-116"/>
       <use x="1055.974609" xlink:href="#DejaVuSans-95"/>
       <use x="1105.974609" xlink:href="#DejaVuSans-118"/>
       <use x="1165.154297" xlink:href="#DejaVuSans-105"/>
       <use x="1192.9375" xlink:href="#DejaVuSans-115"/>
       <use x="1245.037109" xlink:href="#DejaVuSans-111"/>
       <use x="1306.21875" xlink:href="#DejaVuSans-114"/>
      </g>
     </g>
    </g>
    <g id="xtick_5">
     <g id="line2d_5">
      <g>
       <use style="stroke:#000000;stroke-width:0.8;" x="378.846" xlink:href="#m4012880f61" y="311.665"/>
      </g>
     </g>
     <g id="text_5">
      <!-- 4_vaccin_antigen_immun_antibodi -->
      <defs>
       <path d="M 37.796875 64.3125 
L 12.890625 25.390625 
L 37.796875 25.390625 
z
M 35.203125 72.90625 
L 47.609375 72.90625 
L 47.609375 25.390625 
L 58.015625 25.390625 
L 58.015625 17.1875 
L 47.609375 17.1875 
L 47.609375 0 
L 37.796875 0 
L 37.796875 17.1875 
L 4.890625 17.1875 
L 4.890625 26.703125 
z
" id="DejaVuSans-52"/>
       <path d="M 48.6875 27.296875 
Q 48.6875 37.203125 44.609375 42.84375 
Q 40.53125 48.484375 33.40625 48.484375 
Q 26.265625 48.484375 22.1875 42.84375 
Q 18.109375 37.203125 18.109375 27.296875 
Q 18.109375 17.390625 22.1875 11.75 
Q 26.265625 6.109375 33.40625 6.109375 
Q 40.53125 6.109375 44.609375 11.75 
Q 48.6875 17.390625 48.6875 27.296875 
z
M 18.109375 46.390625 
Q 20.953125 51.265625 25.265625 53.625 
Q 29.59375 56 35.59375 56 
Q 45.5625 56 51.78125 48.09375 
Q 58.015625 40.1875 58.015625 27.296875 
Q 58.015625 14.40625 51.78125 6.484375 
Q 45.5625 -1.421875 35.59375 -1.421875 
Q 29.59375 -1.421875 25.265625 0.953125 
Q 20.953125 3.328125 18.109375 8.203125 
L 18.109375 0 
L 9.078125 0 
L 9.078125 75.984375 
L 18.109375 75.984375 
z
" id="DejaVuSans-98"/>
      </defs>
      <g transform="translate(381.990375 525.325625)rotate(-90)scale(0.12 -0.12)">
       <use xlink:href="#DejaVuSans-52"/>
       <use x="63.623047" xlink:href="#DejaVuSans-95"/>
       <use x="113.623047" xlink:href="#DejaVuSans-118"/>
       <use x="172.802734" xlink:href="#DejaVuSans-97"/>
       <use x="234.082031" xlink:href="#DejaVuSans-99"/>
       <use x="289.0625" xlink:href="#DejaVuSans-99"/>
       <use x="344.042969" xlink:href="#DejaVuSans-105"/>
       <use x="371.826172" xlink:href="#DejaVuSans-110"/>
       <use x="435.205078" xlink:href="#DejaVuSans-95"/>
       <use x="485.205078" xlink:href="#DejaVuSans-97"/>
       <use x="546.484375" xlink:href="#DejaVuSans-110"/>
       <use x="609.863281" xlink:href="#DejaVuSans-116"/>
       <use x="649.072266" xlink:href="#DejaVuSans-105"/>
       <use x="676.855469" xlink:href="#DejaVuSans-103"/>
       <use x="740.332031" xlink:href="#DejaVuSans-101"/>
       <use x="801.855469" xlink:href="#DejaVuSans-110"/>
       <use x="865.234375" xlink:href="#DejaVuSans-95"/>
       <use x="915.234375" xlink:href="#DejaVuSans-105"/>
       <use x="943.017578" xlink:href="#DejaVuSans-109"/>
       <use x="1040.429688" xlink:href="#DejaVuSans-109"/>
       <use x="1137.841797" xlink:href="#DejaVuSans-117"/>
       <use x="1201.220703" xlink:href="#DejaVuSans-110"/>
       <use x="1264.599609" xlink:href="#DejaVuSans-95"/>
       <use x="1314.599609" xlink:href="#DejaVuSans-97"/>
       <use x="1375.878906" xlink:href="#DejaVuSans-110"/>
       <use x="1439.257812" xlink:href="#DejaVuSans-116"/>
       <use x="1478.466797" xlink:href="#DejaVuSans-105"/>
       <use x="1506.25" xlink:href="#DejaVuSans-98"/>
       <use x="1569.726562" xlink:href="#DejaVuSans-111"/>
       <use x="1630.908203" xlink:href="#DejaVuSans-100"/>
       <use x="1694.384766" xlink:href="#DejaVuSans-105"/>
      </g>
     </g>
    </g>
    <g id="xtick_6">
     <g id="line2d_6">
      <g>
       <use style="stroke:#000000;stroke-width:0.8;" x="456.904" xlink:href="#m4012880f61" y="311.665"/>
      </g>
     </g>
     <g id="text_6">
      <!-- 5_outbreak_infecti_transmiss_epidem -->
      <defs>
       <path d="M 10.796875 72.90625 
L 49.515625 72.90625 
L 49.515625 64.59375 
L 19.828125 64.59375 
L 19.828125 46.734375 
Q 21.96875 47.46875 24.109375 47.828125 
Q 26.265625 48.1875 28.421875 48.1875 
Q 40.625 48.1875 47.75 41.5 
Q 54.890625 34.8125 54.890625 23.390625 
Q 54.890625 11.625 47.5625 5.09375 
Q 40.234375 -1.421875 26.90625 -1.421875 
Q 22.3125 -1.421875 17.546875 -0.640625 
Q 12.796875 0.140625 7.71875 1.703125 
L 7.71875 11.625 
Q 12.109375 9.234375 16.796875 8.0625 
Q 21.484375 6.890625 26.703125 6.890625 
Q 35.15625 6.890625 40.078125 11.328125 
Q 45.015625 15.765625 45.015625 23.390625 
Q 45.015625 31 40.078125 35.4375 
Q 35.15625 39.890625 26.703125 39.890625 
Q 22.75 39.890625 18.8125 39.015625 
Q 14.890625 38.140625 10.796875 36.28125 
z
" id="DejaVuSans-53"/>
      </defs>
      <g transform="translate(460.048375 544.7675)rotate(-90)scale(0.12 -0.12)">
       <use xlink:href="#DejaVuSans-53"/>
       <use x="63.623047" xlink:href="#DejaVuSans-95"/>
       <use x="113.623047" xlink:href="#DejaVuSans-111"/>
       <use x="174.804688" xlink:href="#DejaVuSans-117"/>
       <use x="238.183594" xlink:href="#DejaVuSans-116"/>
       <use x="277.392578" xlink:href="#DejaVuSans-98"/>
       <use x="340.869141" xlink:href="#DejaVuSans-114"/>
       <use x="381.951172" xlink:href="#DejaVuSans-101"/>
       <use x="443.474609" xlink:href="#DejaVuSans-97"/>
       <use x="504.753906" xlink:href="#DejaVuSans-107"/>
       <use x="562.664062" xlink:href="#DejaVuSans-95"/>
       <use x="612.664062" xlink:href="#DejaVuSans-105"/>
       <use x="640.447266" xlink:href="#DejaVuSans-110"/>
       <use x="703.826172" xlink:href="#DejaVuSans-102"/>
       <use x="739.03125" xlink:href="#DejaVuSans-101"/>
       <use x="800.554688" xlink:href="#DejaVuSans-99"/>
       <use x="855.535156" xlink:href="#DejaVuSans-116"/>
       <use x="894.744141" xlink:href="#DejaVuSans-105"/>
       <use x="922.527344" xlink:href="#DejaVuSans-95"/>
       <use x="972.527344" xlink:href="#DejaVuSans-116"/>
       <use x="1011.736328" xlink:href="#DejaVuSans-114"/>
       <use x="1052.849609" xlink:href="#DejaVuSans-97"/>
       <use x="1114.128906" xlink:href="#DejaVuSans-110"/>
       <use x="1177.507812" xlink:href="#DejaVuSans-115"/>
       <use x="1229.607422" xlink:href="#DejaVuSans-109"/>
       <use x="1327.019531" xlink:href="#DejaVuSans-105"/>
       <use x="1354.802734" xlink:href="#DejaVuSans-115"/>
       <use x="1406.902344" xlink:href="#DejaVuSans-115"/>
       <use x="1459.001953" xlink:href="#DejaVuSans-95"/>
       <use x="1509.001953" xlink:href="#DejaVuSans-101"/>
       <use x="1570.525391" xlink:href="#DejaVuSans-112"/>
       <use x="1634.001953" xlink:href="#DejaVuSans-105"/>
       <use x="1661.785156" xlink:href="#DejaVuSans-100"/>
       <use x="1725.261719" xlink:href="#DejaVuSans-101"/>
       <use x="1786.785156" xlink:href="#DejaVuSans-109"/>
      </g>
     </g>
    </g>
    <g id="xtick_7">
     <g id="line2d_7">
      <g>
       <use style="stroke:#000000;stroke-width:0.8;" x="534.962" xlink:href="#m4012880f61" y="311.665"/>
      </g>
     </g>
     <g id="text_7">
      <!-- 7_food_fish_retail_restaur -->
      <defs>
       <path d="M 8.203125 72.90625 
L 55.078125 72.90625 
L 55.078125 68.703125 
L 28.609375 0 
L 18.3125 0 
L 43.21875 64.59375 
L 8.203125 64.59375 
z
" id="DejaVuSans-55"/>
      </defs>
      <g transform="translate(538.106375 472.44125)rotate(-90)scale(0.12 -0.12)">
       <use xlink:href="#DejaVuSans-55"/>
       <use x="63.623047" xlink:href="#DejaVuSans-95"/>
       <use x="113.623047" xlink:href="#DejaVuSans-102"/>
       <use x="148.828125" xlink:href="#DejaVuSans-111"/>
       <use x="210.009766" xlink:href="#DejaVuSans-111"/>
       <use x="271.191406" xlink:href="#DejaVuSans-100"/>
       <use x="334.667969" xlink:href="#DejaVuSans-95"/>
       <use x="384.667969" xlink:href="#DejaVuSans-102"/>
       <use x="419.873047" xlink:href="#DejaVuSans-105"/>
       <use x="447.65625" xlink:href="#DejaVuSans-115"/>
       <use x="499.755859" xlink:href="#DejaVuSans-104"/>
       <use x="563.134766" xlink:href="#DejaVuSans-95"/>
       <use x="613.134766" xlink:href="#DejaVuSans-114"/>
       <use x="654.216797" xlink:href="#DejaVuSans-101"/>
       <use x="715.740234" xlink:href="#DejaVuSans-116"/>
       <use x="754.949219" xlink:href="#DejaVuSans-97"/>
       <use x="816.228516" xlink:href="#DejaVuSans-105"/>
       <use x="844.011719" xlink:href="#DejaVuSans-108"/>
       <use x="871.794922" xlink:href="#DejaVuSans-95"/>
       <use x="921.794922" xlink:href="#DejaVuSans-114"/>
       <use x="962.876953" xlink:href="#DejaVuSans-101"/>
       <use x="1024.400391" xlink:href="#DejaVuSans-115"/>
       <use x="1076.5" xlink:href="#DejaVuSans-116"/>
       <use x="1115.708984" xlink:href="#DejaVuSans-97"/>
       <use x="1176.988281" xlink:href="#DejaVuSans-117"/>
       <use x="1240.367188" xlink:href="#DejaVuSans-114"/>
      </g>
     </g>
    </g>
    <g id="xtick_8">
     <g id="line2d_8">
      <g>
       <use style="stroke:#000000;stroke-width:0.8;" x="613.02" xlink:href="#m4012880f61" y="311.665"/>
      </g>
     </g>
     <g id="text_8">
      <!-- 6_student_teach_teacher_learn -->
      <defs>
       <path d="M 33.015625 40.375 
Q 26.375 40.375 22.484375 35.828125 
Q 18.609375 31.296875 18.609375 23.390625 
Q 18.609375 15.53125 22.484375 10.953125 
Q 26.375 6.390625 33.015625 6.390625 
Q 39.65625 6.390625 43.53125 10.953125 
Q 47.40625 15.53125 47.40625 23.390625 
Q 47.40625 31.296875 43.53125 35.828125 
Q 39.65625 40.375 33.015625 40.375 
z
M 52.59375 71.296875 
L 52.59375 62.3125 
Q 48.875 64.0625 45.09375 64.984375 
Q 41.3125 65.921875 37.59375 65.921875 
Q 27.828125 65.921875 22.671875 59.328125 
Q 17.53125 52.734375 16.796875 39.40625 
Q 19.671875 43.65625 24.015625 45.921875 
Q 28.375 48.1875 33.59375 48.1875 
Q 44.578125 48.1875 50.953125 41.515625 
Q 57.328125 34.859375 57.328125 23.390625 
Q 57.328125 12.15625 50.6875 5.359375 
Q 44.046875 -1.421875 33.015625 -1.421875 
Q 20.359375 -1.421875 13.671875 8.265625 
Q 6.984375 17.96875 6.984375 36.375 
Q 6.984375 53.65625 15.1875 63.9375 
Q 23.390625 74.21875 37.203125 74.21875 
Q 40.921875 74.21875 44.703125 73.484375 
Q 48.484375 72.75 52.59375 71.296875 
z
" id="DejaVuSans-54"/>
      </defs>
      <g transform="translate(616.164375 506.38625)rotate(-90)scale(0.12 -0.12)">
       <use xlink:href="#DejaVuSans-54"/>
       <use x="63.623047" xlink:href="#DejaVuSans-95"/>
       <use x="113.623047" xlink:href="#DejaVuSans-115"/>
       <use x="165.722656" xlink:href="#DejaVuSans-116"/>
       <use x="204.931641" xlink:href="#DejaVuSans-117"/>
       <use x="268.310547" xlink:href="#DejaVuSans-100"/>
       <use x="331.787109" xlink:href="#DejaVuSans-101"/>
       <use x="393.310547" xlink:href="#DejaVuSans-110"/>
       <use x="456.689453" xlink:href="#DejaVuSans-116"/>
       <use x="495.898438" xlink:href="#DejaVuSans-95"/>
       <use x="545.898438" xlink:href="#DejaVuSans-116"/>
       <use x="585.107422" xlink:href="#DejaVuSans-101"/>
       <use x="646.630859" xlink:href="#DejaVuSans-97"/>
       <use x="707.910156" xlink:href="#DejaVuSans-99"/>
       <use x="762.890625" xlink:href="#DejaVuSans-104"/>
       <use x="826.269531" xlink:href="#DejaVuSans-95"/>
       <use x="876.269531" xlink:href="#DejaVuSans-116"/>
       <use x="915.478516" xlink:href="#DejaVuSans-101"/>
       <use x="977.001953" xlink:href="#DejaVuSans-97"/>
       <use x="1038.28125" xlink:href="#DejaVuSans-99"/>
       <use x="1093.261719" xlink:href="#DejaVuSans-104"/>
       <use x="1156.640625" xlink:href="#DejaVuSans-101"/>
       <use x="1218.164062" xlink:href="#DejaVuSans-114"/>
       <use x="1259.277344" xlink:href="#DejaVuSans-95"/>
       <use x="1309.277344" xlink:href="#DejaVuSans-108"/>
       <use x="1337.060547" xlink:href="#DejaVuSans-101"/>
       <use x="1398.583984" xlink:href="#DejaVuSans-97"/>
       <use x="1459.863281" xlink:href="#DejaVuSans-114"/>
       <use x="1500.960938" xlink:href="#DejaVuSans-110"/>
      </g>
     </g>
    </g>
    <g id="xtick_9">
     <g id="line2d_9">
      <g>
       <use style="stroke:#000000;stroke-width:0.8;" x="691.078" xlink:href="#m4012880f61" y="311.665"/>
      </g>
     </g>
     <g id="text_9">
      <!-- 10_que_como_se_de -->
      <defs>
       <path d="M 14.796875 27.296875 
Q 14.796875 17.390625 18.875 11.75 
Q 22.953125 6.109375 30.078125 6.109375 
Q 37.203125 6.109375 41.296875 11.75 
Q 45.40625 17.390625 45.40625 27.296875 
Q 45.40625 37.203125 41.296875 42.84375 
Q 37.203125 48.484375 30.078125 48.484375 
Q 22.953125 48.484375 18.875 42.84375 
Q 14.796875 37.203125 14.796875 27.296875 
z
M 45.40625 8.203125 
Q 42.578125 3.328125 38.25 0.953125 
Q 33.9375 -1.421875 27.875 -1.421875 
Q 17.96875 -1.421875 11.734375 6.484375 
Q 5.515625 14.40625 5.515625 27.296875 
Q 5.515625 40.1875 11.734375 48.09375 
Q 17.96875 56 27.875 56 
Q 33.9375 56 38.25 53.625 
Q 42.578125 51.265625 45.40625 46.390625 
L 45.40625 54.6875 
L 54.390625 54.6875 
L 54.390625 -20.796875 
L 45.40625 -20.796875 
z
" id="DejaVuSans-113"/>
      </defs>
      <g transform="translate(694.222375 442.150625)rotate(-90)scale(0.12 -0.12)">
       <use xlink:href="#DejaVuSans-49"/>
       <use x="63.623047" xlink:href="#DejaVuSans-48"/>
       <use x="127.246094" xlink:href="#DejaVuSans-95"/>
       <use x="177.246094" xlink:href="#DejaVuSans-113"/>
       <use x="240.722656" xlink:href="#DejaVuSans-117"/>
       <use x="304.101562" xlink:href="#DejaVuSans-101"/>
       <use x="365.625" xlink:href="#DejaVuSans-95"/>
       <use x="415.625" xlink:href="#DejaVuSans-99"/>
       <use x="470.605469" xlink:href="#DejaVuSans-111"/>
       <use x="531.787109" xlink:href="#DejaVuSans-109"/>
       <use x="629.199219" xlink:href="#DejaVuSans-111"/>
       <use x="690.380859" xlink:href="#DejaVuSans-95"/>
       <use x="740.380859" xlink:href="#DejaVuSans-115"/>
       <use x="792.480469" xlink:href="#DejaVuSans-101"/>
       <use x="854.003906" xlink:href="#DejaVuSans-95"/>
       <use x="904.003906" xlink:href="#DejaVuSans-100"/>
       <use x="967.480469" xlink:href="#DejaVuSans-101"/>
      </g>
     </g>
    </g>
    <g id="xtick_10">
     <g id="line2d_10">
      <g>
       <use style="stroke:#000000;stroke-width:0.8;" x="769.136" xlink:href="#m4012880f61" y="311.665"/>
      </g>
     </g>
     <g id="text_10">
      <!-- 9_spread_predict_mathemat_forecast -->
      <defs>
       <path d="M 10.984375 1.515625 
L 10.984375 10.5 
Q 14.703125 8.734375 18.5 7.8125 
Q 22.3125 6.890625 25.984375 6.890625 
Q 35.75 6.890625 40.890625 13.453125 
Q 46.046875 20.015625 46.78125 33.40625 
Q 43.953125 29.203125 39.59375 26.953125 
Q 35.25 24.703125 29.984375 24.703125 
Q 19.046875 24.703125 12.671875 31.3125 
Q 6.296875 37.9375 6.296875 49.421875 
Q 6.296875 60.640625 12.9375 67.421875 
Q 19.578125 74.21875 30.609375 74.21875 
Q 43.265625 74.21875 49.921875 64.515625 
Q 56.59375 54.828125 56.59375 36.375 
Q 56.59375 19.140625 48.40625 8.859375 
Q 40.234375 -1.421875 26.421875 -1.421875 
Q 22.703125 -1.421875 18.890625 -0.6875 
Q 15.09375 0.046875 10.984375 1.515625 
z
M 30.609375 32.421875 
Q 37.25 32.421875 41.125 36.953125 
Q 45.015625 41.5 45.015625 49.421875 
Q 45.015625 57.28125 41.125 61.84375 
Q 37.25 66.40625 30.609375 66.40625 
Q 23.96875 66.40625 20.09375 61.84375 
Q 16.21875 57.28125 16.21875 49.421875 
Q 16.21875 41.5 20.09375 36.953125 
Q 23.96875 32.421875 30.609375 32.421875 
z
" id="DejaVuSans-57"/>
      </defs>
      <g transform="translate(772.280375 544.91)rotate(-90)scale(0.12 -0.12)">
       <use xlink:href="#DejaVuSans-57"/>
       <use x="63.623047" xlink:href="#DejaVuSans-95"/>
       <use x="113.623047" xlink:href="#DejaVuSans-115"/>
       <use x="165.722656" xlink:href="#DejaVuSans-112"/>
       <use x="229.199219" xlink:href="#DejaVuSans-114"/>
       <use x="270.28125" xlink:href="#DejaVuSans-101"/>
       <use x="331.804688" xlink:href="#DejaVuSans-97"/>
       <use x="393.083984" xlink:href="#DejaVuSans-100"/>
       <use x="456.560547" xlink:href="#DejaVuSans-95"/>
       <use x="506.560547" xlink:href="#DejaVuSans-112"/>
       <use x="570.037109" xlink:href="#DejaVuSans-114"/>
       <use x="611.119141" xlink:href="#DejaVuSans-101"/>
       <use x="672.642578" xlink:href="#DejaVuSans-100"/>
       <use x="736.119141" xlink:href="#DejaVuSans-105"/>
       <use x="763.902344" xlink:href="#DejaVuSans-99"/>
       <use x="818.882812" xlink:href="#DejaVuSans-116"/>
       <use x="858.091797" xlink:href="#DejaVuSans-95"/>
       <use x="908.091797" xlink:href="#DejaVuSans-109"/>
       <use x="1005.503906" xlink:href="#DejaVuSans-97"/>
       <use x="1066.783203" xlink:href="#DejaVuSans-116"/>
       <use x="1105.992188" xlink:href="#DejaVuSans-104"/>
       <use x="1169.371094" xlink:href="#DejaVuSans-101"/>
       <use x="1230.894531" xlink:href="#DejaVuSans-109"/>
       <use x="1328.306641" xlink:href="#DejaVuSans-97"/>
       <use x="1389.585938" xlink:href="#DejaVuSans-116"/>
       <use x="1428.794922" xlink:href="#DejaVuSans-95"/>
       <use x="1478.794922" xlink:href="#DejaVuSans-102"/>
       <use x="1514" xlink:href="#DejaVuSans-111"/>
       <use x="1575.181641" xlink:href="#DejaVuSans-114"/>
       <use x="1616.263672" xlink:href="#DejaVuSans-101"/>
       <use x="1677.787109" xlink:href="#DejaVuSans-99"/>
       <use x="1732.767578" xlink:href="#DejaVuSans-97"/>
       <use x="1794.046875" xlink:href="#DejaVuSans-115"/>
       <use x="1846.146484" xlink:href="#DejaVuSans-116"/>
      </g>
     </g>
    </g>
    <g id="text_11">
     <!-- Name -->
     <defs>
      <path d="M 9.8125 72.90625 
L 23.09375 72.90625 
L 55.421875 11.921875 
L 55.421875 72.90625 
L 64.984375 72.90625 
L 64.984375 0 
L 51.703125 0 
L 19.390625 60.984375 
L 19.390625 0 
L 9.8125 0 
z
" id="DejaVuSans-78"/>
     </defs>
     <g transform="translate(400.173125 558.028125)scale(0.12 -0.12)">
      <use xlink:href="#DejaVuSans-78"/>
      <use x="74.804688" xlink:href="#DejaVuSans-97"/>
      <use x="136.083984" xlink:href="#DejaVuSans-109"/>
      <use x="233.496094" xlink:href="#DejaVuSans-101"/>
     </g>
    </g>
   </g>
   <g id="matplotlib.axis_2">
    <g id="ytick_1">
     <g id="line2d_11">
      <defs>
       <path d="M 0 0 
L -3.5 0 
" id="md9859acb75" style="stroke:#000000;stroke-width:0.8;"/>
      </defs>
      <g>
       <use style="stroke:#000000;stroke-width:0.8;" x="27.585" xlink:href="#md9859acb75" y="311.665"/>
      </g>
     </g>
     <g id="text_12">
      <!-- 0 -->
      <g transform="translate(12.95 316.224063)scale(0.12 -0.12)">
       <use xlink:href="#DejaVuSans-48"/>
      </g>
     </g>
    </g>
    <g id="ytick_2">
     <g id="line2d_12">
      <g>
       <use style="stroke:#000000;stroke-width:0.8;" x="27.585" xlink:href="#md9859acb75" y="260.842495"/>
      </g>
     </g>
     <g id="text_13">
      <!-- 1 -->
      <g transform="translate(12.95 265.401558)scale(0.12 -0.12)">
       <use xlink:href="#DejaVuSans-49"/>
      </g>
     </g>
    </g>
    <g id="ytick_3">
     <g id="line2d_13">
      <g>
       <use style="stroke:#000000;stroke-width:0.8;" x="27.585" xlink:href="#md9859acb75" y="210.01999"/>
      </g>
     </g>
     <g id="text_14">
      <!-- 2 -->
      <g transform="translate(12.95 214.579053)scale(0.12 -0.12)">
       <use xlink:href="#DejaVuSans-50"/>
      </g>
     </g>
    </g>
    <g id="ytick_4">
     <g id="line2d_14">
      <g>
       <use style="stroke:#000000;stroke-width:0.8;" x="27.585" xlink:href="#md9859acb75" y="159.197485"/>
      </g>
     </g>
     <g id="text_15">
      <!-- 3 -->
      <g transform="translate(12.95 163.756548)scale(0.12 -0.12)">
       <use xlink:href="#DejaVuSans-51"/>
      </g>
     </g>
    </g>
    <g id="ytick_5">
     <g id="line2d_15">
      <g>
       <use style="stroke:#000000;stroke-width:0.8;" x="27.585" xlink:href="#md9859acb75" y="108.374981"/>
      </g>
     </g>
     <g id="text_16">
      <!-- 4 -->
      <g transform="translate(12.95 112.934043)scale(0.12 -0.12)">
       <use xlink:href="#DejaVuSans-52"/>
      </g>
     </g>
    </g>
    <g id="ytick_6">
     <g id="line2d_16">
      <g>
       <use style="stroke:#000000;stroke-width:0.8;" x="27.585" xlink:href="#md9859acb75" y="57.552476"/>
      </g>
     </g>
     <g id="text_17">
      <!-- 5 -->
      <g transform="translate(12.95 62.111538)scale(0.12 -0.12)">
       <use xlink:href="#DejaVuSans-53"/>
      </g>
     </g>
    </g>
   </g>
   <g id="patch_13">
    <path d="M 27.585 311.665 
L 27.585 29.96 
" style="fill:none;stroke:#000000;stroke-linecap:square;stroke-linejoin:miter;stroke-width:0.8;"/>
   </g>
   <g id="patch_14">
    <path d="M 808.165 311.665 
L 808.165 29.96 
" style="fill:none;stroke:#000000;stroke-linecap:square;stroke-linejoin:miter;stroke-width:0.8;"/>
   </g>
   <g id="patch_15">
    <path d="M 27.585 311.665 
L 808.165 311.665 
" style="fill:none;stroke:#000000;stroke-linecap:square;stroke-linejoin:miter;stroke-width:0.8;"/>
   </g>
   <g id="patch_16">
    <path d="M 27.585 29.96 
L 808.165 29.96 
" style="fill:none;stroke:#000000;stroke-linecap:square;stroke-linejoin:miter;stroke-width:0.8;"/>
   </g>
   <g id="legend_1">
    <g id="patch_17">
     <path d="M 681.488125 75.12125 
L 799.765 75.12125 
Q 802.165 75.12125 802.165 72.72125 
L 802.165 38.36 
Q 802.165 35.96 799.765 35.96 
L 681.488125 35.96 
Q 679.088125 35.96 679.088125 38.36 
L 679.088125 72.72125 
Q 679.088125 75.12125 681.488125 75.12125 
z
" style="fill:#ffffff;opacity:0.8;stroke:#cccccc;stroke-linejoin:miter;"/>
    </g>
    <g id="patch_18">
     <path d="M 683.888125 49.878125 
L 707.888125 49.878125 
L 707.888125 41.478125 
L 683.888125 41.478125 
z
" style="fill:#3754b3;"/>
    </g>
    <g id="text_18">
     <!-- europe -->
     <g transform="translate(717.488125 49.878125)scale(0.12 -0.12)">
      <use xlink:href="#DejaVuSans-101"/>
      <use x="61.523438" xlink:href="#DejaVuSans-117"/>
      <use x="124.902344" xlink:href="#DejaVuSans-114"/>
      <use x="165.984375" xlink:href="#DejaVuSans-111"/>
      <use x="227.166016" xlink:href="#DejaVuSans-112"/>
      <use x="290.642578" xlink:href="#DejaVuSans-101"/>
     </g>
    </g>
    <g id="patch_19">
     <path d="M 683.888125 67.491875 
L 707.888125 67.491875 
L 707.888125 59.091875 
L 683.888125 59.091875 
z
" style="fill:#ed5a58;"/>
    </g>
    <g id="text_19">
     <!-- rest_of_world -->
     <defs>
      <path d="M 4.203125 54.6875 
L 13.1875 54.6875 
L 24.421875 12.015625 
L 35.59375 54.6875 
L 46.1875 54.6875 
L 57.421875 12.015625 
L 68.609375 54.6875 
L 77.59375 54.6875 
L 63.28125 0 
L 52.6875 0 
L 40.921875 44.828125 
L 29.109375 0 
L 18.5 0 
z
" id="DejaVuSans-119"/>
     </defs>
     <g transform="translate(717.488125 67.491875)scale(0.12 -0.12)">
      <use xlink:href="#DejaVuSans-114"/>
      <use x="41.082031" xlink:href="#DejaVuSans-101"/>
      <use x="102.605469" xlink:href="#DejaVuSans-115"/>
      <use x="154.705078" xlink:href="#DejaVuSans-116"/>
      <use x="193.914062" xlink:href="#DejaVuSans-95"/>
      <use x="243.914062" xlink:href="#DejaVuSans-111"/>
      <use x="305.095703" xlink:href="#DejaVuSans-102"/>
      <use x="340.300781" xlink:href="#DejaVuSans-95"/>
      <use x="390.300781" xlink:href="#DejaVuSans-119"/>
      <use x="472.087891" xlink:href="#DejaVuSans-111"/>
      <use x="533.269531" xlink:href="#DejaVuSans-114"/>
      <use x="574.382812" xlink:href="#DejaVuSans-108"/>
      <use x="602.166016" xlink:href="#DejaVuSans-100"/>
     </g>
    </g>
   </g>
  </g>
  <g id="axes_2">
   <g id="patch_20">
    <path clip-path="url(#p89acf69b9a)" d="M 66.614 311.665 
L 86.1285 311.665 
L 86.1285 43.374524 
L 66.614 43.374524 
z
" style="fill:#ed5a58;"/>
   </g>
   <g id="patch_21">
    <path clip-path="url(#p89acf69b9a)" d="M 144.672 311.665 
L 164.1865 311.665 
L 164.1865 141.403736 
L 144.672 141.403736 
z
" style="fill:#ed5a58;"/>
   </g>
   <g id="patch_22">
    <path clip-path="url(#p89acf69b9a)" d="M 222.73 311.665 
L 242.2445 311.665 
L 242.2445 163.761276 
L 222.73 163.761276 
z
" style="fill:#ed5a58;"/>
   </g>
   <g id="patch_23">
    <path clip-path="url(#p89acf69b9a)" d="M 300.788 311.665 
L 320.3025 311.665 
L 320.3025 234.273516 
L 300.788 234.273516 
z
" style="fill:#ed5a58;"/>
   </g>
   <g id="patch_24">
    <path clip-path="url(#p89acf69b9a)" d="M 378.846 311.665 
L 398.3605 311.665 
L 398.3605 172.36033 
L 378.846 172.36033 
z
" style="fill:#ed5a58;"/>
   </g>
   <g id="patch_25">
    <path clip-path="url(#p89acf69b9a)" d="M 456.904 311.665 
L 476.4185 311.665 
L 476.4185 184.399005 
L 456.904 184.399005 
z
" style="fill:#ed5a58;"/>
   </g>
   <g id="patch_26">
    <path clip-path="url(#p89acf69b9a)" d="M 534.962 311.665 
L 554.4765 311.665 
L 554.4765 235.993327 
L 534.962 235.993327 
z
" style="fill:#ed5a58;"/>
   </g>
   <g id="patch_27">
    <path clip-path="url(#p89acf69b9a)" d="M 613.02 311.665 
L 632.5345 311.665 
L 632.5345 199.877302 
L 613.02 199.877302 
z
" style="fill:#ed5a58;"/>
   </g>
   <g id="patch_28">
    <path clip-path="url(#p89acf69b9a)" d="M 691.078 311.665 
L 710.5925 311.665 
L 710.5925 177.519762 
L 691.078 177.519762 
z
" style="fill:#ed5a58;"/>
   </g>
   <g id="patch_29">
    <path clip-path="url(#p89acf69b9a)" d="M 769.136 311.665 
L 788.6505 311.665 
L 788.6505 211.915977 
L 769.136 211.915977 
z
" style="fill:#ed5a58;"/>
   </g>
   <g id="matplotlib.axis_3">
    <g id="ytick_7">
     <g id="line2d_17">
      <defs>
       <path d="M 0 0 
L 3.5 0 
" id="m2d578fa690" style="stroke:#000000;stroke-width:0.8;"/>
      </defs>
      <g>
       <use style="stroke:#000000;stroke-width:0.8;" x="808.165" xlink:href="#m2d578fa690" y="311.665"/>
      </g>
     </g>
     <g id="text_20">
      <!-- 0.0 -->
      <defs>
       <path d="M 10.6875 12.40625 
L 21 12.40625 
L 21 0 
L 10.6875 0 
z
" id="DejaVuSans-46"/>
      </defs>
      <g transform="translate(815.165 316.224063)scale(0.12 -0.12)">
       <use xlink:href="#DejaVuSans-48"/>
       <use x="63.623047" xlink:href="#DejaVuSans-46"/>
       <use x="95.410156" xlink:href="#DejaVuSans-48"/>
      </g>
     </g>
    </g>
    <g id="ytick_8">
     <g id="line2d_18">
      <g>
       <use style="stroke:#000000;stroke-width:0.8;" x="808.165" xlink:href="#m2d578fa690" y="280.183864"/>
      </g>
     </g>
     <g id="text_21">
      <!-- 0.5 -->
      <g transform="translate(815.165 284.742927)scale(0.12 -0.12)">
       <use xlink:href="#DejaVuSans-48"/>
       <use x="63.623047" xlink:href="#DejaVuSans-46"/>
       <use x="95.410156" xlink:href="#DejaVuSans-53"/>
      </g>
     </g>
    </g>
    <g id="ytick_9">
     <g id="line2d_19">
      <g>
       <use style="stroke:#000000;stroke-width:0.8;" x="808.165" xlink:href="#m2d578fa690" y="248.702729"/>
      </g>
     </g>
     <g id="text_22">
      <!-- 1.0 -->
      <g transform="translate(815.165 253.261791)scale(0.12 -0.12)">
       <use xlink:href="#DejaVuSans-49"/>
       <use x="63.623047" xlink:href="#DejaVuSans-46"/>
       <use x="95.410156" xlink:href="#DejaVuSans-48"/>
      </g>
     </g>
    </g>
    <g id="ytick_10">
     <g id="line2d_20">
      <g>
       <use style="stroke:#000000;stroke-width:0.8;" x="808.165" xlink:href="#m2d578fa690" y="217.221593"/>
      </g>
     </g>
     <g id="text_23">
      <!-- 1.5 -->
      <g transform="translate(815.165 221.780655)scale(0.12 -0.12)">
       <use xlink:href="#DejaVuSans-49"/>
       <use x="63.623047" xlink:href="#DejaVuSans-46"/>
       <use x="95.410156" xlink:href="#DejaVuSans-53"/>
      </g>
     </g>
    </g>
    <g id="ytick_11">
     <g id="line2d_21">
      <g>
       <use style="stroke:#000000;stroke-width:0.8;" x="808.165" xlink:href="#m2d578fa690" y="185.740457"/>
      </g>
     </g>
     <g id="text_24">
      <!-- 2.0 -->
      <g transform="translate(815.165 190.29952)scale(0.12 -0.12)">
       <use xlink:href="#DejaVuSans-50"/>
       <use x="63.623047" xlink:href="#DejaVuSans-46"/>
       <use x="95.410156" xlink:href="#DejaVuSans-48"/>
      </g>
     </g>
    </g>
    <g id="ytick_12">
     <g id="line2d_22">
      <g>
       <use style="stroke:#000000;stroke-width:0.8;" x="808.165" xlink:href="#m2d578fa690" y="154.259322"/>
      </g>
     </g>
     <g id="text_25">
      <!-- 2.5 -->
      <g transform="translate(815.165 158.818384)scale(0.12 -0.12)">
       <use xlink:href="#DejaVuSans-50"/>
       <use x="63.623047" xlink:href="#DejaVuSans-46"/>
       <use x="95.410156" xlink:href="#DejaVuSans-53"/>
      </g>
     </g>
    </g>
    <g id="ytick_13">
     <g id="line2d_23">
      <g>
       <use style="stroke:#000000;stroke-width:0.8;" x="808.165" xlink:href="#m2d578fa690" y="122.778186"/>
      </g>
     </g>
     <g id="text_26">
      <!-- 3.0 -->
      <g transform="translate(815.165 127.337248)scale(0.12 -0.12)">
       <use xlink:href="#DejaVuSans-51"/>
       <use x="63.623047" xlink:href="#DejaVuSans-46"/>
       <use x="95.410156" xlink:href="#DejaVuSans-48"/>
      </g>
     </g>
    </g>
    <g id="ytick_14">
     <g id="line2d_24">
      <g>
       <use style="stroke:#000000;stroke-width:0.8;" x="808.165" xlink:href="#m2d578fa690" y="91.29705"/>
      </g>
     </g>
     <g id="text_27">
      <!-- 3.5 -->
      <g transform="translate(815.165 95.856113)scale(0.12 -0.12)">
       <use xlink:href="#DejaVuSans-51"/>
       <use x="63.623047" xlink:href="#DejaVuSans-46"/>
       <use x="95.410156" xlink:href="#DejaVuSans-53"/>
      </g>
     </g>
    </g>
    <g id="ytick_15">
     <g id="line2d_25">
      <g>
       <use style="stroke:#000000;stroke-width:0.8;" x="808.165" xlink:href="#m2d578fa690" y="59.815915"/>
      </g>
     </g>
     <g id="text_28">
      <!-- 4.0 -->
      <g transform="translate(815.165 64.374977)scale(0.12 -0.12)">
       <use xlink:href="#DejaVuSans-52"/>
       <use x="63.623047" xlink:href="#DejaVuSans-46"/>
       <use x="95.410156" xlink:href="#DejaVuSans-48"/>
      </g>
     </g>
    </g>
    <g id="text_29">
     <!-- Percentage -->
     <defs>
      <path d="M 19.671875 64.796875 
L 19.671875 37.40625 
L 32.078125 37.40625 
Q 38.96875 37.40625 42.71875 40.96875 
Q 46.484375 44.53125 46.484375 51.125 
Q 46.484375 57.671875 42.71875 61.234375 
Q 38.96875 64.796875 32.078125 64.796875 
z
M 9.8125 72.90625 
L 32.078125 72.90625 
Q 44.34375 72.90625 50.609375 67.359375 
Q 56.890625 61.8125 56.890625 51.125 
Q 56.890625 40.328125 50.609375 34.8125 
Q 44.34375 29.296875 32.078125 29.296875 
L 19.671875 29.296875 
L 19.671875 0 
L 9.8125 0 
z
" id="DejaVuSans-80"/>
     </defs>
     <g transform="translate(847.366875 204.9075)rotate(-90)scale(0.12 -0.12)">
      <use xlink:href="#DejaVuSans-80"/>
      <use x="60.255859" xlink:href="#DejaVuSans-101"/>
      <use x="121.779297" xlink:href="#DejaVuSans-114"/>
      <use x="162.861328" xlink:href="#DejaVuSans-99"/>
      <use x="217.841797" xlink:href="#DejaVuSans-101"/>
      <use x="279.365234" xlink:href="#DejaVuSans-110"/>
      <use x="342.744141" xlink:href="#DejaVuSans-116"/>
      <use x="381.953125" xlink:href="#DejaVuSans-97"/>
      <use x="443.232422" xlink:href="#DejaVuSans-103"/>
      <use x="506.708984" xlink:href="#DejaVuSans-101"/>
     </g>
    </g>
   </g>
   <g id="patch_30">
    <path d="M 27.585 311.665 
L 27.585 29.96 
" style="fill:none;stroke:#000000;stroke-linecap:square;stroke-linejoin:miter;stroke-width:0.8;"/>
   </g>
   <g id="patch_31">
    <path d="M 808.165 311.665 
L 808.165 29.96 
" style="fill:none;stroke:#000000;stroke-linecap:square;stroke-linejoin:miter;stroke-width:0.8;"/>
   </g>
   <g id="patch_32">
    <path d="M 27.585 311.665 
L 808.165 311.665 
" style="fill:none;stroke:#000000;stroke-linecap:square;stroke-linejoin:miter;stroke-width:0.8;"/>
   </g>
   <g id="patch_33">
    <path d="M 27.585 29.96 
L 808.165 29.96 
" style="fill:none;stroke:#000000;stroke-linecap:square;stroke-linejoin:miter;stroke-width:0.8;"/>
   </g>
   <g id="text_30">
    <!-- Percentage of projects assigned to the top ten topics -->
    <defs>
     <path id="DejaVuSans-32"/>
     <path d="M 9.421875 54.6875 
L 18.40625 54.6875 
L 18.40625 -0.984375 
Q 18.40625 -11.421875 14.421875 -16.109375 
Q 10.453125 -20.796875 1.609375 -20.796875 
L -1.8125 -20.796875 
L -1.8125 -13.1875 
L 0.59375 -13.1875 
Q 5.71875 -13.1875 7.5625 -10.8125 
Q 9.421875 -8.453125 9.421875 -0.984375 
z
M 9.421875 75.984375 
L 18.40625 75.984375 
L 18.40625 64.59375 
L 9.421875 64.59375 
z
" id="DejaVuSans-106"/>
    </defs>
    <g transform="translate(226.601375 23.96)scale(0.144 -0.144)">
     <use xlink:href="#DejaVuSans-80"/>
     <use x="60.255859" xlink:href="#DejaVuSans-101"/>
     <use x="121.779297" xlink:href="#DejaVuSans-114"/>
     <use x="162.861328" xlink:href="#DejaVuSans-99"/>
     <use x="217.841797" xlink:href="#DejaVuSans-101"/>
     <use x="279.365234" xlink:href="#DejaVuSans-110"/>
     <use x="342.744141" xlink:href="#DejaVuSans-116"/>
     <use x="381.953125" xlink:href="#DejaVuSans-97"/>
     <use x="443.232422" xlink:href="#DejaVuSans-103"/>
     <use x="506.708984" xlink:href="#DejaVuSans-101"/>
     <use x="568.232422" xlink:href="#DejaVuSans-32"/>
     <use x="600.019531" xlink:href="#DejaVuSans-111"/>
     <use x="661.201172" xlink:href="#DejaVuSans-102"/>
     <use x="696.40625" xlink:href="#DejaVuSans-32"/>
     <use x="728.193359" xlink:href="#DejaVuSans-112"/>
     <use x="791.669922" xlink:href="#DejaVuSans-114"/>
     <use x="832.751953" xlink:href="#DejaVuSans-111"/>
     <use x="893.933594" xlink:href="#DejaVuSans-106"/>
     <use x="921.716797" xlink:href="#DejaVuSans-101"/>
     <use x="983.240234" xlink:href="#DejaVuSans-99"/>
     <use x="1038.220703" xlink:href="#DejaVuSans-116"/>
     <use x="1077.429688" xlink:href="#DejaVuSans-115"/>
     <use x="1129.529297" xlink:href="#DejaVuSans-32"/>
     <use x="1161.316406" xlink:href="#DejaVuSans-97"/>
     <use x="1222.595703" xlink:href="#DejaVuSans-115"/>
     <use x="1274.695312" xlink:href="#DejaVuSans-115"/>
     <use x="1326.794922" xlink:href="#DejaVuSans-105"/>
     <use x="1354.578125" xlink:href="#DejaVuSans-103"/>
     <use x="1418.054688" xlink:href="#DejaVuSans-110"/>
     <use x="1481.433594" xlink:href="#DejaVuSans-101"/>
     <use x="1542.957031" xlink:href="#DejaVuSans-100"/>
     <use x="1606.433594" xlink:href="#DejaVuSans-32"/>
     <use x="1638.220703" xlink:href="#DejaVuSans-116"/>
     <use x="1677.429688" xlink:href="#DejaVuSans-111"/>
     <use x="1738.611328" xlink:href="#DejaVuSans-32"/>
     <use x="1770.398438" xlink:href="#DejaVuSans-116"/>
     <use x="1809.607422" xlink:href="#DejaVuSans-104"/>
     <use x="1872.986328" xlink:href="#DejaVuSans-101"/>
     <use x="1934.509766" xlink:href="#DejaVuSans-32"/>
     <use x="1966.296875" xlink:href="#DejaVuSans-116"/>
     <use x="2005.505859" xlink:href="#DejaVuSans-111"/>
     <use x="2066.6875" xlink:href="#DejaVuSans-112"/>
     <use x="2130.164062" xlink:href="#DejaVuSans-32"/>
     <use x="2161.951172" xlink:href="#DejaVuSans-116"/>
     <use x="2201.160156" xlink:href="#DejaVuSans-101"/>
     <use x="2262.683594" xlink:href="#DejaVuSans-110"/>
     <use x="2326.0625" xlink:href="#DejaVuSans-32"/>
     <use x="2357.849609" xlink:href="#DejaVuSans-116"/>
     <use x="2397.058594" xlink:href="#DejaVuSans-111"/>
     <use x="2458.240234" xlink:href="#DejaVuSans-112"/>
     <use x="2521.716797" xlink:href="#DejaVuSans-105"/>
     <use x="2549.5" xlink:href="#DejaVuSans-99"/>
     <use x="2604.480469" xlink:href="#DejaVuSans-115"/>
    </g>
   </g>
  </g>
 </g>
 <defs>
  <clipPath id="p89acf69b9a">
   <rect height="281.705" width="780.58" x="27.585" y="29.96"/>
  </clipPath>
 </defs>
</svg>
